<?xml version="1.0" encoding="utf-8"?>
<!-- Generator: Adobe Illustrator 24.2.1, SVG Export Plug-In . SVG Version: 6.00 Build 0)  -->
<svg version="1.1" id="Layer_1" xmlns="http://www.w3.org/2000/svg" xmlns:xlink="http://www.w3.org/1999/xlink" x="0px" y="0px"
	 viewBox="0 0 51 51" style="enable-background:new 0 0 51 51;" xml:space="preserve">
<style type="text/css">
	.st0{fill:#FFFFFF;stroke:#333333;stroke-miterlimit:10;}
	.st1{fill:#DCF0FF;}
	.st2{fill:#BEE6FA;}
	.st3{fill:#66B3FF;}
	.st4{fill:#80D4FF;}
	.st5{fill:#FF576B;}
	.st6{fill:#C1272D;}
	.st7{fill:#FF8095;}
	.st8{fill:#ED1C24;}
</style>
<g>
	<circle class="st0" cx="25.5" cy="25.5" r="25"/>
	<g>
		<g>
			<path class="st1" d="M34.7,16.1c0.2-0.7-0.6-1.2-1.1-0.8l-2.9,2.1c-0.6,0.4-0.3,1.3,0.4,1.3c0.1,0,0.3,0,0.4-0.1l2.9-2.1
				c0.2-0.2,0.1-0.2,0.1,0.1v4.7c0,0.4,0.3,0.7,0.7,0.7c0.4,0,0.7-0.3,0.7-0.7v-4.7C36,15.9,35.2,15.6,34.7,16.1L34.7,16.1z"/>
			<path class="st1" d="M24.6,15.5l3.5,2.9c0.1,0.1,0.3,0.2,0.5,0.2c0.7,0,1-0.9,0.5-1.3l-3.5-2.9c-0.3-0.3-0.8-0.2-1,0.1
				C24.3,14.8,24.3,15.3,24.6,15.5z"/>
			<path class="st1" d="M34.6,24.4c-0.5,0.5-2.1,1.8-3.1,2.7c-0.5,0.4-1.2,0.1-1.2-0.5c-0.5,0.4-1.2,0-1.2-0.6v-5.5
				c0-0.4,0.3-0.7,0.7-0.7c0.4,0,0.7,0.3,0.7,0.7v5.5c2.3-1.9,1.3-1.1,3.1-2.6c0.3-0.3,0.8-0.2,1,0.1C34.9,23.7,34.9,24.1,34.6,24.4
				L34.6,24.4z"/>
		</g>
		<path class="st2" d="M33.6,25.2c-0.1,0.1,0.2-0.2-2.1,1.8c-0.5,0.4-1.2,0.1-1.2-0.5c-0.5,0.4-1.2,0-1.2-0.6v-0.6
			c0.6-0.2,1.3-0.2,1.9,0.2c0.1-0.1,0.2-0.2,0.4-0.3H33.6z"/>
		<path class="st2" d="M28.2,26.8h-3.1c-0.4,0-0.7,0.3-0.7,0.7c0,0.4,0.3,0.7,0.7,0.7h3.1c0.4,0,0.7-0.3,0.7-0.7
			C29,27.1,28.7,26.8,28.2,26.8z"/>
		<path class="st2" d="M30.7,29l2.9,2.1c0.1,0.1,0.3,0.1,0.4,0.1c0.7,0,1-0.9,0.4-1.3l-2.9-2.1c-0.6-0.4-1.3,0.1-1.1,0.8
			c-0.4-0.5-1.3-0.2-1.3,0.5v4.7c0,0.7,0.9,1,1.3,0.5c-0.2,0.7,0.6,1.2,1.1,0.8l2.9-2.1c0.3-0.2,0.4-0.7,0.2-1
			c-0.2-0.3-0.7-0.4-1-0.2c-3.2,2.3-3,2.1-3.1,2.2c0-0.1,0,0.3,0-4.9C30.5,28.8,30.4,28.9,30.7,29L30.7,29z"/>
		<path class="st3" d="M32.1,27.5c0,1.3-1,2.3-2.3,2.3c-1.6,0-2.7-1.5-2.2-3c0.5-1.4,2.1-2,3.4-1.2C31.7,26,32.1,26.7,32.1,27.5z"/>
		<circle class="st3" cx="29.8" cy="35.4" r="2.3"/>
		<circle class="st3" cx="35.3" cy="31.5" r="2.3"/>
		<circle class="st4" cx="35.3" cy="22.8" r="2.3"/>
		<circle class="st4" cx="35.3" cy="15" r="2.3"/>
		<circle class="st4" cx="29.8" cy="18.9" r="2.3"/>
		<path class="st5" d="M25.8,13.9v22.5c0,0.2-0.1,0.5-0.3,0.6c-1.9,1.3-4.6,0.4-5.3-1.8c-1.6-0.3-2.8-1.6-2.9-3.3
			c-1.6-0.5-2.6-2.2-2.3-3.9c-2.1-1.3-2.2-4.5,0-5.9c-0.3-1.7,0.7-3.3,2.3-3.9c0.1-1.7,1.3-3,2.9-3.3c0.7-2.2,3.4-3.1,5.3-1.8
			C25.7,13.4,25.8,13.7,25.8,13.9L25.8,13.9z"/>
		<path class="st6" d="M25.8,25.2v11.2c0,0.2-0.1,0.5-0.3,0.6c-1.9,1.3-4.6,0.4-5.3-1.8c-1.6-0.3-2.8-1.6-2.9-3.3
			c-1.6-0.5-2.6-2.2-2.3-3.9c-1-0.6-1.6-1.7-1.6-2.9H25.8z"/>
		<path class="st7" d="M25.8,23.2c0,3.8,0,3.6-0.1,3.8c-0.3,1.4-1.5,2.4-3,2.4c-0.4,0-0.7-0.3-0.7-0.7c0-0.4,0.3-0.7,0.7-0.7
			c0.9,0,1.6-0.7,1.6-1.6c0-0.9-0.7-1.6-1.6-1.6c-0.4,0-0.7-0.3-0.7-0.7s0.3-0.7,0.7-0.7c0.6,0,1.1,0.2,1.6,0.5v-0.5
			c0-1.5-1.3-2.8-2.8-2.8c-0.4,0-0.7-0.3-0.7-0.7c0-0.4,0.3-0.7,0.7-0.7C23.9,19,25.8,20.9,25.8,23.2L25.8,23.2z"/>
		<path class="st8" d="M25.8,25.2c0,1.6,0,1.6-0.1,1.8c-0.3,1.4-1.5,2.4-3,2.4c-0.4,0-0.7-0.3-0.7-0.7c0-0.4,0.3-0.7,0.7-0.7
			c1.4,0,2.2-1.7,1.2-2.7H25.8z"/>
	</g>
</g>
</svg>
