<?xml version="1.0" encoding="utf-8"?>
<!-- Generator: Adobe Illustrator 24.2.1, SVG Export Plug-In . SVG Version: 6.00 Build 0)  -->
<svg version="1.1" id="Layer_1" xmlns="http://www.w3.org/2000/svg" xmlns:xlink="http://www.w3.org/1999/xlink" x="0px" y="0px"
	 viewBox="0 0 51 51" style="enable-background:new 0 0 51 51;" xml:space="preserve">
<style type="text/css">
	.st0{fill:#FFFFFF;stroke:#333333;stroke-miterlimit:10;}
	.st1{fill:#29ABE2;}
	.st2{fill:#0071BC;}
	.st3{fill:#FC476E;}
	.st4{fill:#CC2B5A;}
	.st5{fill:#E3FAFF;}
	.st6{fill:#FFFFFF;}
</style>
<g>
	<circle class="st0" cx="25.5" cy="25.5" r="25"/>
	<path class="st1" d="M31.7,38H17.1c-1.9,0-3.4-1.5-3.4-3.4V19.4c0-1.9,1.5-3.4,3.4-3.4H31c2.2,0,4,1.8,4,4v14.5
		C35.1,36.5,33.5,38,31.7,38z"/>
	<path class="st2" d="M32.2,16.2c0.1,0.4,0.2,0.8,0.2,1.2v0c0,9.9-8,17.9-17.9,17.9c-0.2,0-0.4,0-0.6-0.1c0.3,1.6,1.7,2.8,3.4,2.8
		h14.5c1.9,0,3.4-1.5,3.4-3.4V20.1C35.1,18.2,33.9,16.7,32.2,16.2z"/>
	<path class="st3" d="M37.3,18.7c0-3.1-2.5-5.7-5.7-5.7S26,15.5,26,18.7s2.5,5.7,5.7,5.7S37.3,21.8,37.3,18.7z"/>
	<path class="st4" d="M34.8,14c0.6,0.9,0.9,1.9,0.9,3c0,3.1-2.5,5.7-5.7,5.7c-1.2,0-2.3-0.4-3.2-1c1,1.6,2.8,2.6,4.8,2.6
		c3.1,0,5.7-2.5,5.7-5.7C37.3,16.7,36.3,15,34.8,14z"/>
	<path class="st5" d="M17.2,33.8C17.2,33.8,17.2,33.8,17.2,33.8l1.6-5.1c0.1-0.2,0.3-0.3,0.5-0.3c0.2,0,0.5,0.1,0.5,0.3l1.5,5
		c0,0,0,0,0,0.1c0,0.2-0.3,0.3-0.5,0.3c-0.1,0-0.2,0-0.3-0.2l-0.3-1.1h-1.9L18,34c0,0.1-0.1,0.2-0.3,0.2
		C17.5,34.2,17.2,34,17.2,33.8z M20.1,32.2l-0.8-2.7l-0.8,2.7H20.1z"/>
	<path class="st5" d="M22,28.7c0-0.1,0.1-0.3,0.3-0.3h1.5c1,0,1.7,0.5,1.7,1.7v0.1c0,1.2-0.8,1.7-1.8,1.7h-1v1.9
		c0,0.2-0.2,0.3-0.4,0.3c-0.2,0-0.4-0.1-0.4-0.3V28.7z M22.8,29.2v2.1h1c0.6,0,0.9-0.3,0.9-1v-0.1c0-0.7-0.4-1-0.9-1H22.8z"/>
	<path class="st5" d="M26.2,28.7c0-0.1,0.1-0.3,0.3-0.3h1.5c1,0,1.7,0.5,1.7,1.7v0.1c0,1.2-0.8,1.7-1.8,1.7h-1v1.9
		c0,0.2-0.2,0.3-0.4,0.3c-0.2,0-0.4-0.1-0.4-0.3V28.7z M27.1,29.2v2.1h1c0.6,0,0.9-0.3,0.9-1v-0.1c0-0.7-0.4-1-0.9-1H27.1z"/>
	<path class="st6" d="M31.2,17.2h-0.9v-0.6c0.7,0,1-0.2,1.2-0.7H32v5.4h-0.8V17.2z"/>
</g>
</svg>
