<?xml version="1.0" encoding="utf-8"?>
<!-- Generator: Adobe Illustrator 24.2.1, SVG Export Plug-In . SVG Version: 6.00 Build 0)  -->
<svg version="1.1" id="Layer_1" xmlns="http://www.w3.org/2000/svg" xmlns:xlink="http://www.w3.org/1999/xlink" x="0px" y="0px"
	 viewBox="0 0 51 51" style="enable-background:new 0 0 51 51;" xml:space="preserve">
<style type="text/css">
	.st0{fill:#FFFFFF;stroke:#333333;stroke-miterlimit:10;}
	.st1{fill:#AF8D00;}
	.st2{fill:#333333;}
	.st3{fill:#808080;}
</style>
<g>
	<circle class="st0" cx="25.5" cy="25.5" r="25"/>
	<rect x="13.6" y="31.9" class="st1" width="4.6" height="6.1"/>
	<rect x="20" y="25.4" class="st1" width="4.6" height="12.6"/>
	<rect x="32.8" y="21" class="st1" width="4.6" height="17"/>
	<rect x="26.4" y="28.2" class="st1" width="4.6" height="9.8"/>
	<g>
		
			<rect x="14.5" y="22.1" transform="matrix(0.7038 -0.7104 0.7104 0.7038 -10.6603 20.3625)" class="st2" width="9.1" height="1.7"/>
		<rect x="24.7" y="17.6" transform="matrix(0.395 -0.9187 0.9187 0.395 -3.9629 36.1969)" class="st2" width="1.7" height="7"/>
		<rect x="27.1" y="18" transform="matrix(0.6631 -0.7485 0.7485 0.6631 -3.3716 30.2431)" class="st2" width="9.7" height="1.7"/>
	</g>
	<circle class="st3" cx="15.9" cy="26.2" r="2.2"/>
	<circle class="st3" cx="22.3" cy="19.7" r="2.2"/>
	<circle class="st3" cx="35.1" cy="15.2" r="2.2"/>
	<circle class="st3" cx="28.7" cy="22.5" r="2.2"/>
</g>
</svg>
