<?xml version="1.0" encoding="utf-8"?>
<!-- Generator: Adobe Illustrator 24.2.1, SVG Export Plug-In . SVG Version: 6.00 Build 0)  -->
<svg version="1.1" id="Layer_1" xmlns="http://www.w3.org/2000/svg" xmlns:xlink="http://www.w3.org/1999/xlink" x="0px" y="0px"
	 viewBox="0 0 51 51" style="enable-background:new 0 0 51 51;" xml:space="preserve">
<style type="text/css">
	.st0{fill:#FFFFFF;stroke:#333333;stroke-miterlimit:10;}
	.st1{fill-rule:evenodd;clip-rule:evenodd;fill:#FE9737;}
	.st2{fill-rule:evenodd;clip-rule:evenodd;fill:#CE6D0D;}
	.st3{fill:#FE9737;}
	.st4{fill:#E2E2E2;}
	.st5{fill-rule:evenodd;clip-rule:evenodd;fill:#838383;}
	.st6{fill-rule:evenodd;clip-rule:evenodd;fill:#F9F7F7;}
	.st7{fill-rule:evenodd;clip-rule:evenodd;fill:#595959;}
	.st8{fill-rule:evenodd;clip-rule:evenodd;fill:#E2E2E2;}
</style>
<g>
	<circle class="st0" cx="25.5" cy="25.5" r="25"/>
	<g>
		<path class="st1" d="M22.8,32.5h2.7h2.7c0-4.4,4.2-4.9,4.2-9.6c0-4.5-3.5-6.7-6.9-6.6c-3.5,0-6.9,2.2-6.9,6.6
			C18.6,27.6,22.8,28.2,22.8,32.5L22.8,32.5z"/>
	</g>
	<g>
		<path class="st2" d="M23.6,16.5c2.9,0.3,5.5,2.2,5.9,5.7c0,0.3,0,0.6,0,0.9c0,0.4,0,0.8-0.1,1.2c-0.1,0.4-0.2,0.8-0.3,1.2
			c-0.1,0.3-0.2,0.6-0.4,0.8c-1.1,2-3,3.1-3.3,5.7h1.8c0.2-0.8,0.5-1.5,1.1-2.1c0.3-0.3,0.6-0.5,0.9-0.7c1.2-1.9,3.2-3.1,3.2-6.3
			c0-4.5-3.5-6.7-6.9-6.6C24.9,16.3,24.2,16.3,23.6,16.5L23.6,16.5z"/>
	</g>
	<g>
		<path class="st3" d="M25.5,14.8c-0.2,0-0.4-0.2-0.4-0.4v-1.1c0-0.2,0.2-0.4,0.4-0.4c0.2,0,0.4,0.2,0.4,0.4v1.1
			C25.9,14.7,25.7,14.8,25.5,14.8z"/>
	</g>
	<g>
		<path class="st3" d="M21.5,15.8c-0.1,0-0.2,0-0.3-0.1l-0.8-0.8c-0.1-0.1-0.1-0.4,0-0.5c0.1-0.1,0.4-0.1,0.5,0l0.8,0.8
			c0.1,0.1,0.1,0.4,0,0.5C21.7,15.7,21.6,15.8,21.5,15.8L21.5,15.8z"/>
	</g>
	<g>
		<path class="st3" d="M29.5,15.8c-0.1,0-0.2,0-0.3-0.1c-0.1-0.1-0.1-0.4,0-0.5l0.8-0.8c0.1-0.1,0.4-0.1,0.5,0
			c0.1,0.1,0.1,0.4,0,0.5l-0.8,0.8C29.7,15.7,29.6,15.8,29.5,15.8z"/>
	</g>
	<path class="st4" d="M26.6,24h-2.3c-0.2,0-0.4,0.2-0.4,0.4c0,0.2,0.2,0.4,0.4,0.4h0.8V32c0,0.2,0.2,0.4,0.4,0.4
		c0.2,0,0.4-0.2,0.4-0.4v-7.3h0.8c0.2,0,0.4-0.2,0.4-0.4C26.9,24.1,26.8,24,26.6,24L26.6,24z"/>
	<g>
		<path class="st5" d="M23.2,34.9l2.1-0.8l2.4,0.8v1.5c0,0.8-0.7,1.5-1.5,1.5h-1.4c-0.8,0-1.5-0.7-1.5-1.5L23.2,34.9z"/>
	</g>
	<g>
		<path class="st6" d="M22.4,32h6.1c0.3,0,0.5,0.2,0.5,0.5v1.9c0,0.3-0.2,0.5-0.5,0.5h-6.1c-0.3,0-0.5-0.2-0.5-0.5v-1.9
			C22,32.2,22.2,32,22.4,32L22.4,32z"/>
	</g>
	<g>
		<path class="st7" d="M27.1,34.9h-3.8v1H26c0.7,0,0.7,0.2,0.7,0.8v0.2v0.5c0,0.2,0,0.4-0.1,0.5c0.7-0.2,1.2-0.8,1.2-1.5v-0.5v-1
			L27.1,34.9z"/>
	</g>
	<g>
		<path class="st8" d="M25.4,32c0,0.2-0.1,0.4-0.1,0.6c0,0.5,0,1.1,0.2,1.6c0.1,0.2,0.2,0.5,0.3,0.7l0,0.1h1.2h0.6c0,0,0,0,0-0.1
			c-0.4-0.7-0.5-1.5-0.5-2.3c0-0.2,0-0.4,0.1-0.6H25.4z"/>
	</g>
</g>
</svg>
