<?xml version="1.0" encoding="utf-8"?>
<!-- Generator: Adobe Illustrator 24.2.1, SVG Export Plug-In . SVG Version: 6.00 Build 0)  -->
<svg version="1.1" id="Layer_1" xmlns="http://www.w3.org/2000/svg" xmlns:xlink="http://www.w3.org/1999/xlink" x="0px" y="0px"
	 viewBox="0 0 51 51" style="enable-background:new 0 0 51 51;" xml:space="preserve">
<style type="text/css">
	.st0{fill:#FFFFFF;stroke:#333333;stroke-miterlimit:10;}
	.st1{fill:#734BBD;}
	.st2{fill:#FFF5F5;}
	.st3{fill:#5F45A9;}
	.st4{fill:#E3E7EA;}
	.st5{fill:#9B7ED0;}
</style>
<g>
	<circle class="st0" cx="25.5" cy="25.5" r="25"/>
	<g>
		<g id="Forms_4_">
			<g>
				<g>
					<g>
						<g>
							<g>
								<path class="st1" d="M35,19.6l-5.1-1.5L28.4,13H18.2C17,13,16,14,16,15.2v20.6c0,1.2,1,2.2,2.2,2.2h14.6
									c1.2,0,2.2-1,2.2-2.2V19.6z"/>
							</g>
						</g>
					</g>
				</g>
			</g>
			<g>
				<circle class="st2" cx="19.6" cy="25.5" r="0.7"/>
			</g>
			<g>
				<circle class="st2" cx="19.6" cy="28.4" r="0.7"/>
			</g>
			<g>
				<circle class="st2" cx="19.6" cy="31.4" r="0.7"/>
			</g>
		</g>
		<g id="Forms_1_">
			<g>
				<g>
					<path class="st3" d="M35,19.6v16.2c0,1.2-1,2.2-2.2,2.2h-7.3V13h2.9l1.5,5.1L35,19.6z"/>
				</g>
			</g>
		</g>
		<g>
			<g>
				<path class="st2" d="M29.9,26.2h-7.3c-0.4,0-0.7-0.3-0.7-0.7s0.3-0.7,0.7-0.7h7.3c0.4,0,0.7,0.3,0.7,0.7S30.3,26.2,29.9,26.2z"
					/>
			</g>
		</g>
		<g>
			<path class="st2" d="M29.9,29.2h-7.3c-0.4,0-0.7-0.3-0.7-0.7s0.3-0.7,0.7-0.7h7.3c0.4,0,0.7,0.3,0.7,0.7S30.3,29.2,29.9,29.2z"/>
		</g>
		<g>
			<path class="st2" d="M29.9,32.1h-7.3c-0.4,0-0.7-0.3-0.7-0.7s0.3-0.7,0.7-0.7h7.3c0.4,0,0.7,0.3,0.7,0.7S30.3,32.1,29.9,32.1z"/>
		</g>
		<g>
			<path class="st4" d="M25.5,32.1h4.4c0.4,0,0.7-0.3,0.7-0.7s-0.3-0.7-0.7-0.7h-4.4V32.1z"/>
			<path class="st4" d="M25.5,29.2h4.4c0.4,0,0.7-0.3,0.7-0.7s-0.3-0.7-0.7-0.7h-4.4V29.2z"/>
			<path class="st4" d="M25.5,26.2h4.4c0.4,0,0.7-0.3,0.7-0.7s-0.3-0.7-0.7-0.7h-4.4V26.2z"/>
		</g>
		<path class="st5" d="M35,19.6h-5.1c-0.8,0-1.5-0.7-1.5-1.5V13c0.2,0,0.4,0.1,0.5,0.2l5.9,5.9C34.9,19.2,35,19.4,35,19.6z"/>
	</g>
</g>
</svg>
