<?xml version="1.0" encoding="utf-8"?>
<!-- Generator: Adobe Illustrator 24.2.1, SVG Export Plug-In . SVG Version: 6.00 Build 0)  -->
<svg version="1.1" id="Layer_1" xmlns="http://www.w3.org/2000/svg" xmlns:xlink="http://www.w3.org/1999/xlink" x="0px" y="0px"
	 viewBox="0 0 51 51" style="enable-background:new 0 0 51 51;" xml:space="preserve">
<style type="text/css">
	.st0{fill:#FFFFFF;stroke:#333333;stroke-miterlimit:10;}
	.st1{fill:#9ABADB;}
	.st2{fill:#D1E8FF;}
	.st3{fill:#F5F5FF;}
	.st4{fill:#294B6E;}
	.st5{fill:#6283A3;}
	.st6{fill:#7C117C;}
	.st7{fill:#93278F;}
</style>
<g>
	<g>
		<g>
			<circle class="st0" cx="25.5" cy="25.5" r="25"/>
			<polygon class="st1" points="29.6,37.2 29.6,34 24.4,32.9 25.5,37.2 			"/>
			<g>
				<polygon class="st2" points="21.4,37.2 25.5,37.2 25.5,32.9 21.4,34 				"/>
				<polygon class="st2" points="39.3,29.1 24.4,28.1 25.5,34 39.3,34 				"/>
			</g>
			<polygon class="st3" points="11.7,29.1 11.7,34 25.5,34 25.5,28.1 			"/>
			<polygon class="st2" points="32,36.4 25.5,36.4 25,37.2 25.5,38 32,38 			"/>
			<rect x="19" y="36.4" class="st3" width="6.5" height="1.6"/>
			<polygon class="st4" points="39.3,13 25.5,13 24.4,21.1 25.5,29.1 39.3,29.1 			"/>
		</g>
		<rect x="11.7" y="13" class="st5" width="13.8" height="16.1"/>
	</g>
	<path class="st6" d="M25.5,16.2l-1.1,7.3l1.1,7.3c4,0,7.3-3.3,7.3-7.3S29.5,16.2,25.5,16.2z"/>
	<path class="st7" d="M18.2,23.5c0,4,3.3,7.3,7.3,7.3V16.2C21.5,16.2,18.2,19.5,18.2,23.5z"/>
	<path class="st3" d="M30.4,24.3v-1.6h-1.4c-0.1-0.4-0.2-0.7-0.4-1.1l1-1l-1.1-1.1l-1,1c-0.3-0.2-0.7-0.4-1.1-0.4v-1.4h-0.8l0,0
		h-0.8V20c-0.4,0.1-0.7,0.2-1.1,0.4l-1-1l-1.1,1.1l1,1c-0.2,0.3-0.4,0.7-0.4,1.1h-1.4v1.6h1.4c0.1,0.4,0.2,0.7,0.4,1.1l-1,1l1.1,1.1
		l1-1c0.3,0.2,0.7,0.4,1.1,0.4v1.4h0.8v0h0.8v-1.4c0.4-0.1,0.7-0.2,1.1-0.4l1,1l1.1-1.1l-1-1c0.2-0.3,0.4-0.7,0.4-1.1H30.4z
		 M25.5,25.4c-1.1,0-1.9-0.9-1.9-1.9s0.9-1.9,1.9-1.9s1.9,0.9,1.9,1.9S26.6,25.4,25.5,25.4z"/>
</g>
</svg>
