<?xml version="1.0" encoding="utf-8"?>
<!-- Generator: Adobe Illustrator 24.2.1, SVG Export Plug-In . SVG Version: 6.00 Build 0)  -->
<svg version="1.1" id="Layer_1" xmlns="http://www.w3.org/2000/svg" xmlns:xlink="http://www.w3.org/1999/xlink" x="0px" y="0px"
	 viewBox="0 0 51 51" style="enable-background:new 0 0 51 51;" xml:space="preserve">
<style type="text/css">
	.st0{fill:#FFFFFF;stroke:#333333;stroke-miterlimit:10;}
	.st1{fill:#808080;}
	.st2{fill:#666666;}
	.st3{fill:#4D4D4D;}
	.st4{fill:#333333;}
	.st5{fill:#FFFFFF;}
	.st6{fill:#CCCCCC;}
</style>
<g>
	<circle class="st0" cx="25.5" cy="25.5" r="25"/>
	<g>
		<path class="st1" d="M37.2,28c0,0-0.6,1.1-0.7,1.3c-0.2,0.4-0.6,0.5-1,0.3c-0.1-0.1-1.1-0.6-1.2-0.7c-0.4,0.3-0.8,0.6-1.4,0.8v1
			c0,0.4-0.3,0.7-0.7,0.7h-1.5c-0.4,0-0.7-0.3-0.7-0.7v-1c-0.5-0.2-1-0.5-1.4-0.8l-2.3,1.2l-2.1,0.3l0.6-2.9l2.3-1.2
			c0-0.3-0.1-0.5-0.1-0.8c0-0.3,0-0.5,0.1-0.8l-2.3-1.2L24,20.8l2.2,0.2l2.3,1.2c0.4-0.4,0.9-0.6,1.4-0.8v-1c0-0.4,0.3-0.7,0.7-0.7
			h1.5c0.4,0,0.7,0.3,0.7,0.7v1c0.5,0.2,1,0.5,1.4,0.8c0,0,0,0,0,0c0.1-0.1,1.1-0.6,1.2-0.7c0.4-0.2,0.8-0.1,1,0.3
			c0,0,0.6,1.1,0.7,1.3c0.2,0.4,0.1,0.8-0.3,1c-0.2,0.1-1.1,0.6-1.2,0.7c0.1,0.3,0.1,0.5,0.1,0.8s0,0.5-0.1,0.8
			c0.2,0.1,1.1,0.6,1.2,0.7C37.3,27.2,37.4,27.7,37.2,28z"/>
		<path class="st2" d="M37.2,28c0,0-0.6,1.1-0.7,1.3c-0.2,0.4-0.6,0.5-1,0.3c-0.1-0.1-1.1-0.6-1.2-0.7c-0.4,0.3-0.8,0.6-1.4,0.8v1
			c0,0.4-0.3,0.7-0.7,0.7h-0.7V19.6h0.7c0.4,0,0.7,0.3,0.7,0.7v1c0.5,0.2,1,0.5,1.4,0.8c0,0,0,0,0,0c0.1-0.1,1.1-0.6,1.2-0.7
			c0.4-0.2,0.8-0.1,1,0.3c0,0,0.6,1.1,0.7,1.3c0.2,0.4,0.1,0.8-0.3,1c-0.2,0.1-1.1,0.6-1.2,0.7c0.1,0.3,0.1,0.5,0.1,0.8
			s0,0.5-0.1,0.8c0.2,0.1,1.1,0.6,1.2,0.7C37.3,27.2,37.4,27.7,37.2,28z"/>
		<path class="st2" d="M25.5,34.6c0,0-0.6,1.1-0.7,1.3c-0.2,0.4-0.6,0.5-1,0.3c-0.1-0.1-1.1-0.6-1.2-0.7c-0.4,0.3-0.8,0.6-1.4,0.8v1
			c0,0.4-0.3,0.7-0.7,0.7h-1.5c-0.4,0-0.7-0.3-0.7-0.7v-1c-0.5-0.2-1-0.5-1.4-0.8c-0.1,0.1-1.1,0.6-1.2,0.7c-0.4,0.2-0.8,0.1-1-0.3
			c-0.1-0.1-0.6-1.1-0.7-1.3c-0.2-0.4-0.1-0.8,0.2-1c0,0,1.1-0.6,1.2-0.7c0-0.3-0.1-0.5-0.1-0.8s0-0.5,0.1-0.8
			c-0.2-0.1-1.1-0.6-1.2-0.7c-0.4-0.2-0.5-0.7-0.3-1c0.1-0.1,0.6-1.1,0.7-1.3c0.2-0.4,0.6-0.5,1-0.3c0,0,1.1,0.6,1.3,0.7
			c0.4-0.4,0.9-0.6,1.4-0.8c0,0,0-2.3,0-2.5l1.5-1.5l1.5,1.5c0,0,0,2.3,0,2.5c0.5,0.2,1,0.5,1.4,0.8l2.3-1.2l1.5,2.5l-2.3,1.2
			c0.1,0.3,0.1,0.5,0.1,0.8c0,0.3,0,0.5-0.1,0.8c0.2,0.1,1.1,0.6,1.2,0.7C25.5,33.8,25.7,34.2,25.5,34.6z"/>
		<path class="st3" d="M25.5,34.6c0,0-0.6,1.1-0.7,1.3c-0.2,0.4-0.6,0.5-1,0.3c-0.1-0.1-1.1-0.6-1.2-0.7c-0.4,0.3-0.8,0.6-1.4,0.8v1
			c0,0.4-0.3,0.7-0.7,0.7h-0.7V24l1.5,1.5c0,0,0,2.3,0,2.5c0.5,0.2,1,0.5,1.4,0.8l2.3-1.2l1.5,2.5l-2.3,1.2c0.1,0.3,0.1,0.5,0.1,0.8
			c0,0.3,0,0.5-0.1,0.8c0.2,0.1,1.1,0.6,1.2,0.7C25.5,33.8,25.7,34.2,25.5,34.6z"/>
		<path class="st3" d="M26.2,20.9l-1.5,2.5l-2.3-1.2c-0.2,0.2-0.4,0.3-0.6,0.5c-0.2,0.1-0.5,0.2-0.7,0.3c0,0,0,2.3,0,2.5h-2.9
			c0,0,0-2.3,0-2.5c-0.5-0.2-1-0.5-1.4-0.8c-0.1,0.1-1.1,0.6-1.2,0.7c-0.4,0.2-0.8,0.1-1-0.3c-0.1-0.1-0.6-1.1-0.7-1.3
			c-0.2-0.4-0.1-0.8,0.2-1c0,0,1.1-0.6,1.2-0.7c0-0.3-0.1-0.5-0.1-0.8s0-0.5,0.1-0.8c-0.2-0.1-1.1-0.6-1.2-0.7
			c-0.4-0.2-0.5-0.7-0.3-1c0.1-0.1,0.6-1.1,0.7-1.3c0.2-0.4,0.6-0.5,1-0.3c0,0,1.1,0.6,1.3,0.7c0.4-0.4,0.9-0.6,1.4-0.8v-1
			c0-0.4,0.3-0.7,0.7-0.7h1.5c0.4,0,0.7,0.3,0.7,0.7v1c0.5,0.2,1,0.5,1.4,0.8c0,0,0,0,0,0c0.1-0.1,1.1-0.6,1.2-0.7
			c0.4-0.2,0.8-0.1,1,0.3c0,0,0.6,1.1,0.7,1.3c0.2,0.4,0.1,0.8-0.3,1c-0.2,0.1-1.1,0.6-1.2,0.7c0.1,0.3,0.1,0.5,0.1,0.8
			s0,0.5-0.1,0.8L26.2,20.9z"/>
		<path class="st4" d="M26.2,20.9l-1.5,2.5l-2.3-1.2c-0.2,0.2-0.4,0.3-0.6,0.5c-0.2,0.1-0.5,0.2-0.7,0.3c0,0,0,2.3,0,2.5h-1.5V13
			h0.7c0.4,0,0.7,0.3,0.7,0.7v1c0.5,0.2,1,0.5,1.4,0.8c0,0,0,0,0,0c0.1-0.1,1.1-0.6,1.2-0.7c0.4-0.2,0.8-0.1,1,0.3
			c0,0,0.6,1.1,0.7,1.3c0.2,0.4,0.1,0.8-0.3,1c-0.2,0.1-1.1,0.6-1.2,0.7c0.1,0.3,0.1,0.5,0.1,0.8s0,0.5-0.1,0.8L26.2,20.9z"/>
		<path class="st5" d="M34.1,23.5c-0.3-0.3-0.7-0.3-1,0l-1.7,1.7l-0.7,0.7l-1-0.9c-0.3-0.3-0.7-0.3-1,0c-0.3,0.3-0.3,0.7,0,1
			l1.5,1.5c0.1,0.1,0.3,0.2,0.5,0.2s0.4-0.1,0.5-0.2l0.2-0.2l2.7-2.7C34.4,24.3,34.4,23.8,34.1,23.5z"/>
		<path class="st5" d="M22.3,30.1c-0.3-0.3-0.7-0.3-1,0l-1.7,1.7l-0.7,0.7l-1-0.9c-0.3-0.3-0.7-0.3-1,0c-0.3,0.3-0.3,0.7,0,1
			l1.5,1.5c0.1,0.1,0.3,0.2,0.5,0.2s0.4-0.1,0.5-0.2l0.2-0.2l2.7-2.7C22.6,30.9,22.6,30.4,22.3,30.1z"/>
		<path class="st5" d="M22.3,16.9c-0.3-0.3-0.7-0.3-1,0l-1.7,1.7l-0.7,0.7l-1-0.9c-0.3-0.3-0.7-0.3-1,0c-0.3,0.3-0.3,0.7,0,1
			l1.5,1.5c0.1,0.1,0.3,0.2,0.5,0.2s0.4-0.1,0.5-0.2l0.2-0.2l2.7-2.7C22.6,17.7,22.6,17.2,22.3,16.9z"/>
		<path class="st6" d="M22.3,18l-2.7,2.7v-2.1l1.7-1.7c0.3-0.3,0.7-0.3,1,0C22.6,17.2,22.6,17.7,22.3,18z"/>
		<path class="st6" d="M22.3,31.1l-2.7,2.7v-2.1l1.7-1.7c0.3-0.3,0.7-0.3,1,0C22.6,30.4,22.6,30.9,22.3,31.1z"/>
		<path class="st6" d="M34.1,24.5l-2.7,2.7v-2.1l1.7-1.7c0.3-0.3,0.7-0.3,1,0C34.4,23.8,34.4,24.3,34.1,24.5z"/>
	</g>
</g>
</svg>
