<?xml version="1.0" encoding="utf-8"?>
<!-- Generator: Adobe Illustrator 24.2.1, SVG Export Plug-In . SVG Version: 6.00 Build 0)  -->
<svg version="1.1" id="Layer_1" xmlns="http://www.w3.org/2000/svg" xmlns:xlink="http://www.w3.org/1999/xlink" x="0px" y="0px"
	 viewBox="0 0 51 51" style="enable-background:new 0 0 51 51;" xml:space="preserve">
<style type="text/css">
	.st0{fill:#FFFFFF;stroke:#333333;stroke-miterlimit:10;}
	.st1{fill:#006837;}
	.st2{fill:#8CC63F;}
</style>
<g>
	<circle class="st0" cx="25.5" cy="25.5" r="25"/>
	<g>
		<path class="st1" d="M24,38l0.7-1.7v-8.4L24,27l-0.9-3.7h-8.5L13,27C13,33,18,38,24,38z"/>
		<path class="st2" d="M24,27v2.6c-1.6,0-2.9,1.3-2.9,2.9c0,1.6,1.3,2.9,2.9,2.9V38c6.1,0,11-5,11-11l-1.4-0.7H26L24,27z"/>
		<path class="st1" d="M35,18.9V16h-2.9c0-1.6-1.3-3-2.9-3s-2.9,1.4-2.9,3H24l-0.7,1.3v8.4L24,27h2.6c0,1.6,1.3,2.9,2.9,2.9
			s2.9-1.3,2.9-2.9H35v-2.2c1.6,0,3-1.3,3-2.9C38,20.2,36.6,18.9,35,18.9L35,18.9z"/>
		<path class="st2" d="M24,18.5V16c-6.1,0-11,4.9-11,11h2.6c0-1.6,1.3-2.9,2.9-2.9s2.9,1.3,2.9,2.9H24v-2.6c1.6,0,2.9-1.3,2.9-2.9
			S25.7,18.5,24,18.5z"/>
	</g>
</g>
</svg>
