<?xml version="1.0" encoding="utf-8"?>
<!-- Generator: Adobe Illustrator 24.2.1, SVG Export Plug-In . SVG Version: 6.00 Build 0)  -->
<svg version="1.1" id="Layer_1" xmlns="http://www.w3.org/2000/svg" xmlns:xlink="http://www.w3.org/1999/xlink" x="0px" y="0px"
	 viewBox="0 0 51 51" style="enable-background:new 0 0 51 51;" xml:space="preserve">
<style type="text/css">
	.st0{fill:#FFFFFF;stroke:#333333;stroke-miterlimit:10;}
	.st1{fill:#666666;}
	.st2{fill:#93278F;}
	.st3{fill:#E8EDED;}
</style>
<g>
	<circle class="st0" cx="25.5" cy="25.5" r="25"/>
	<g>
		<g>
			<path class="st1" d="M32.4,21.3l-6.9-4l-6.9,4l-0.4-0.7l7.2-4.2c0.1-0.1,0.3-0.1,0.4,0l7.1,4.2L32.4,21.3z"/>
			<path class="st1" d="M21.4,28.7l-3-3.8l-3,3.8l-0.7-0.5l3.3-4.2c0.2-0.2,0.5-0.2,0.7,0l3.3,4.2L21.4,28.7z"/>
			<rect x="21.3" y="31.8" class="st1" width="0.8" height="2.5"/>
			<path class="st1" d="M35.6,28.7l-3-3.8l-3,3.8l-0.7-0.5l3.3-4.2c0.2-0.2,0.5-0.2,0.7,0l3.3,4.2L35.6,28.7z"/>
			<rect x="28.8" y="31.8" class="st1" width="0.8" height="2.5"/>
			<rect x="35.5" y="31.8" class="st1" width="0.8" height="2.5"/>
			<rect x="14.7" y="31.8" class="st1" width="0.8" height="2.5"/>
		</g>
		<polygon class="st2" points="17.2,33.8 15.1,33.8 13,33.8 13,38 17.2,38 		"/>
		<polygon class="st2" points="19.7,38 23.8,38 23.8,33.8 21.8,33.8 19.7,33.8 		"/>
		<polygon class="st2" points="27.2,38 31.3,38 31.3,33.8 29.3,33.8 27.2,33.8 		"/>
		<polygon class="st2" points="33.8,38 38,38 38,33.8 35.9,33.8 33.8,33.8 		"/>
		<polygon class="st2" points="17.2,28 15.1,28 13,28 13,32.2 15.1,32.2 17.2,32.2 		"/>
		<polygon class="st2" points="19.7,32.2 21.8,32.2 23.8,32.2 23.8,28 21.8,28 19.7,28 		"/>
		<polygon class="st2" points="20.5,20.5 16.3,20.5 16.3,24.7 18.4,24.7 20.5,24.7 		"/>
		<polygon class="st3" points="25.5,16.8 25.5,16.8 25.5,16.7 		"/>
		<g>
			<polygon class="st2" points="27.6,13 23.4,13 23.4,17.2 25.5,17.2 25.5,17.2 25.5,17.2 27.6,17.2 			"/>
			<polygon class="st2" points="34.7,20.5 32.6,20.5 30.5,20.5 30.5,24.7 32.6,24.7 34.7,24.7 			"/>
			<polygon class="st2" points="27.2,32.2 29.3,32.2 31.3,32.2 31.3,28 29.3,28 27.2,28 			"/>
		</g>
		<polygon class="st2" points="33.8,28 33.8,32.2 35.9,32.2 38,32.2 38,28 35.9,28 		"/>
	</g>
</g>
</svg>
