<?xml version="1.0" encoding="utf-8"?>
<!-- Generator: Adobe Illustrator 24.2.1, SVG Export Plug-In . SVG Version: 6.00 Build 0)  -->
<svg version="1.1" id="Layer_1" xmlns="http://www.w3.org/2000/svg" xmlns:xlink="http://www.w3.org/1999/xlink" x="0px" y="0px"
	 viewBox="0 0 51 51" style="enable-background:new 0 0 51 51;" xml:space="preserve">
<style type="text/css">
	.st0{fill:#FFFFFF;stroke:#333333;stroke-miterlimit:10;}
	.st1{fill:#A294A1;}
	.st2{fill:#615F74;}
	.st3{fill:#FFFFFF;}
	.st4{fill:#BCAFBC;}
</style>
<g>
	<circle class="st0" cx="25.5" cy="25.5" r="25"/>
	<g>
		<g>
			<path class="st1" d="M13.6,37.4c-0.4-0.4-0.6-1-0.6-1.6c0-0.6,0.2-1.1,0.6-1.6l16.1-16.1c0.3-0.3,0.7-0.3,1,0l2.1,2.1
				c0.1,0.1,0.2,0.3,0.2,0.5s-0.1,0.4-0.2,0.5L16.8,37.4c-0.4,0.4-1,0.6-1.6,0.6S14.1,37.8,13.6,37.4L13.6,37.4z"/>
		</g>
		<path class="st2" d="M32.9,20.2c0.1,0.1,0.2,0.3,0.2,0.5s-0.1,0.4-0.2,0.5L16.8,37.4c-0.4,0.4-1,0.6-1.6,0.6
			c-0.6,0-1.1-0.2-1.6-0.6l18.2-18.2L32.9,20.2z"/>
		<circle class="st1" cx="28.4" cy="22.6" r="9.6"/>
		<path class="st2" d="M35.2,15.8c1.7,1.7,2.8,4.1,2.8,6.8c0,5.3-4.3,9.6-9.6,9.6c-2.6,0-5-1.1-6.8-2.8L35.2,15.8z"/>
		<circle class="st3" cx="28.4" cy="22.6" r="6.6"/>
		<path class="st4" d="M28.4,29.2c-1.8,0-3.5-0.7-4.7-1.9l9.4-9.4c1.2,1.2,1.9,2.9,1.9,4.7C35.1,26.2,32.1,29.2,28.4,29.2z"/>
	</g>
</g>
</svg>
