<?xml version="1.0" encoding="utf-8"?>
<!-- Generator: Adobe Illustrator 24.2.1, SVG Export Plug-In . SVG Version: 6.00 Build 0)  -->
<svg version="1.1" id="Layer_1" xmlns="http://www.w3.org/2000/svg" xmlns:xlink="http://www.w3.org/1999/xlink" x="0px" y="0px"
	 viewBox="0 0 51 51" style="enable-background:new 0 0 51 51;" xml:space="preserve">
<style type="text/css">
	.st0{fill:#FFFFFF;stroke:#333333;stroke-miterlimit:10;}
	.st1{fill:url(#SVGID_1_);}
	.st2{fill:url(#SVGID_2_);}
	.st3{opacity:0.25;}
</style>
<g>
	<circle class="st0" cx="25.5" cy="25.5" r="25"/>
	<g>
		
			<linearGradient id="SVGID_1_" gradientUnits="userSpaceOnUse" x1="10.9209" y1="40.7571" x2="30.0741" y2="21.6039" gradientTransform="matrix(1.0039 0 0 -1.0039 5.5436 57.4244)">
			<stop  offset="0" style="stop-color:#76E2F8"/>
			<stop  offset="1" style="stop-color:#48B2E3"/>
		</linearGradient>
		<path class="st1" d="M36.6,22H36c-0.2-0.5-0.4-0.9-0.6-1.4l0.4-0.4c0.6-0.6,0.6-1.4,0-2l-3-3c-0.6-0.6-1.4-0.6-2,0l-0.6,0.6
			c-0.4-0.2-0.8-0.4-1.3-0.5v-0.8c0-0.8-0.6-1.4-1.4-1.4h-4.2c-0.8,0-1.4,0.6-1.4,1.4v0.8c-0.4,0.1-0.8,0.3-1.3,0.5l-0.6-0.6
			c-0.6-0.6-1.4-0.6-2,0l-3,3c-0.6,0.6-0.6,1.4,0,2l0.4,0.4C15.4,21,15.2,21.5,15,22h-0.6c-0.8,0-1.4,0.6-1.4,1.4v4.2
			c0,0.8,0.6,1.4,1.4,1.4h0.3c0.2,0.6,0.4,1.1,0.6,1.6l-0.2,0.2c-0.6,0.6-0.6,1.4,0,2l3,3c0.6,0.6,1.4,0.6,2,0l0.1-0.1
			c0.6,0.3,1.1,0.6,1.8,0.8v0.1c0,0.8,0.6,1.4,1.4,1.4h4.2c0.8,0,1.4-0.6,1.4-1.4v-0.1c0.6-0.2,1.2-0.5,1.8-0.8l0.1,0.1
			c0.6,0.6,1.4,0.6,2,0l3-3c0.6-0.6,0.6-1.4,0-2l-0.2-0.2c0.2-0.5,0.5-1.1,0.6-1.6h0.3c0.8,0,1.4-0.6,1.4-1.4v-4.2
			C38,22.6,37.4,22,36.6,22L36.6,22z M25.5,30.4c-2.5,0-4.5-2-4.5-4.5c0-2.5,2-4.5,4.5-4.5s4.5,2,4.5,4.5S28,30.4,25.5,30.4z"/>
		
			<linearGradient id="SVGID_2_" gradientUnits="userSpaceOnUse" x1="-2332.748" y1="12.1358" x2="-2320.1587" y2="-0.4536" gradientTransform="matrix(-0.7098 -0.7098 -0.7098 0.7098 -1621.6072 -1630.0878)">
			<stop  offset="0" style="stop-color:#76E2F8"/>
			<stop  offset="1" style="stop-color:#48B2E3"/>
		</linearGradient>
		<path class="st2" d="M31.3,20.1c-3.2-3.2-8.4-3.2-11.6,0s-3.2,8.4,0,11.6s8.4,3.2,11.6,0S34.5,23.3,31.3,20.1z M22.3,29.1
			c-1.8-1.8-1.8-4.6,0-6.4s4.6-1.8,6.4,0c1.8,1.8,1.8,4.6,0,6.4C26.9,30.8,24.1,30.8,22.3,29.1z"/>
	</g>
	<path class="st3" d="M36.6,22H36c-0.2-0.5-0.4-0.9-0.6-1.4l0.4-0.4c0.6-0.6,0.6-1.4,0-2l-3-3c-0.6-0.6-1.4-0.6-2,0l-0.6,0.6
		c-0.4-0.2-0.8-0.4-1.3-0.5v-0.8c0-0.8-0.6-1.4-1.4-1.4h-4.2c-0.8,0-1.4,0.6-1.4,1.4v0.8c-0.4,0.1-0.8,0.3-1.3,0.5l-0.6-0.6
		c-0.6-0.6-1.4-0.6-2,0l-3,3c-0.6,0.6-0.6,1.4,0,2l0.4,0.4C15.4,21,15.2,21.5,15,22h-0.6c-0.8,0-1.4,0.6-1.4,1.4v4.2
		c0,0.8,0.6,1.4,1.4,1.4h0.3c0.2,0.6,0.4,1.1,0.6,1.6l-0.2,0.2c-0.6,0.6-0.6,1.4,0,2l3,3c0.6,0.6,1.4,0.6,2,0l0.1-0.1
		c0.6,0.3,1.1,0.6,1.8,0.8v0.1c0,0.8,0.6,1.4,1.4,1.4h4.2c0.8,0,1.4-0.6,1.4-1.4v-0.1c0.6-0.2,1.2-0.5,1.8-0.8l0.1,0.1
		c0.6,0.6,1.4,0.6,2,0l3-3c0.6-0.6,0.6-1.4,0-2l-0.2-0.2c0.2-0.5,0.5-1.1,0.6-1.6h0.3c0.8,0,1.4-0.6,1.4-1.4v-4.2
		C38,22.6,37.4,22,36.6,22z M24.2,30.2c-0.2,0-0.3-0.1-0.5-0.1c-0.1-0.1-0.3-0.1-0.4-0.2c-0.1-0.1-0.2-0.1-0.3-0.2
		c-0.2-0.2-0.5-0.3-0.7-0.6c-0.2-0.2-0.4-0.4-0.6-0.7c-0.1-0.1-0.1-0.2-0.2-0.4c-0.1-0.1-0.2-0.3-0.2-0.4c-0.1-0.1-0.1-0.3-0.1-0.5
		c0-0.1-0.1-0.2-0.1-0.4C21,26.5,21,26.2,21,25.9c0-0.3,0-0.6,0.1-0.9c0-0.1,0.1-0.3,0.1-0.4c0-0.2,0.1-0.3,0.1-0.5
		c0.1-0.1,0.1-0.3,0.2-0.4c0.1-0.1,0.1-0.2,0.2-0.4c0.2-0.2,0.3-0.5,0.6-0.7c0.2-0.2,0.4-0.4,0.7-0.6c0.1-0.1,0.2-0.1,0.4-0.2
		c0.1-0.1,0.3-0.2,0.4-0.2c0.1-0.1,0.3-0.1,0.5-0.1c0.1,0,0.2-0.1,0.4-0.1c0.3-0.1,0.6-0.1,0.9-0.1c0.3,0,0.6,0,0.9,0.1
		c0.1,0,0.3,0.1,0.4,0.1c0.2,0,0.3,0.1,0.5,0.1c0.1,0.1,0.3,0.1,0.4,0.2c0.1,0.1,0.2,0.1,0.3,0.2c0.2,0.2,0.5,0.3,0.7,0.6
		s0.4,0.4,0.6,0.7c0.1,0.1,0.1,0.2,0.2,0.4c0.1,0.1,0.2,0.3,0.2,0.4c0.1,0.1,0.1,0.3,0.1,0.5c0,0.1,0.1,0.2,0.1,0.4
		c0.1,0.3,0.1,0.6,0.1,0.9c0,0.3,0,0.6-0.1,0.9c0,0.1-0.1,0.3-0.1,0.4c0,0.2-0.1,0.3-0.1,0.5c-0.1,0.1-0.1,0.3-0.2,0.4
		c-0.1,0.1-0.1,0.2-0.2,0.3c-0.2,0.2-0.3,0.5-0.6,0.7c-0.2,0.2-0.4,0.4-0.7,0.6c-0.1,0.1-0.2,0.1-0.3,0.2c-0.1,0.1-0.3,0.2-0.4,0.2
		c-0.1,0.1-0.3,0.1-0.5,0.1c-0.1,0-0.2,0.1-0.4,0.1c-0.3,0.1-0.6,0.1-0.9,0.1c-0.3,0-0.6,0-0.9-0.1C24.5,30.3,24.4,30.2,24.2,30.2z"
		/>
</g>
</svg>
