<?xml version="1.0" encoding="utf-8"?>
<!-- Generator: Adobe Illustrator 24.2.1, SVG Export Plug-In . SVG Version: 6.00 Build 0)  -->
<svg version="1.1" id="Layer_1" xmlns="http://www.w3.org/2000/svg" xmlns:xlink="http://www.w3.org/1999/xlink" x="0px" y="0px"
	 viewBox="0 0 51 51" style="enable-background:new 0 0 51 51;" xml:space="preserve">
<style type="text/css">
	.st0{fill:#FFFFFF;stroke:#333333;stroke-miterlimit:10;}
	.st1{fill:#3EA800;}
	.st2{fill:#FECBAA;}
	.st3{fill:#FFFFFF;}
	.st4{fill:#FFAE85;}
	.st5{fill:#FEDFC5;}
</style>
<g>
	<circle class="st0" cx="25.5" cy="25.5" r="25"/>
	<g>
		<path class="st1" d="M25.4,36.2c-0.2,0-0.4-0.2-0.4-0.4c0-0.2,0.2-0.4,0.4-0.4c0.2,0,0.4,0.2,0.4,0.4C25.8,36,25.7,36.2,25.4,36.2
			L25.4,36.2C25.4,36.2,25.4,36.2,25.4,36.2z M23.9,36.2C23.9,36.2,23.8,36.2,23.9,36.2L23.9,36.2c-0.3,0-0.4-0.2-0.4-0.4
			c0-0.2,0.2-0.4,0.4-0.3l0,0c0.2,0,0.4,0.2,0.3,0.4C24.2,36,24.1,36.2,23.9,36.2z M27,36c-0.2,0-0.3-0.1-0.4-0.3
			c0-0.2,0.1-0.4,0.3-0.5l0,0c0.2,0,0.4,0.1,0.5,0.3C27.4,35.8,27.3,36,27,36L27,36C27,36,27,36,27,36z M22.3,35.9c0,0-0.1,0-0.1,0
			l0,0c-0.2-0.1-0.3-0.3-0.3-0.5c0.1-0.2,0.3-0.3,0.5-0.3l0,0c0.2,0.1,0.3,0.3,0.3,0.5C22.7,35.7,22.5,35.9,22.3,35.9z M28.5,35.6
			c-0.2,0-0.3-0.1-0.4-0.3c-0.1-0.2,0-0.4,0.2-0.5l0,0c0.2-0.1,0.4,0,0.5,0.2c0.1,0.2,0,0.4-0.2,0.5l0,0
			C28.6,35.6,28.5,35.6,28.5,35.6z M20.9,35.3c-0.1,0-0.1,0-0.2,0l0,0c-0.2-0.1-0.3-0.3-0.2-0.5c0.1-0.2,0.3-0.3,0.5-0.2
			c0.2,0.1,0.3,0.3,0.2,0.5C21.2,35.3,21,35.3,20.9,35.3z M29.9,35c-0.1,0-0.3-0.1-0.3-0.2c-0.1-0.2,0-0.4,0.2-0.5
			c0.2-0.1,0.4,0,0.5,0.2c0.1,0.2,0,0.4-0.2,0.5l0,0C30,35,30,35,29.9,35z M33.4,31.5L33.4,31.5L33.4,31.5L33.4,31.5z M15.6,29.8
			c-0.2,0-0.3-0.1-0.4-0.2l0,0c-0.1-0.2,0-0.4,0.2-0.5c0.2-0.1,0.4,0,0.5,0.2l0,0c0.1,0.2,0,0.4-0.2,0.5
			C15.7,29.8,15.6,29.8,15.6,29.8z M34.8,29.1c0,0-0.1,0-0.1,0c-0.2-0.1-0.3-0.3-0.2-0.5c0.1-0.2,0.3-0.3,0.5-0.3
			c0.2,0.1,0.3,0.3,0.3,0.5l0,0C35.1,29,34.9,29.1,34.8,29.1z M15.1,28.4c-0.2,0-0.3-0.1-0.4-0.3l0,0c0-0.2,0.1-0.4,0.3-0.5
			s0.4,0.1,0.5,0.3l0,0C15.5,28.1,15.4,28.3,15.1,28.4C15.2,28.4,15.1,28.4,15.1,28.4z M35.1,27.6C35.1,27.6,35.1,27.6,35.1,27.6
			c-0.3,0-0.4-0.2-0.4-0.4c0-0.2,0.2-0.4,0.4-0.3c0.2,0,0.4,0.2,0.3,0.4l0,0C35.5,27.5,35.3,27.6,35.1,27.6z M14.9,26.8
			c-0.2,0-0.4-0.2-0.4-0.4l0,0c0-0.2,0.2-0.4,0.4-0.4c0.2,0,0.4,0.1,0.4,0.4C15.3,26.6,15.1,26.8,14.9,26.8
			C14.9,26.8,14.9,26.8,14.9,26.8z M35.2,26c-0.2,0-0.4-0.2-0.4-0.4v0c0,0,0,0,0,0c0,0,0,0,0,0v0c0-0.2,0.2-0.4,0.4-0.4
			c0.2,0,0.4,0.2,0.4,0.4v0c0,0,0,0,0,0c0,0,0,0,0,0v0C35.6,25.9,35.4,26,35.2,26z M14.9,25.3C14.9,25.3,14.8,25.3,14.9,25.3
			c-0.2,0-0.4-0.2-0.4-0.4c0-0.2,0.2-0.4,0.4-0.4c0.2,0,0.4,0.2,0.4,0.4l0,0C15.2,25.1,15.1,25.3,14.9,25.3z M35.1,24.5
			c-0.2,0-0.3-0.1-0.4-0.3l0,0c0-0.2,0.1-0.4,0.3-0.4c0.2,0,0.4,0.1,0.4,0.3C35.5,24.2,35.4,24.4,35.1,24.5
			C35.2,24.4,35.1,24.5,35.1,24.5z M35.2,24L35.2,24L35.2,24z M15.1,23.7C15.1,23.7,15,23.7,15.1,23.7c-0.3-0.1-0.4-0.3-0.4-0.5
			c0-0.2,0.2-0.3,0.5-0.3c0.2,0,0.3,0.2,0.3,0.5l0,0C15.4,23.6,15.3,23.7,15.1,23.7z M34.8,22.9c-0.2,0-0.3-0.1-0.4-0.3l0,0
			c-0.1-0.2,0.1-0.4,0.3-0.5c0.2-0.1,0.4,0.1,0.5,0.3l0,0c0.1,0.2,0,0.4-0.2,0.5C34.8,22.9,34.8,22.9,34.8,22.9z M15.6,22.2
			c0,0-0.1,0-0.1,0c-0.2-0.1-0.3-0.3-0.2-0.5l0,0c0.1-0.2,0.3-0.3,0.5-0.2c0.2,0.1,0.3,0.3,0.2,0.5l0,0
			C15.9,22.1,15.7,22.2,15.6,22.2z M34.2,21.5c-0.1,0-0.3-0.1-0.3-0.2l0,0c-0.1-0.2,0-0.4,0.2-0.5c0.2-0.1,0.4,0,0.5,0.2l0,0
			c0.1,0.2,0,0.4-0.2,0.5C34.3,21.5,34.2,21.5,34.2,21.5z M16.3,20.8c-0.1,0-0.1,0-0.2-0.1c-0.2-0.1-0.2-0.3-0.1-0.5
			c0.1-0.2,0.3-0.2,0.5-0.1c0.2,0.1,0.3,0.3,0.1,0.5c0,0,0,0,0,0C16.5,20.8,16.4,20.8,16.3,20.8z M33.4,20.1c-0.1,0-0.2-0.1-0.3-0.2
			c-0.1-0.2-0.1-0.4,0.1-0.5c0.2-0.1,0.4-0.1,0.5,0.1l0,0c0.1,0.2,0.1,0.4-0.1,0.5C33.5,20.1,33.4,20.1,33.4,20.1z M17.2,19.5
			c-0.1,0-0.2,0-0.2-0.1c-0.2-0.1-0.2-0.4-0.1-0.5l0,0c0.1-0.2,0.4-0.2,0.5-0.1c0.2,0.1,0.2,0.4,0.1,0.5l0,0
			C17.4,19.5,17.3,19.5,17.2,19.5z M32.4,18.9c-0.1,0-0.2,0-0.3-0.1c-0.1-0.2-0.1-0.4,0-0.5c0.2-0.1,0.4-0.1,0.5,0l0,0
			c0.1,0.2,0.1,0.4,0,0.5C32.6,18.9,32.5,18.9,32.4,18.9z M18.2,18.4c-0.1,0-0.2,0-0.3-0.1c-0.1-0.2-0.1-0.4,0-0.5l0,0
			c0.2-0.1,0.4-0.1,0.5,0c0.1,0.2,0.1,0.4,0,0.5l0,0C18.4,18.4,18.3,18.4,18.2,18.4z M31.2,17.9c-0.1,0-0.2,0-0.2-0.1l0,0
			c-0.2-0.1-0.2-0.4-0.1-0.5c0.1-0.2,0.4-0.2,0.5-0.1c0.2,0.1,0.2,0.4,0.1,0.5C31.4,17.9,31.3,17.9,31.2,17.9z M31.2,17.5L31.2,17.5
			L31.2,17.5z M19.5,17.5c-0.1,0-0.3-0.1-0.3-0.2c-0.1-0.2-0.1-0.4,0.1-0.5c0.2-0.1,0.4-0.1,0.5,0.1c0.1,0.2,0.1,0.4-0.1,0.5l0,0
			C19.6,17.5,19.6,17.5,19.5,17.5z M29.9,17.1c-0.1,0-0.1,0-0.2,0l0,0c-0.2-0.1-0.3-0.3-0.2-0.5c0.1-0.2,0.3-0.3,0.5-0.2l0,0
			c0.2,0.1,0.3,0.3,0.2,0.5C30.2,17,30,17.1,29.9,17.1z M20.9,16.7c-0.1,0-0.3-0.1-0.4-0.2c-0.1-0.2,0-0.4,0.2-0.5l0,0
			c0.2-0.1,0.4,0,0.5,0.2c0.1,0.2,0,0.4-0.2,0.5C21,16.7,20.9,16.7,20.9,16.7z"/>
		<path class="st2" d="M28,33.1l-5.8-5.8c-0.4-0.4-0.4-1,0-1.3c0.1-0.1,0.3-0.2,0.5-0.3c0.3,0,0.6,0,0.8,0.3L22,24.5
			c-0.2-0.2-0.3-0.4-0.3-0.7c0,0,0-0.1,0-0.1c0-0.2,0.1-0.4,0.3-0.5c0.1-0.1,0.3-0.2,0.5-0.3c0.3,0,0.5,0,0.7,0.2l-0.6-0.6
			c-0.2-0.2-0.3-0.4-0.3-0.7c0-0.1,0-0.1,0-0.2c0-0.2,0.1-0.4,0.3-0.5c0.1-0.1,0.3-0.2,0.5-0.3c0.3,0,0.6,0,0.8,0.3l0.7,0.7
			c-0.2-0.2-0.3-0.5-0.3-0.8c0-0.2,0.1-0.4,0.3-0.5c0.4-0.4,1-0.4,1.3,0l3.8,3.8l0,0c0.2-0.2,0.4-0.3,0.7-0.4
			c0.6-0.2,1.3-0.1,1.8,0.4l1.8,1.8c0.3,0.3,0.5,0.8,0.5,1.3l0,1.1c0,0.5,0.2,1,0.6,1.4l0.4,0.4l-4.5,4.5l-0.5-0.5
			c-0.3-0.3-0.8-0.5-1.2-0.6C28.7,33.6,28.3,33.5,28,33.1z"/>
		<path class="st1" d="M30.6,35l5.1-5.1c0.2-0.2,0.4-0.2,0.6,0l1.8,1.8c0.2,0.2,0.2,0.4,0,0.6l-5.1,5.1c-0.2,0.2-0.4,0.2-0.6,0
			l-1.8-1.8C30.5,35.5,30.5,35.2,30.6,35z"/>
		<path class="st3" d="M35.9,32.2c0.2,0.2,0.4,0.2,0.5,0c0.2-0.2,0.2-0.4,0-0.5c-0.2-0.2-0.4-0.2-0.5,0
			C35.7,31.8,35.7,32.1,35.9,32.2z"/>
		<path class="st4" d="M31.1,25.6l-1.3-1.3l0,0c0.2-0.2,0.4-0.3,0.7-0.4l1.2,1.2c0.2,0.2,0.2,0.4,0,0.5
			C31.5,25.8,31.2,25.8,31.1,25.6z"/>
		<path class="st2" d="M23,33.1l5.8-5.8c0.4-0.4,0.4-1,0-1.3c-0.1-0.1-0.3-0.2-0.5-0.3c-0.3,0-0.6,0-0.8,0.3l1.5-1.5
			c0.2-0.2,0.3-0.4,0.3-0.7c0,0,0-0.1,0-0.1c0-0.2-0.1-0.4-0.3-0.5c-0.1-0.1-0.3-0.2-0.5-0.3c-0.3,0-0.5,0-0.7,0.2l0.6-0.6
			c0.2-0.2,0.3-0.4,0.3-0.7c0-0.1,0-0.1,0-0.2c0-0.2-0.1-0.4-0.3-0.5C28.2,21.1,28,21,27.8,21c-0.3,0-0.6,0-0.8,0.3l-0.7,0.7
			c0.2-0.2,0.3-0.5,0.3-0.8c0-0.2-0.1-0.4-0.3-0.5c-0.4-0.4-1-0.4-1.3,0l-3.8,3.8l0,0c-0.2-0.2-0.4-0.3-0.7-0.4
			c-0.6-0.2-1.3-0.1-1.8,0.4l-1.8,1.8c-0.3,0.3-0.5,0.8-0.5,1.3l0,1.1c0,0.5-0.2,1-0.6,1.4l-0.4,0.4l4.5,4.5l0.5-0.5
			c0.3-0.3,0.8-0.5,1.2-0.6C22.3,33.6,22.7,33.5,23,33.1z"/>
		<path class="st1" d="M20.4,35l-5.1-5.1c-0.2-0.2-0.4-0.2-0.6,0l-1.8,1.8c-0.2,0.2-0.2,0.4,0,0.6l5.1,5.1c0.2,0.2,0.4,0.2,0.6,0
			l1.8-1.8C20.5,35.5,20.5,35.2,20.4,35z"/>
		<path class="st3" d="M18.6,35.7c0.2-0.2,0.2-0.4,0-0.5c-0.2-0.2-0.4-0.2-0.5,0c-0.2,0.2-0.2,0.4,0,0.5
			C18.2,35.9,18.5,35.9,18.6,35.7z"/>
		<path class="st4" d="M19.9,25.6l1.3-1.3l0,0c-0.2-0.2-0.4-0.3-0.7-0.4l-1.2,1.2c-0.2,0.2-0.2,0.4,0,0.5
			C19.5,25.8,19.8,25.8,19.9,25.6z"/>
		<path class="st5" d="M29.2,19.2v8.2c0,0.5-0.4,0.9-0.9,0.9c-0.2,0-0.4-0.1-0.5-0.2c-0.2-0.2-0.4-0.4-0.4-0.8v2.1
			c0,0.3-0.1,0.5-0.3,0.7c0,0-0.1,0.1-0.1,0.1c-0.2,0.1-0.3,0.2-0.5,0.2c-0.2,0-0.4-0.1-0.5-0.2c-0.2-0.1-0.4-0.4-0.4-0.6v0.8
			c0,0.3-0.1,0.5-0.3,0.7c0,0-0.1,0.1-0.1,0.1c-0.2,0.1-0.3,0.2-0.5,0.2c-0.2,0-0.4-0.1-0.5-0.2c-0.2-0.2-0.4-0.4-0.4-0.8v-0.9
			c0,0.3-0.2,0.6-0.4,0.8c-0.2,0.1-0.3,0.2-0.5,0.2c-0.5,0-0.9-0.4-0.9-0.9v-5.3l0,0c-0.3,0-0.5-0.1-0.8-0.2
			c-0.6-0.3-0.9-0.9-0.9-1.5V20c0-0.5,0.2-0.9,0.5-1.3l0.8-0.8c0.4-0.4,0.6-0.9,0.6-1.4V16h6.4v0.7c0,0.5,0.2,0.9,0.5,1.3
			C29.1,18.3,29.2,18.8,29.2,19.2z"/>
		<path class="st4" d="M28.8,26c-0.1-0.1-0.3-0.2-0.5-0.3c-0.3,0-0.6,0-0.8,0.3l1.5-1.5c0.2-0.2,0.3-0.4,0.3-0.7c0,0,0-0.1,0-0.1
			c0-0.2-0.1-0.4-0.3-0.5c-0.1-0.1-0.3-0.2-0.5-0.3c-0.3,0-0.5,0-0.7,0.2l0.6-0.6c0.2-0.2,0.3-0.4,0.3-0.7c0-0.1,0-0.1,0-0.2
			c0-0.2-0.1-0.4-0.3-0.5C28.2,21.1,28,21,27.8,21c-0.3,0-0.6,0-0.8,0.3l-0.7,0.7c0.2-0.2,0.3-0.5,0.3-0.8c0-0.2-0.1-0.4-0.3-0.5
			c-0.4-0.4-1-0.4-1.3,0l-3.8,3.8l0,0c-0.2-0.2-0.4-0.3-0.7-0.4c-0.3-0.1-0.6-0.1-0.9-0.1c0.2,0.4,0.6,0.7,1,0.9
			c0.1,0.1,0.2,0.1,0.3,0.1v4.7c0,0.9,0.8,1.7,1.7,1.7c0.1,0,0.2,0,0.3,0c0.1,0.2,0.3,0.5,0.5,0.6c0.1,0.1,0.3,0.2,0.5,0.2l4.8-4.8
			C29.2,27,29.2,26.4,28.8,26z"/>
		<path class="st4" d="M30,27.4v-3.3c-0.1,0.1-0.2,0.1-0.2,0.2l0,0L26,20.6c-0.4-0.4-1-0.4-1.3,0c-0.1,0.1-0.2,0.3-0.3,0.5
			c0,0.3,0,0.6,0.3,0.8L24,21.2c-0.2-0.2-0.5-0.3-0.8-0.3c-0.2,0-0.4,0.1-0.5,0.3c-0.1,0.1-0.2,0.3-0.3,0.5c0,0,0,0.1,0,0.2
			c0,0.2,0.1,0.5,0.3,0.7l0.6,0.6c-0.2-0.2-0.5-0.2-0.7-0.2c-0.2,0-0.4,0.1-0.5,0.3c-0.1,0.1-0.2,0.3-0.3,0.5c0,0,0,0.1,0,0.1
			c0,0.2,0.1,0.5,0.3,0.7l1.5,1.5c-0.2-0.2-0.5-0.3-0.8-0.3c-0.2,0-0.4,0.1-0.5,0.3c-0.4,0.4-0.4,1,0,1.3l3.9,3.9c0.1,0,0.2,0,0.3,0
			c0.4,0,0.7-0.1,1-0.3c0.1-0.1,0.1-0.1,0.2-0.2c0.3-0.3,0.5-0.7,0.5-1.2v-0.4c0.1,0,0.1,0,0.2,0C29.2,29.1,30,28.4,30,27.4z"/>
		<path class="st5" d="M29.2,19.2v8.2c0,0.5-0.4,0.9-0.9,0.9c0,0,0,0,0,0c-0.2,0-0.4-0.1-0.5-0.2c0,0,0,0,0,0
			c-0.2-0.2-0.4-0.4-0.4-0.8v2.1c0,0.3-0.1,0.5-0.3,0.7c0,0-0.1,0.1-0.1,0.1c-0.2,0.1-0.3,0.2-0.5,0.2c-0.2,0-0.4-0.1-0.5-0.2
			c-0.2-0.1-0.4-0.4-0.4-0.6v0.8c0,0.3-0.1,0.5-0.3,0.7c0,0-0.1,0.1-0.1,0.1c-0.2,0.1-0.3,0.2-0.5,0.2c-0.2,0-0.4-0.1-0.5-0.2
			c-0.2-0.2-0.4-0.4-0.4-0.8v-0.9c0,0.3-0.2,0.6-0.4,0.8c-0.2,0.1-0.3,0.2-0.5,0.2c-0.5,0-0.9-0.4-0.9-0.9v-5.3l0,0
			c-0.3,0-0.5-0.1-0.8-0.2c-0.6-0.3-0.9-0.9-0.9-1.5V20c0-0.5,0.2-0.9,0.5-1.3l0.8-0.8c0.2-0.2,0.4-0.5,0.5-0.8
			c0.1-0.2,0.1-0.4,0.1-0.6V16h6.4v0.7c0,0.2,0,0.3,0.1,0.5c0.1,0.3,0.2,0.6,0.4,0.8C29.1,18.3,29.2,18.8,29.2,19.2z"/>
		<path class="st2" d="M29.2,19.2v8.2c0,0.5-0.4,0.9-0.9,0.9c0,0,0,0,0,0c-0.2,0-0.4-0.1-0.5-0.2l0-7.9c0,0,0-0.1,0-0.2
			c-0.4-1.7-1.8-2.9-3.6-2.9h-2.3c0.1-0.2,0.1-0.4,0.1-0.6V16h6.4v0.7c0,0.2,0,0.3,0.1,0.5c0.1,0.3,0.2,0.6,0.4,0.8
			C29.1,18.3,29.2,18.8,29.2,19.2z"/>
		<path class="st1" d="M28.7,16h-7.2c-0.2,0-0.4-0.2-0.4-0.4V13c0-0.2,0.2-0.4,0.4-0.4h7.2c0.2,0,0.4,0.2,0.4,0.4v2.6
			C29.1,15.8,28.9,16,28.7,16z"/>
		<path class="st3" d="M23.1,14.3c0-0.2-0.2-0.4-0.4-0.4c-0.2,0-0.4,0.2-0.4,0.4c0,0.2,0.2,0.4,0.4,0.4
			C22.9,14.7,23.1,14.5,23.1,14.3z"/>
		<g>
			<path class="st2" d="M27.7,23.1v5.1c-0.2-0.2-0.4-0.4-0.4-0.8v2.1c0,0.3-0.1,0.5-0.3,0.7c0,0-0.1,0.1-0.1,0.1v-7.2
				c0-0.2,0.2-0.4,0.4-0.4C27.6,22.7,27.7,22.9,27.7,23.1z"/>
			<path class="st2" d="M25.9,23.1v7.2c-0.2-0.1-0.4-0.4-0.4-0.6v0.8c0,0.3-0.1,0.5-0.3,0.7c0,0-0.1,0.1-0.1,0.1v-8.1
				c0-0.2,0.2-0.4,0.4-0.4S25.9,22.9,25.9,23.1z"/>
			<path class="st2" d="M24,26.3v4.9c-0.2-0.1-0.4-0.3-0.4-0.5v-0.6c0,0.2-0.2,0.4-0.4,0.5v-4.3c0-0.1,0.2-0.2,0.4-0.2
				C23.9,26.1,24,26.2,24,26.3z"/>
			<path class="st2" d="M21.8,22.4v1.8l0,0c-0.3,0-0.5-0.1-0.8-0.2v-1.7c0-0.2,0.2-0.4,0.4-0.4C21.6,22,21.8,22.1,21.8,22.4z"/>
		</g>
	</g>
</g>
</svg>
