<?xml version="1.0" encoding="utf-8"?>
<!-- Generator: Adobe Illustrator 24.2.1, SVG Export Plug-In . SVG Version: 6.00 Build 0)  -->
<svg version="1.1" id="Layer_1" xmlns="http://www.w3.org/2000/svg" xmlns:xlink="http://www.w3.org/1999/xlink" x="0px" y="0px"
	 viewBox="0 0 51 51" style="enable-background:new 0 0 51 51;" xml:space="preserve">
<style type="text/css">
	.st0{fill:#FFFFFF;stroke:#333333;stroke-miterlimit:10;}
	.st1{fill:#6B4604;}
	.st2{fill:#563D10;}
	.st3{fill:#9E712A;}
	.st4{fill:#FFFFFF;}
	.st5{fill:#CCCCCC;}
	.st6{fill:#4D4D4D;}
</style>
<g>
	<circle class="st0" cx="25.5" cy="25.5" r="25"/>
	<path class="st1" d="M36.2,29.6c-3,6.3-7.7,7.7-11,7.7c-3.8,0-7.4-1.9-9.6-5c-2.2-3.1-2.7-7.1-1.5-10.9l0.2-0.5
		c1.8-4.3,6.1-7.2,10.8-7.2c3.8,0,7.4,1.9,9.6,5C37,21.8,37.5,25.8,36.2,29.6z"/>
	<path class="st2" d="M36.2,29.6c-3,6.3-7.7,7.7-11,7.7V13.7c3.8,0,7.4,1.9,9.6,5C37,21.8,37.5,25.8,36.2,29.6z"/>
	<path class="st3" d="M35.3,18.3C33,15,29.2,13,25.2,13c-5,0-9.6,3.2-11.5,7.8l-0.2,0.5c-1.3,4.1-0.8,8,1.6,11.4
		C17.4,36,21.2,38,25.2,38c5,0,9.5-3.1,11.5-7.6l0.2-0.4C38.3,25.8,37.8,21.8,35.3,18.3z M16.2,31.9c-2.1-2.9-2.6-6.6-1.4-10.2
		l0.2-0.4c1.2-2.8,3.5-5,6.4-6.1c-1.8,2.3-2.8,6.8-2.7,8.3c0,0,0,0.1,0,0.1c-0.4,4.9,0.7,9.6,2.8,12.3
		C19.4,35.1,17.5,33.7,16.2,31.9z M24.4,36.4c-0.5-0.2-1-0.6-1.5-1.1c-2.1-2.2-3.2-6.9-2.8-11.6v-0.1c0,0,0-0.1,0-0.1
		c0.4-4.6,2.2-8.1,4.3-8.8V36.4z M25.9,36.4V14.6c2.3,0.7,4.1,4.9,4.4,9.8c0.2,4.6-0.9,8.9-2.9,10.9C26.9,35.9,26.4,36.2,25.9,36.4z
		 M35.5,29.3c-1.6,3.5-4,5.6-6.6,6.5c2-2.5,3.1-6.9,2.9-11.5c-0.2-3.9-1.3-7.3-2.9-9.3c2.1,0.8,4,2.2,5.3,4
		C36.2,22.1,36.7,25.8,35.5,29.3z"/>
	<path class="st3" d="M35.3,18.3C33,15,29.2,13,25.2,13v25c5,0,9.5-3.1,11.5-7.6l0.2-0.4C38.3,25.8,37.8,21.8,35.3,18.3z M25.9,36.4
		V14.6c2.3,0.7,4.1,4.9,4.4,9.8c0.2,4.6-0.9,8.9-2.9,10.9C26.9,35.9,26.4,36.2,25.9,36.4z M35.5,29.3c-1.6,3.5-4,5.6-6.6,6.5
		c2-2.5,3.1-6.9,2.9-11.5c-0.2-3.9-1.3-7.3-2.9-9.3c2.1,0.8,4,2.2,5.3,4C36.2,22.1,36.7,25.8,35.5,29.3z"/>
	<path class="st4" d="M35.4,20.4H14.9c-1.2,0-2.2,1-2.2,2.2v5.9c0,1.2,1,2.2,2.2,2.2h20.5c1.2,0,2.2-1,2.2-2.2v-5.9
		C37.7,21.4,36.7,20.4,35.4,20.4z"/>
	<path class="st5" d="M37.7,22.6v5.9c0,1.2-1,2.2-2.2,2.2H25.2V20.4h10.3C36.7,20.4,37.7,21.4,37.7,22.6z"/>
	<path class="st6" d="M28.8,24.4l-1.5,2.9c-0.1,0.2-0.4,0.4-0.7,0.4c-0.3,0-0.5-0.2-0.7-0.4l-0.8-1.6l-0.8,1.6
		c-0.2,0.5-1.1,0.5-1.3,0l-1.5-2.9c-0.2-0.4,0-0.8,0.3-1c0.4-0.2,0.8,0,1,0.3l0.8,1.6l0.8-1.6c0.1-0.2,0.4-0.4,0.7-0.4
		s0.5,0.1,0.7,0.4l0.8,1.6l0.8-1.6c0.2-0.4,0.6-0.5,1-0.3C28.8,23.6,28.9,24,28.8,24.4z"/>
	<path class="st6" d="M34,27.7c-0.3,0-0.5-0.2-0.7-0.4l-0.8-1.6l-0.8,1.6c-0.2,0.5-1.1,0.5-1.3,0L29,24.5c-0.1-0.1-0.1-0.2-0.2-0.4
		c0-0.4,0.3-0.8,0.7-0.8c0.3,0,0.6,0.1,0.7,0.4l0.8,1.6l0.8-1.6c0.2-0.5,1.1-0.5,1.3,0l0.8,1.6l0.8-1.6c0.2-0.4,0.6-0.5,1-0.3
		c0.4,0.2,0.5,0.6,0.3,1l-1.5,2.9C34.5,27.5,34.2,27.7,34,27.7z"/>
	<path class="st6" d="M20.8,23.3c-0.3,0-0.6,0.1-0.7,0.4l-0.8,1.6l-0.8-1.6c-0.3-0.5-1-0.5-1.3,0l-0.8,1.6l-0.8-1.6
		c-0.2-0.4-0.6-0.5-1-0.3c-0.4,0.2-0.5,0.6-0.3,1l1.5,2.9c0.1,0.2,0.4,0.4,0.7,0.4c0.3,0,0.5-0.2,0.7-0.4l0.8-1.6l0.8,1.6
		c0.1,0.2,0.4,0.4,0.7,0.4c0.3,0,0.5-0.2,0.7-0.4l1.4-2.8c0.1-0.1,0.2-0.3,0.2-0.4C21.6,23.7,21.2,23.3,20.8,23.3z"/>
	<path class="st6" d="M28.8,24.4l-1.5,2.9c-0.1,0.2-0.4,0.4-0.7,0.4c-0.3,0-0.5-0.2-0.7-0.4l-0.8-1.6v-2.3c0.3,0,0.5,0.1,0.7,0.4
		l0.8,1.6l0.8-1.6c0.2-0.4,0.6-0.5,1-0.3C28.8,23.6,28.9,24,28.8,24.4z"/>
</g>
</svg>
