<?xml version="1.0" encoding="utf-8"?>
<!-- Generator: Adobe Illustrator 22.0.1, SVG Export Plug-In . SVG Version: 6.00 Build 0)  -->
<svg version="1.1" id="Layer_1" xmlns="http://www.w3.org/2000/svg" xmlns:xlink="http://www.w3.org/1999/xlink" x="0px" y="0px"
	 viewBox="0 0 480 270" style="enable-background:new 0 0 480 270;" xml:space="preserve">
<style type="text/css">
	.st0{fill:url(#SVGID_1_);}
	.st1{fill:#E0E0E0;}
	.st2{fill:#A8A8A8;}
	.st3{fill:#B8B8B8;}
	.st4{opacity:0.43;}
	.st5{fill:url(#SVGID_2_);}
	.st6{opacity:0.22;}
	.st7{fill:url(#SVGID_3_);}
	.st8{fill:#529FC1;}
	.st9{fill:url(#SVGID_4_);}
	.st10{fill:#FF8557;}
	.st11{fill:#0064B5;}
	.st12{fill:#004E8C;}
	.st13{fill:#6A75BA;}
	.st14{fill:#545D94;}
	.st15{fill:#EEA886;}
	.st16{fill:#D9D3C8;}
	.st17{fill:#222538;}
	.st18{fill:#FFC955;}
	.st19{fill:#A77860;}
	.st20{fill:#C29941;}
	.st21{fill:#FFFFFF;}
	.st22{fill:#C5C6CF;}
	.st23{fill:#E2E3ED;}
	.st24{fill:#EEA987;}
	.st25{fill:#E6D3CD;}
	.st26{fill:#3C4145;}
	.st27{fill:#163342;}
	.st28{fill:#EFAA88;}
	.st29{fill:url(#SVGID_5_);}
	.st30{opacity:0.76;}
	.st31{fill:url(#SVGID_6_);}
	.st32{fill:url(#SVGID_7_);}
	.st33{fill:url(#SVGID_8_);}
	.st34{fill:url(#SVGID_9_);}
	.st35{fill:#007BDE;}
	.st36{fill:url(#SVGID_10_);}
	.st37{fill:url(#SVGID_11_);}
	.st38{fill:url(#SVGID_12_);}
	.st39{fill:url(#SVGID_13_);}
	.st40{fill:#DB9C7C;}
	.st41{fill:#F7931E;}
	.st42{fill:#EAD8CF;}
	.st43{fill:#DA9B5B;}
	.st44{fill:#424773;}
	.st45{fill:#292C47;}
	.st46{fill:#353A3D;}
	.st47{fill:#E2D2CA;}
	.st48{fill:#323657;}
	.st49{fill:#81807E;}
	.st50{fill:#2D3133;}
	.st51{fill:#DECBC4;}
	.st52{fill:#495055;}
	.st53{fill:#51565C;}
	.st54{fill:#F5E2D9;}
	.st55{fill:#AD9F99;}
	.st56{fill:#69737A;}
	.st57{fill:#6B6B6B;}
	.st58{fill:#898FBF;}
	.st59{fill:#152B3D;}
	.st60{fill:#FFC05C;}
	.st61{fill:#254380;}
	.st62{fill:#E55353;}
	.st63{fill:#ACDEF9;}
	.st64{fill:#4AAFFF;}
	.st65{fill:#1A598C;}
	.st66{fill:#2273B5;}
	.st67{fill:#3788CC;}
</style>
<linearGradient id="SVGID_1_" gradientUnits="userSpaceOnUse" x1="325.446" y1="79.2748" x2="407.0321" y2="-36.2293" gradientTransform="matrix(1 0 0 -1 0 270)">
	<stop  offset="0" style="stop-color:#4D4D4D"/>
	<stop  offset="1" style="stop-color:#CCCCCC"/>
</linearGradient>
<polygon class="st0" points="402.4,270 361,270 332.3,230.1 345.7,220.3 359.5,210.4 366.4,220 "/>
<g>
	<g>
		<rect x="218.3" y="132.1" class="st1" width="0.8" height="82.6"/>
	</g>
	<g>
		<rect x="274.2" y="132.1" class="st1" width="0.8" height="82.6"/>
	</g>
	<g>
		<rect x="330.2" y="132.1" class="st1" width="0.8" height="82.6"/>
	</g>
	<rect x="162.7" y="122" class="st2" width="13.4" height="2.2"/>
	<rect x="162.7" y="125.9" class="st2" width="19" height="2.2"/>
	<rect x="218.1" y="122" class="st2" width="15.7" height="2.2"/>
	<rect x="218.1" y="125.9" class="st2" width="10.1" height="2.2"/>
	<rect x="275" y="122" class="st2" width="9.7" height="2.2"/>
	<rect x="275" y="125.9" class="st2" width="11.4" height="2.2"/>
	<rect x="331" y="122" class="st2" width="14.2" height="2.2"/>
	<rect x="331" y="125.9" class="st2" width="11.4" height="2.2"/>
	<rect x="218.7" y="219.6" class="st3" width="8.9" height="2.9"/>
	<rect x="275" y="219.6" class="st3" width="8.9" height="2.9"/>
	<rect x="331" y="219.6" class="st3" width="8.9" height="2.9"/>
	<g class="st4">
		
			<linearGradient id="SVGID_2_" gradientUnits="userSpaceOnUse" x1="162.7" y1="98.1487" x2="386.6" y2="98.1487" gradientTransform="matrix(1 0 0 -1 0 270)">
			<stop  offset="0" style="stop-color:#FFC05C"/>
			<stop  offset="1" style="stop-color:#FF3857"/>
		</linearGradient>
		<path class="st5" d="M367.1,190.2c-17.4,0-32.6-7.5-48.4-15.4c-19.5-9.7-39.7-19.7-66.6-17c-17.2,1.8-28,8.7-37.5,14.9
			c-8.6,5.6-16.8,10.5-27.8,10.9c-17.8,0.7-24-6.9-24.1-7.4v-4.9l0,0l0,0c0,0.1,3.9,8.6,24.1,8.5c9.9-0.1,17.3-4.8,25.8-10.3
			c9.9-6.4,21.1-13.7,39.1-15.5c28-2.9,48.7,7.4,68.7,17.4c20.9,10.4,40.9,20.2,66.2,11.7v4C379.3,189.5,373.6,190.2,367.1,190.2z"
			/>
	</g>
	<g class="st6">
		
			<linearGradient id="SVGID_3_" gradientUnits="userSpaceOnUse" x1="162.8" y1="104.2235" x2="386.7" y2="104.2235" gradientTransform="matrix(1 0 0 -1 0 270)">
			<stop  offset="0" style="stop-color:#40D5E6"/>
			<stop  offset="1" style="stop-color:#5577FF"/>
		</linearGradient>
		<path class="st7" d="M262.4,189.2c-12.9,0-23.1-8.7-33.1-17.1c-7.6-6.4-15.5-13-24.5-16.2c-27.7-9.9-41.9,8.2-42,8.3v-5.5
			c0.1-0.2,2.7-3.5,10-6.6c6.7-2.9,17.8-5.1,33.3,0.2c9.8,3.4,17.9,10.3,25.7,16.9c15.9,13.5,29.7,25.1,53.5,6.9
			c18.1-13.8,35.1-27,51.9-31.8c16.4-4.7,33.5-1.3,49.5,14.7l-0.1,5c-34-34.1-62.9-12.5-99,15.1C278,186.4,269.7,189.2,262.4,189.2z
			"/>
	</g>
</g>
<g>
	<polygon class="st8" points="289.8,112.4 289.2,111.7 298.6,103.7 304.3,103.7 317.3,92.7 325.4,99.6 331.4,99.6 334.5,102.2 
		343.9,94.1 348.6,94.1 368.4,77.3 369,77.9 349,95 344.2,95 334.5,103.3 331.1,100.5 325.1,100.5 317.3,93.8 304.7,104.6 
		298.9,104.6 	"/>
</g>
<g>
	<polygon class="st8" points="291.1,101.3 287.9,101.3 287.9,100.4 290.8,100.4 295.6,95.6 299.2,99.1 307.7,90.6 310.3,93.2 
		318.9,84.6 324.1,89.8 330,89.8 339.1,80.7 346.9,80.7 352.7,74.9 359.8,74.9 366.8,67.9 367.4,68.5 360.1,75.8 353,75.8 
		347.2,81.6 339.4,81.6 330.3,90.7 323.7,90.7 318.9,85.9 310.3,94.5 307.7,91.9 299.2,100.4 295.6,96.8 	"/>
</g>
<linearGradient id="SVGID_4_" gradientUnits="userSpaceOnUse" x1="302.7822" y1="210.6184" x2="257.7988" y2="82.4578" gradientTransform="matrix(1 0 0 -1 0 270)">
	<stop  offset="0" style="stop-color:#C6CBCF"/>
	<stop  offset="1" style="stop-color:#32AFFF"/>
</linearGradient>
<path class="st9" d="M378.1,103.3L378.1,103.3c-8.4-29.3-29.3-54.2-58.2-67.1l0,0c-4.9-2.2-10.1-4.1-15.5-5.5
	c-13.5-3.6-27.1-4.5-40.1-2.8l0,0l0,0c-8.8,1.1-17.3,3.3-25.5,6.5l0,0c-29.9,11.7-54,37-62.9,70.4c-15.1,56,18.1,113.6,74.1,128.7
	c28.8,7.7,57.9,2.8,81.5-11.5l4.4,6.1l20.8-15l-5-7c12.5-12.6,22-28.5,27-46.8C383.6,140.3,383.2,121,378.1,103.3z M301.2,199.2
	c-37.1,13.3-78-6-91.3-43.1c-13.1-36.4,5.3-76.5,41.1-90.5c0.7-0.3,1.4-0.5,2.1-0.8c5.1-1.8,10.2-3,15.3-3.7
	c13.1-1.6,26.2,0.5,37.9,5.7c17.1,7.7,31.3,22,38.1,41.1c0.5,1.5,1,3,1.5,4.5C356.1,148.3,336.8,186.5,301.2,199.2z"/>
<g>
	<path class="st10" d="M398.8,97.4l-20.7,5.9l-32.3,9.2c-0.4-1.5-0.9-3-1.5-4.5c-6.8-19.1-21-33.4-38.1-41.1l13.7-30.6l0,0l1.4-3.2
		l7.3-16.4C363.5,32,388.7,62.1,398.8,97.4z"/>
</g>
<g>
	<path class="st11" d="M321.4,33l-1.4,3.2l-13.7,30.6c-11.7-5.2-24.7-7.3-37.9-5.7l-4.1-33.3l-0.4-3.5c13.5-1.7,27.5-0.8,41.5,2.9
		C310.9,28.8,316.2,30.7,321.4,33z"/>
</g>
<g>
	<path class="st12" d="M268.4,61.2c-5.1,0.6-10.3,1.8-15.3,3.7c-0.7,0.2-1.4,0.5-2.1,0.8l-12.3-31.2l-3.7-9.4
		c8.9-3.5,18.3-5.9,28-7.2l0,0l0.8,6.6l0.4,3.5L268.4,61.2z"/>
</g>
<g>
	<g>
		<g>
			<path class="st13" d="M254.7,10.6c0,0-1.5-2.7-2.3-3.7s-3.7-1.7-3.3-3s4.2-0.7,5.2,0.5s4.2,1.7,4.3,2.2c0.1,0.5-1.1,3.4-1.8,3.8
				C256.2,10.9,254.7,10.6,254.7,10.6z"/>
			<path class="st14" d="M248.4,12.9c0,0-2.4-1.9-3.6-2.5c-1.2-0.6-4-0.1-4.2-1.4c-0.1-1.3,3.5-2.3,5-1.6c1.4,0.7,4.5-0.1,4.8,0.3
				s0.3,3.5-0.1,4.2C249.9,12.6,248.4,12.9,248.4,12.9z"/>
			<path class="st15" d="M253.8,17.9c0,0,1.1-7.3,1-8.5c0-0.4,2.2-0.2,2.1,0.5c-0.2,1.5,0.8,7.3,0.6,8.4
				C257.3,19.3,253.7,18.6,253.8,17.9z"/>
			<path class="st15" d="M250.5,20c0,0-2-7-2.5-8.2c-0.2-0.5,1.8-1.3,2.1-0.4c0.4,1.5,3.6,6.4,3.9,7.5
				C254.3,19.9,250.7,20.6,250.5,20z"/>
			<path class="st16" d="M251.8,24.9c0,0-2.1-7.2-2.5-8l3.4-2.1c0,0,1.6,4.6,1.8,5.7C254.7,21.7,251.8,24.9,251.8,24.9z"/>
			<path class="st17" d="M311.4,5.9c0,0-3.3,0.8-4.8,3.3s-2.9,5.3-5.8,6.6s-2.9,4.6-2.7,5.1c0.2,0.5,9.2,10.5,11.1,10.9
				c1.9,0.4,5.6,0.1,5.2-2.5s-4.2-8.1-2.1-10.9S315,13,315,13L311.4,5.9z"/>
			<path class="st15" d="M310.9,17.9c0,0-0.1,0-0.3,0c-0.2,0-0.5,0-0.8,0.1c-0.1,0-0.2,0.1-0.3,0.1c-0.8,0.5-2.6,1.7-2.8,1.7
				c-0.3,0,0-4.2,0-4.2s1-1.7,1.1-2.9C307.9,11.5,310.9,17.9,310.9,17.9z"/>
			<path class="st16" d="M288,22.3c0,0-3.6-2.5-7.8-1.7c-4.2,0.8-4.6,2.7-6.1,2.8c-1.4,0.1-6.2-0.3-10.2,0.8
				c-3.9,1.1-7.3,1.3-7.7,0.9c-0.5-0.3,2.5-6.9,2.5-7.8l-4.9-1.3c0,0-1.4,5.8-1.9,7.1c-0.6,1.4-1.7,4-0.1,6.3
				c1.6,2.3,6.1,1.3,8.8,1.7c2.7,0.5,14.8,0.2,17,0.1c2.3-0.1,9.2-0.5,9.2-0.5L288,22.3z"/>
			<path class="st15" d="M317.3,9.3c0,0,0.2,3.5-0.6,4.6c-0.3,0.4-0.5,0.7-0.7,0.8c-0.2,0.2-0.4,0.4-0.4,0.6
				c-0.2,0.7-0.4,1.6-0.6,1.8s-0.8-0.3-1-0.3s-2.4,1.9-2.9,1.5s-3.6-3.6-3.4-5.7c0.3-2.2,1.2-5.4,4.8-5.4
				C316,7.2,317.1,8.5,317.3,9.3z"/>
			<path class="st18" d="M306.7,26.2c-0.1,0.1-1.4,2.2-2.8,3.4c-0.6,0.5-1.2,0.8-1.8,0.8c-0.2,0-0.3,0-0.5,0c-1.6,0-2.9,0.3-5.1,0.4
				c-2.3,0.1-7.8-0.2-8-0.2s-1.8,0.3-1.8,0.3c-0.6-0.7,0.9-8.6,1.2-8.6c0.3,0,2.1,0.7,3.9,0.4c1.8-0.3,2.5-0.5,5.1-3.5
				c2.6-3.1,5.3-3.9,6.4-3.6c1.1,0.2,3.3,0,3.3,0S306.8,26,306.7,26.2z"/>
			<path class="st17" d="M315.8,11.9c0,0,0.7,1.7,1,1.9c0,0,1.3-1.3,0.5-4.7c-0.8-3.3-3.9-3.6-5.9-3.3c-2.5,0.4-5,8.8-4.8,9.6
				c0.1,0.8,2.9-4.3,5.3-3.9C314.3,12,314.4,12.1,315.8,11.9z"/>
			<path class="st19" d="M310.6,17.8c-0.2,0-0.5,0-0.8,0.1c-0.1,0-0.2,0.1-0.3,0.1c-0.6-0.9-1.1-3-1.1-3.1
				C308.8,15.8,310.6,17.8,310.6,17.8z"/>
			<path class="st20" d="M303.9,29.6c-0.6,0.5-1.2,0.8-1.8,0.8c-0.2,0-0.3,0-0.5,0l0.8-6.5L303.9,29.6z"/>
			<path class="st15" d="M316.6,40.8l-1.6,1.4c-1.4-0.7-4.8-3.2-5.4-3.7c-0.7-0.6-5.3-4.4-5.9-5.3c-0.6-0.9-1.4-9.9-1.4-10.3
				c0.1-0.4,4-0.6,4.4,0.3c0,0,0.2,5.1,0.3,6c0.1,0.9,0.4,1.6,1,2.4c0.8,1,2.6,3.3,4.2,5.2C312.8,37.3,316.1,40.4,316.6,40.8z"/>
			<path class="st18" d="M307.1,23.4c0,0,0.2-6.9-2-6.8c-2.8,0.1-3.2,3.6-2.9,7.3C302.3,23.9,306.5,24,307.1,23.4z"/>
			<path class="st15" d="M315.9,40.2c0,0,0.2,0.3,0.5,0.4c0.5,0.2,1.3-0.2,1.7,0.5c0.4,0.7-1.5,2.4-2,2.5s-1.3-0.7-1.9-2.2
				S315.9,40.2,315.9,40.2z"/>
			<path class="st15" d="M317.9,40.9c0,0,0.9,0.7,1.9,1.6c0.8,0.8,1.7,1.9,1.5,2.1c-0.3,0.3-0.9-0.6-1.7-1.4
				c-0.8-0.7-0.8-0.4-0.8-0.4s0-0.1,0.7,0.8c0.8,1,1.6,2.2,1.4,2.3s-0.2,0.1-0.5-0.2c0.2,0.2,0.1,0.3,0,0.4
				c-0.4,0.4-1.8-0.9-2.4-1.4c0.4,0.4,0.7,0.7,0.3,0.8c-0.5,0.1-2.4-1.8-3.1-2.4C314.3,42.4,317.9,40.9,317.9,40.9z"/>
		</g>
		<path class="st1" d="M289.6,22.6c0,0-0.8,5.4-0.4,8.1c0,0,0.4,0.3,1.2,0.1c0,0,0.2-5.9,0.6-8C291,22.7,290.8,22.6,289.6,22.6z"/>
	</g>
	<g>
		<rect x="289.8" class="st1" width="0.6" height="26.7"/>
	</g>
</g>
<g>
	<rect x="380.9" y="198.2" class="st21" width="11.3" height="0.8"/>
	<rect x="380.9" y="199.8" class="st21" width="11.3" height="3.3"/>
	<rect x="375.5" y="204.1" class="st21" width="6.7" height="0.5"/>
	<rect x="375.5" y="204.9" class="st21" width="6.7" height="1.3"/>
	<rect x="394.1" y="193.9" class="st21" width="0.5" height="9.3"/>
</g>
<g>
	<polygon class="st22" points="371.1,183.1 420.8,179.9 421,208.9 376.4,208.9 	"/>
	<polygon class="st23" points="373.3,180.4 420.8,179.9 421,208.9 376.4,208.9 	"/>
	<g>
		<path class="st24" d="M372.5,146.6c0,0,1.1,1.2,1.6,0.6c0.4-0.5,1-1.3,1-1.3L372.5,146.6z"/>
		<path class="st24" d="M370.3,134.8l1.4,6.7c-0.4-0.5-1.2-1.4-1.5-1.2c-0.3,0.3,0.9,2.2,1.1,3c0.2,0.8,0.4,1.8,0.8,2.5l0.5,1.1
			l2.4-1c0,0-0.1-4.9-0.2-5.9c-0.1-1.7-3.6-5.6-3.9-5.6C370.5,134.4,370.3,134.8,370.3,134.8z"/>
	</g>
	<path class="st25" d="M420,262.5c0,0,0.6,1.6,1.3,2.3c0.5,0.6,2.8,1.8,2.8,3.8c0,2.1-3.7,1.5-5.2,1.4c-1.4-0.1-1.6-1.2-2.2-2.4
		c-0.6-1.2-1.2-1-1.3-1.9c-0.1-1,0.4-3.1,0.4-3.1H420z"/>
	<g>
		<path class="st25" d="M385.7,262.8c0,0-2.1,2.2-4.1,2.6c-2.1,0.4-3.5,1-3.6,2.3c0,1.2,5.9,2.1,8.3,0.8c3.6-1.8,3.9-1.3,4.3-2.2
			c0.4-1-0.4-3.3-0.4-3.7C390.2,262.2,385.7,262.8,385.7,262.8z"/>
	</g>
	<g>
		<path class="st26" d="M391.1,201.2c0,0-2.2,15.4-3,20.7c-1,6.2-1.4,11.2-1.6,14.4c-0.3,4-1.1,24.9-1.3,26.1
			c-0.2,1.2,5.6,0.5,5.6,0.5s4.2-27.2,5.3-31.4c1-4,3.7-20.2,4.6-19.2c0.9,1.1,6.6,20.2,7.2,23.2c0.6,3.1,7.1,27.5,7.1,27.5
			s4.9,1.1,6,0.1c0,0-4.2-22.5-4.6-28.3c-0.2-2.3-1.5-26.6-5.3-36.4C409.1,193.5,391.1,201.2,391.1,201.2z"/>
	</g>
	<path class="st18" d="M397.3,164.1c0,0-5.6,1.2-6.3,1.7c-0.8,0.6-2.1,6.8-2.1,8.5c-0.1,1.7,0.6,9,1.4,11.6
		c0.8,2.7,0.5,16.6,0.2,18.9c0,0,11.3,2.3,22.5,0.8c0,0-1.9-12.1-1.5-15.8c0.5-4.8,1.9-15.5,1.9-15.5s-1.5-7.3-2.5-8.1
		c-1-0.9-7.9-2.2-7.9-2.2L397.3,164.1z"/>
	<path class="st15" d="M399.6,146.7c0,0-6.8-2.5-6.4,6.5c0.4,9.1,2.1,9.9,6.5,8.6s4.9-6.9,5.4-9.7
		C405.8,149.4,401.9,147,399.6,146.7z"/>
	<path class="st15" d="M396.1,165.6c0,0,3.6,2.8,6.9-1.6c0,0-0.1-3.7,0.9-7s-7.1,4.5-7.1,4.5c0.1,0.1,0.1,0.4,0,0.9
		c0,0.4-0.1,0.9-0.2,1.4C396.4,164.8,396.5,164.6,396.1,165.6z"/>
	<path class="st27" d="M404.2,156.6c0,0,0-2.4-1-2.6c-1-0.2-1.5,1.2-1.5,1.2H401c0,0,0.8-2.5-0.2-3s-6.7-0.1-7.3-0.9
		c-0.8-0.9,0.3-5.7,1.8-6.2c1.5-0.4,5.8-1.4,8.5,1c0,0,2.4,0,2.4,2.9C406.1,150.9,405,155.3,404.2,156.6z"/>
	<path class="st19" d="M396.7,163.7c5.3-0.9,6-3.9,6-3.9c-2.1,2.6-5.8,2.5-5.8,2.5C396.9,162.7,396.8,163.2,396.7,163.7z"/>
	<path class="st15" d="M402.1,153c0.3-0.8,1.9-0.6,1.8,0.5c-0.2,1.3-1.6,3.2-2.2,2.8C401.2,156,401.7,154.1,402.1,153z"/>
	<path class="st15" d="M404.9,164.3c0,0-3.1,6.5-7.9,5.9c-4.6-0.5-1.9-5-1.5-5.7C395.5,164.5,398.3,162.7,404.9,164.3z"/>
	<g>
		<path class="st18" d="M375.4,159.1c-1.3-2.6-4.2-12.5-4.2-12.5l4.1-0.9c0,0,2.2,5,3.2,8.4c0.5,1.7,1.2,3.3,1.3,3.6
			s7.1,5.6,7.9,5.9c0.8,0.4,3.7,1.4,5.1,2.8c1.4,1.4,0.8,3.3,0.8,3.3c-3,3.8-8.5-1.2-8.5-1.2S377.3,162.8,375.4,159.1z"/>
	</g>
	<path class="st18" d="M382.2,166.5c0,0,6.5,7.1,6.7,9.7c0.1,1.8,1.3-5.6,1.3-5.6L382.2,166.5z"/>
	<rect x="376.4" y="178.2" class="st10" width="48.6" height="30.7"/>
	<path class="st28" d="M417.4,210.4c0,0,0.2-0.5,0.2-0.9c0,0-0.1-0.5-0.1-0.9c0-0.1,0-0.2,0-0.3c0-0.3,0.1-0.9,0-1.6
		c-0.1-0.6-1-3.1-1-3.1l-2.2,0.3l-1.9-0.2c0,0-1.4,4.1-1.3,4.8c0,0.1,0,0.1,0,0.2c0.1,0.5,0.4,1,0.5,1.2c0,0.1,0.4,1.1,0.8,1.2
		c0.4,0.1,0.8,0,1.1-0.1c0,0,0.9,0.2,1.4,0c0,0,0.8,0.2,1.4-0.3C416.3,210.6,417.2,210.8,417.4,210.4z"/>
	<path class="st18" d="M407.9,166c-0.8,0.3-1.5,2.1-1,5.6c0.6,3.8,1.8,5.4,2.4,6.3c0.5,0.9,3.6,6.8,3.6,7.7c0,2.3,0,8.2,0,8.6
		c-0.1,0.8-0.6,9.8-0.6,9.8l4.8,1.2c0,0,1-10.1,1.4-13.2c0.2-1.2,0.5-4.6,0.1-8c-0.4-3.2-2.8-10.4-3-11
		C415.2,172.3,412.8,164.1,407.9,166z"/>
</g>
<g>
	<rect x="168.5" y="165.3" class="st21" width="9.4" height="1.8"/>
</g>
<g>
	<rect x="182.2" y="180.6" class="st21" width="9.4" height="1.8"/>
</g>
<g>
	
		<linearGradient id="SVGID_5_" gradientUnits="userSpaceOnUse" x1="126.728" y1="101.5833" x2="126.728" y2="-196.8985" gradientTransform="matrix(1 0 0 -1 0 270)">
		<stop  offset="0" style="stop-color:#44607D"/>
		<stop  offset="1" style="stop-color:#F5F5F5"/>
	</linearGradient>
	<path class="st29" d="M142.4,208.1h-31.3c-11.2,0-20.3-9-20.3-20.3v-44.5c0-11.2,9-20.3,20.3-20.3h31.3c11.2,0,20.3,9,20.3,20.3
		v44.5C162.6,199,153.6,208.1,142.4,208.1z"/>
	<g class="st30">
		<g>
			<g>
				<path class="st21" d="M116.6,136.3c-1.6-4.4-5.7-7.1-10.1-6.9c-1.1,0-2.1,0.3-3.2,0.6c-3.2,1.2-5.5,3.7-6.5,6.8
					c-0.7,2.1-0.7,4.4,0.2,6.7c0.1,0.3,0.2,0.4,0.3,0.7c0.4,0.9,0.9,1.9,1.6,2.6c2.7,3.2,7.3,4.6,11.5,3
					C115.6,147.7,118.5,141.7,116.6,136.3z M109.3,147.2c-3.1,1.1-6.6,0.1-8.6-2.3c-0.5-0.6-0.9-1.3-1.2-1.9
					c-0.1-0.2-0.2-0.3-0.2-0.5c-0.6-1.7-0.6-3.4-0.1-5c0.7-2.3,2.4-4.2,4.8-5.1c0.8-0.3,1.6-0.4,2.4-0.4c3.3-0.1,6.4,1.9,7.6,5.2
					C115.5,141.2,113.4,145.7,109.3,147.2z"/>
			</g>
		</g>
	</g>
	<g>
		<g>
			<g>
				<g>
					<g>
						<polygon class="st21" points="136.6,167.6 147.6,168.2 156.4,156.1 155.8,155.7 147.3,167.4 136.3,166.8 123.8,181.1 
							110.7,178.3 97.7,190.5 98.2,191 110.9,179.1 124.1,181.9 						"/>
					</g>
				</g>
			</g>
		</g>
		<g>
			<g>
				<g>
					<path class="st21" d="M125.8,181.1c0.3,1-0.4,2.1-1.5,2.3c-1,0.3-2.1-0.4-2.3-1.5c-0.3-1,0.4-2.1,1.5-2.3
						C124.6,179.4,125.6,180.1,125.8,181.1z"/>
				</g>
			</g>
		</g>
		<g>
			<g>
				<g>
					<path class="st21" d="M138.4,166.9c0.3,1-0.4,2.1-1.5,2.3c-1,0.3-2.1-0.4-2.3-1.5c-0.3-1,0.4-2.1,1.5-2.3
						C137.2,165.2,138.2,165.9,138.4,166.9z"/>
				</g>
			</g>
		</g>
		<g>
			<g>
				<g>
					<path class="st21" d="M149.2,167.3c0.3,1-0.4,2.1-1.5,2.3c-1,0.3-2.1-0.4-2.3-1.5c-0.3-1,0.4-2.1,1.5-2.3
						C148,165.6,149.1,166.3,149.2,167.3z"/>
				</g>
			</g>
		</g>
		<g>
			<g>
				<g>
					<path class="st21" d="M112.7,178.5c0.3,1-0.4,2.1-1.5,2.3c-1,0.3-2.1-0.4-2.3-1.5c-0.3-1,0.4-2.1,1.5-2.3
						C111.4,176.7,112.5,177.4,112.7,178.5z"/>
				</g>
			</g>
		</g>
	</g>
	<g>
		<rect x="108.9" y="186.1" class="st21" width="7.9" height="1.5"/>
	</g>
	<g>
		<rect x="114.4" y="170.4" class="st21" width="7.9" height="1.5"/>
	</g>
	<g>
		<rect x="130.9" y="181.3" class="st21" width="7.9" height="1.5"/>
	</g>
	<g>
		<g>
			
				<linearGradient id="SVGID_6_" gradientUnits="userSpaceOnUse" x1="123.5132" y1="126.3053" x2="125.8765" y2="126.3053" gradientTransform="matrix(1 0 0 -1 0 270)">
				<stop  offset="0" style="stop-color:#D5E4FF"/>
				<stop  offset="1" style="stop-color:#EDFFFE"/>
			</linearGradient>
			<rect x="123.5" y="137.1" class="st31" width="2.4" height="13.2"/>
		</g>
		<g>
			
				<linearGradient id="SVGID_7_" gradientUnits="userSpaceOnUse" x1="127.6623" y1="128.12" x2="130.0256" y2="128.12" gradientTransform="matrix(1 0 0 -1 0 270)">
				<stop  offset="0" style="stop-color:#D5E4FF"/>
				<stop  offset="1" style="stop-color:#EDFFFE"/>
			</linearGradient>
			<rect x="127.7" y="133.6" class="st32" width="2.4" height="16.6"/>
		</g>
		<g>
			
				<linearGradient id="SVGID_8_" gradientUnits="userSpaceOnUse" x1="132.0164" y1="127.1916" x2="134.3797" y2="127.1916" gradientTransform="matrix(1 0 0 -1 0 270)">
				<stop  offset="0" style="stop-color:#D5E4FF"/>
				<stop  offset="1" style="stop-color:#EDFFFE"/>
			</linearGradient>
			<rect x="132" y="135.4" class="st33" width="2.4" height="14.8"/>
		</g>
		<g>
			
				<linearGradient id="SVGID_9_" gradientUnits="userSpaceOnUse" x1="136.4902" y1="125.0815" x2="138.8535" y2="125.0815" gradientTransform="matrix(1 0 0 -1 0 270)">
				<stop  offset="0" style="stop-color:#D5E4FF"/>
				<stop  offset="1" style="stop-color:#EDFFFE"/>
			</linearGradient>
			<rect x="136.5" y="139.6" class="st34" width="2.4" height="10.6"/>
		</g>
		<g>
			<rect x="123.5" y="141.9" class="st35" width="2.4" height="8.4"/>
		</g>
		<g>
			<rect x="127.7" y="139.6" class="st35" width="2.4" height="10.6"/>
		</g>
		<g>
			<rect x="132" y="140.8" class="st35" width="2.4" height="9.4"/>
		</g>
		<g>
			<rect x="136.5" y="143.7" class="st35" width="2.4" height="6.6"/>
		</g>
	</g>
	<g>
		<g>
			
				<linearGradient id="SVGID_10_" gradientUnits="userSpaceOnUse" x1="141.0442" y1="124.1952" x2="143.4075" y2="124.1952" gradientTransform="matrix(1 0 0 -1 0 270)">
				<stop  offset="0" style="stop-color:#D5E4FF"/>
				<stop  offset="1" style="stop-color:#EDFFFE"/>
			</linearGradient>
			<rect x="141" y="141.4" class="st36" width="2.4" height="8.8"/>
		</g>
		<g>
			
				<linearGradient id="SVGID_11_" gradientUnits="userSpaceOnUse" x1="145.1935" y1="127.4448" x2="147.5568" y2="127.4448" gradientTransform="matrix(1 0 0 -1 0 270)">
				<stop  offset="0" style="stop-color:#D5E4FF"/>
				<stop  offset="1" style="stop-color:#EDFFFE"/>
			</linearGradient>
			<rect x="145.2" y="134.9" class="st37" width="2.4" height="15.3"/>
		</g>
		<g>
			
				<linearGradient id="SVGID_12_" gradientUnits="userSpaceOnUse" x1="149.5475" y1="126.0521" x2="151.9108" y2="126.0521" gradientTransform="matrix(1 0 0 -1 0 270)">
				<stop  offset="0" style="stop-color:#D5E4FF"/>
				<stop  offset="1" style="stop-color:#EDFFFE"/>
			</linearGradient>
			<rect x="149.6" y="137.7" class="st38" width="2.4" height="12.5"/>
		</g>
		<g>
			
				<linearGradient id="SVGID_13_" gradientUnits="userSpaceOnUse" x1="154.0212" y1="129.3861" x2="156.3845" y2="129.3861" gradientTransform="matrix(1 0 0 -1 0 270)">
				<stop  offset="0" style="stop-color:#D5E4FF"/>
				<stop  offset="1" style="stop-color:#EDFFFE"/>
			</linearGradient>
			<rect x="154" y="130.9" class="st39" width="2.4" height="19.3"/>
		</g>
		<g>
			<rect x="141" y="145.6" class="st35" width="2.4" height="4.7"/>
		</g>
		<g>
			<rect x="145.2" y="143.2" class="st35" width="2.4" height="7"/>
		</g>
		<g>
			<rect x="149.6" y="143.9" class="st35" width="2.4" height="6.2"/>
		</g>
		<g>
			<rect x="154" y="135.8" class="st35" width="2.4" height="14.3"/>
		</g>
	</g>
</g>
<g>
	<g>
		<g>
			<g>
				<path class="st15" d="M59.5,201.9c0,0,0.4,0.8,0.6,1.5c0,0.6,0.4,1.2,0.7,1.7c0.2,0.4,0.8,2.4,0.8,2.8c0,0.2-0.4,1.5-0.3,1.9
					c0.1,0.4,0.3,1.2-0.1,1.2c-0.3,0-0.8-0.7-0.8-0.7s0,0.3-0.2,0.6c-0.6,0.3-0.9,0-0.9,0s-0.3,0.7-0.6,0.7
					c-0.7,0.1-0.9-0.1-0.9-0.1s-0.2,0.2-0.7,0.2c-0.6,0-0.8-0.4-0.8-0.4s-0.7,0.1-0.9-0.2c-0.2-0.3-0.1-0.7-0.2-1
					c-0.1-0.3,0-2.9,0.9-4.9c0.9-1.9-0.2-3.8-0.2-3.8L59.5,201.9z"/>
			</g>
		</g>
	</g>
	<g>
		<g>
			<path class="st40" d="M60.4,210.3c0,0,0.1-2.4-0.6-2.9c-0.7-0.6-0.7,0.3-0.7,0.3s0.1-0.9-0.6-1c-0.7-0.1-0.7,0.9-0.7,0.9
				s-0.1-0.7-0.8-0.6c-0.7,0.1-0.6,1-0.6,1s-0.7-0.8-1.1,0c-0.8,1.3,0,2.9,0,2.9s0.2,0.3,0.9,0.2c0,0,0.4,0.9,1.5,0.2
				c0,0,1,0.6,1.5-0.3C59,211.1,60.3,211.7,60.4,210.3z"/>
		</g>
	</g>
	<path class="st41" d="M67.6,167.5c0,0-4.1,13.7-5.5,18.7c-0.4,1.6-1.5,16.7-1.7,17.3c-0.2,0.6-5.4,1.5-5.4,1.5s0.7-18.8,0.7-19.8
		c0.1-1,5.7-22.1,7.4-22.9c1.2-0.6,1.9-0.1,3.5,1C68.8,164.8,67.6,167.5,67.6,167.5z"/>
	<path class="st28" d="M118.3,145.8c0,0-0.1,0.6-0.2,0.8c0,0-0.3,0.3-0.6,0.7c-0.1,0.1-0.1,0.1-0.1,0.2c-0.1,0.2-0.3,0.8-0.8,1.2
		c-0.4,0.4-2.1,1.9-2.1,1.9l-1.5-1.2l-1.6-0.7c0,0,0.9-3.8,1.2-4.3l0.1-0.1c0.3-0.3,0.8-0.4,1-0.7c0.1-0.1,0.9-0.7,1.1-0.6
		c0.4,0.1,0.7,0.3,0.7,0.6c0,0,0.8,0.2,1,0.7c0,0,0.7,0.2,0.9,0.9C117.6,145.1,118.3,145.3,118.3,145.8z"/>
	<g>
		<g>
			<path class="st42" d="M89.5,171.2l1-0.3c0,0-1.3-3.1-1.9-3c-0.7,0.1-1.5,0.3-1.5,0.3L89.5,171.2z"/>
		</g>
	</g>
	<g>
		<g>
			<path class="st43" d="M89.7,171.6c-0.1-0.1-2.2-4.1-2.2-4.1l-4.5,0.6l2.5,4.8L89.7,171.6z"/>
		</g>
	</g>
	<g>
		<g>
			<path class="st44" d="M64.3,260.6c0,0-0.3,2.6-0.4,3c0,0.3-4.1-0.2-4.1-0.2l-0.3-3.1C59.4,260.3,63.7,260.3,64.3,260.6z"/>
		</g>
	</g>
	<g>
		<g>
			<path class="st45" d="M63.9,263.3c0,0,1.3,1.6,2.6,2.2c1.2,0.7,3.3,0.9,3.9,1.7c0.6,0.6,1.9,2.7-3.3,2.7c-5.3,0-7.7,0.3-8.3-0.6
				c-0.6-0.8,0.8-6.2,0.8-6.2S60.9,263.6,63.9,263.3z"/>
		</g>
	</g>
	<g>
		<g>
			<path class="st44" d="M93.7,260.6c0,0-0.3,2.6-0.4,3c0,0.3-4.1-0.2-4.1-0.2l-0.3-3.1C88.7,260.3,93.2,260.3,93.7,260.6z"/>
		</g>
	</g>
	<g>
		<g>
			<path class="st45" d="M93.3,263.3c0,0,1.3,1.6,2.6,2.2s5.9,1.2,6.6,1.9c0.6,0.6,1.5,2.6-5.9,2.4c-5.3-0.1-7.7,0.3-8.3-0.6
				c-0.6-0.8,0.8-6.2,0.8-6.2S90.2,263.7,93.3,263.3z"/>
		</g>
	</g>
	<g>
		<g>
			<path class="st45" d="M67.7,194.1c0,0-3.8,6.2-3.6,11.7c0.3,5.5-1.3,11.5-2,17.4c-0.7,6.5-3.3,21.7-3.4,25.2
				c-0.1,3.5,0.4,14.5,0.4,14.5l5.3,0.1c0,0,4.5-26.7,5.6-29.5c1.1-2.7,6.8-22.2,7.1-24.3C77.3,207,67.7,194.1,67.7,194.1z"/>
		</g>
	</g>
	<g>
		<g>
			<path class="st45" d="M87.9,195c0,0,2.9,15.1,3.3,18.6c0.3,3.4,0.7,16.4,0.8,18.5c0.2,2.1,1.8,27.7,2.4,30.9h-6.7
				c0,0-5.2-18.6-5.2-27.5s-4-19.2-6.6-25c-2.6-5.8-8.5-5.9-10.1-16.7C65.8,193.8,85.8,191.5,87.9,195z"/>
		</g>
	</g>
	<g>
		<g>
			<path class="st15" d="M74.1,142.6c0,0,5.2-1.9,7.5,2s2.1,11.9-0.4,12.8c-2.6,1-6.5,0.4-7.8-2c-1.3-2.5-2.6-6.1-2.5-8.4
				C70.9,144.6,72.7,143.3,74.1,142.6z"/>
		</g>
	</g>
	<g>
		<g>
			<path class="st15" d="M80.7,157.5c0,0-0.2,1.3,0.1,2.1c0.3,0.7-6.7,0.7-6.7,0.7s-0.6-3.7-1.7-6.9
				C71.4,150.2,80.7,157.5,80.7,157.5z"/>
		</g>
	</g>
	<g>
		<g>
			<path class="st46" d="M72.5,153.5c0,0,0.4,0.8,2.5,0.4c2-0.3,4.4-2.9,5.3-3.3c0.8-0.3,0.8-0.8,0.8-0.8l0.6,0.8h0.9
				c0,0-0.8-2.4,0.4-3.4c1.2-1-1.2-7.6-7.6-5.4c0,0-4.9,1.3-4.7,4.1C70.6,148.9,71.4,152,72.5,153.5z"/>
		</g>
	</g>
	<g>
		<g>
			<path class="st47" d="M81.2,159.5c0,0,0-1.3-0.7-1.5c-0.6-0.1-6.6-0.7-7.3-0.4v1.6C73.3,159.2,74.7,160.1,81.2,159.5z"/>
		</g>
	</g>
	<g>
		<g>
			<path class="st15" d="M80.9,148.9c-0.1-0.4-1.3-1.8-1.8-0.3s0.7,3.4,1.3,3.1C81.1,151.6,81.1,150.1,80.9,148.9z"/>
		</g>
	</g>
	<g>
		<g>
			<path class="st48" d="M105,175.1L105,175.1L105,175.1z"/>
		</g>
	</g>
	<g>
		<g>
			<path class="st41" d="M91.1,161.6c-4.1-0.6-9.9-2-9.9-2l-8-0.3c0,0-7.3,1.6-10.2,2.9c-0.2,0.1-0.2,6.5-1,8.2l2.4,5
				c0,0,1.3,10,1.7,14.3c0.1,2-2.8,19.1-2.8,19.1s3.1,0.9,8.6,1.6c5.4,0.6,18.9-0.2,19.1-0.9c0.1-0.7-2.6-23.8-2.7-25
				c-0.2-1.8,0.7-11.7,0.7-11.7c1.2-1,12.2-6.1,15.2-8.7c0.8-0.7,4.1-4,5.2-5.2c3.4-4,6.2-7.5,6.5-8.2c0.3-0.4-3.7-2.7-4-2.8
				c-0.3-0.1-4.9,5.8-6.7,7.7c-0.8,0.9-4,3.3-4,3.3S93.7,161.7,91.1,161.6z"/>
		</g>
	</g>
	<g>
		<g>
			<path class="st46" d="M72.6,143.1c0,0-6.6,0.6-0.2,10.4L72.6,143.1z"/>
		</g>
	</g>
</g>
<g>
	<g>
		<path class="st46" d="M191.9,257.1c0,0-1.3,2-3.2,2.5c-1.8,0.4-3.8,1.1-3.8,2.3c0,1.2,5.4,1.9,7.5,0.6c3.2-1.8,3.5-1.3,3.9-2.1
			c0.3-0.9-0.4-3.2-0.4-3.5C196,256.4,191.9,257.1,191.9,257.1z"/>
	</g>
	<g>
		<path class="st49" d="M192.1,256.1l-0.2,1c0,0,4.2,0.5,4.1-0.2c-0.1-0.6-0.2-1.3-0.2-1.3L192.1,256.1z"/>
	</g>
	<g>
		<path class="st46" d="M206,257c0,0-1,1.9-2.6,2.6c-1.7,0.6-3.1,1.5-3.1,2.7s4.2,2.4,7.3,0.1c1.9-1.4,2.6-1.4,2.9-2.3
			s-0.5-3.1-0.5-3.4C210,256.2,206,257,206,257z"/>
	</g>
	<g>
		<path class="st49" d="M205.9,256v1c0,0,4.1,0.3,4-0.4c-0.1-0.6-0.4-1.3-0.4-1.3L205.9,256z"/>
	</g>
	<g>
		<path class="st50" d="M191.1,197.7c0,0-3.8,16.5-4.6,21.6c-0.8,4.3-1.3,8.7-1,11.8c0.4,3.9,5.9,23.7,5.6,24.8
			c-0.2,1.1,5.7,0.2,5.7,0.2s-4.1-22.1-3.3-26.3c0.6-3,5.9-23.3,6.8-22.3c0.9,1.1,1.8,19.1,2.5,22.1c0.6,3,2.5,26.7,2.5,26.7
			s4.2,0.6,5.3-0.3c0,0,0.5-20.3,0.1-25.9c-0.1-2.1,2.5-25.8-0.9-35.2C207.9,190,191.1,197.7,191.1,197.7z"/>
	</g>
	<g>
		<path class="st51" d="M174.8,182.7c2.7-0.3,11.1,3.3,11.8,3.1c0.5-0.2,1.7-4.2,2.7-7.2c0.5-1.8,1-3.2,1-3.3l0,0
			c0,0.1-0.1,1.5,0,3.2c0,0.1,0,0.2,0,0.3v0.1c0.1,0.6,0.2,1.3,0.4,2c0.2,1.1,0.4,2.4,0.4,3.9l0,0l0,0v0.1l0,0
			c0.1,2.6-0.1,5.4-0.2,6.9c-0.1,2.4,0.6,3.3,0.6,3.4l0,0l0.8-0.1l0.5-0.1l0,0l0.8-0.1l3-0.4l1.1-0.1h0.2l1.9-0.3l5.5-0.8l0.6-0.1
			h0.2l2-0.3l1-0.1l0,0c0,0,0.8-5.6,0.9-8.6c0.1-2.8,1.5-8.4,1.8-9.3l0,0l0,0l0,0l0,0l0,0l0,0l0,0c0,0,4.4,4.6,5.3,6.7
			c0.2,0.6,1.1,2.3,2,4.3c0.8-1.3,1.2-2.3,1.2-2.5v-0.1c-0.1-2-2.1-10.2-3.9-15.5c-1.3-2.6-2.4-4.7-2.8-4.9
			c-0.5-0.4-2.8-1.4-4.8-2.1c-0.1,0-0.1,0-0.2-0.1c-0.2-0.1-0.3-0.1-0.5-0.2c-0.1,0-0.2-0.1-0.2-0.1h-0.1h-0.1l0,0
			c-1-0.4-1.7-0.6-1.9-0.6h-0.1c-0.1,0-0.1,0-0.2,0c-1.2,0.1-4.9,0.4-6.1,0.5c-0.2,0-0.3,0-0.3,0l0,0c0,0-0.5,0.2-1.4,0.6l0,0h-0.1
			c-0.5,0.2-1.1,0.5-1.7,0.9c-1.2,0.6-2.6,1.5-3.8,2c-1.1,0.5-2.6,1.3-2.8,1.4l-5.6,16.1l-9.7-1.8L174.8,182.7z"/>
	</g>
	<g>
		<path class="st52" d="M191.6,195.3c0,0-0.4,0.5-0.5,2.6c0,0,16.8-1.9,18.6-2.8c0,0,0.1-2.3-0.3-2.4
			C209,192.7,191.6,195.3,191.6,195.3z"/>
	</g>
	<g>
		<path class="st15" d="M206,158.8c0,2.7-5.2,4.1-5.2,4.1s-2.1-2.7-1.6-2.9c0.2-0.1,0.3-0.5,0.3-1c0-0.4,0-0.9,0-1.2
			c0-0.2,0-0.3,0-0.3s0.8-0.8,1.6-1.7c1.6-1.6,3.9-3.6,3.9-2.9v0.1C204.6,154.9,206,158.8,206,158.8z"/>
	</g>
	<g>
		<path class="st46" d="M205.6,193.1c0,0,0.3,2.4,0.4,2.9l0.8-0.1c0,0-0.2-2.5-0.3-2.9L205.6,193.1z"/>
	</g>
	<g>
		<path class="st46" d="M193,195c0,0-0.3,2.1-0.3,2.9l0.9-0.1c0,0,0.2-2.7,0.2-2.9L193,195z"/>
	</g>
	<g>
		<path class="st19" d="M204.1,154.9L204.1,154.9c0,0-0.2,0.3-0.6,0.9c-0.8,1-2.3,2.6-4,3.2c0-0.4,0-0.9,0-1.2c-0.2,0-0.3,0-0.5-0.1
			c0.4-0.8,1.1-1.6,1.1-1.6l1.1-0.3L204.1,154.9z"/>
	</g>
	<g>
		<path class="st15" d="M205,153c-0.4,1-0.9,1.6-1,1.9l0,0c-0.1,0.2-0.3,0.4-0.6,0.9c-0.9,0.9-2.4,2.1-4,2c-0.2,0-0.3,0-0.5-0.1
			c-0.6-0.1-1.4-0.4-1.7-1.2c-3.2-6.2-0.9-11.4-0.9-11.4s8.7-2.5,10.1,0.1C207.4,147.2,206,150.8,205,153z"/>
	</g>
	<g>
		<path class="st27" d="M196.3,145.2c0,0-0.9,0-1-1.6c-0.2-1.5,0.2-1.9,0.2-1.9s3.6-1.5,4.9-1.7c1.3-0.2,4.5-0.4,5.3,0.4
			c0,0,1.8-0.4,2.3,2.6c0.8,4.7-2.7,9.4-2.7,9.4s0-3.1-0.6-3.5c-0.6-0.4-1.3,0.5-1.3,0.5l-1.4,0.2c0,0,2.1-4.6-0.4-4.8
			C198.9,144.7,197.8,145.5,196.3,145.2z"/>
	</g>
	<g>
		<path class="st15" d="M203.4,148.3c0.1-1.4,2.6-1.9,2.5-0.4c-0.2,1.4-1.4,2.8-1.9,2.8C203.3,150.5,203.3,149.2,203.4,148.3z"/>
	</g>
	<g>
		<path class="st26" d="M220.6,183.3C220.6,183.3,220.6,183.2,220.6,183.3c0-2.1-1.1-10.1-2.7-15.5c-0.9-2.6-1-4.4-1.3-4.6
			c-0.5-0.4-5.4-1.8-7.4-2.6c-0.1,0-0.1,0-0.2-0.1c-0.2-0.1-0.3-0.1-0.5-0.2c-0.1,0-0.2-0.1-0.2-0.1h-0.1H208l0,0
			c-0.2,0.2-1.2,1.3-2.3,2.9c-2.1,3-4.8,7.8-4.4,12.3c0.1,1.4,0.3,3.5,0.5,5.8c0,0.2,0,0.4,0.1,0.6c0.1,0.5,0.1,1.1,0.2,1.6
			c0,0.3,0.1,0.6,0.1,1c0.5,3.4,2.4,5.9,3.9,8.7c0,0,0,0,0,0.1l0,0c0,0.1,0.1,0.1,0.1,0.2s0.1,0.2,0.1,0.3c0,0.1,0.1,0.1,0.1,0.2
			c0.3,0.5,0.5,1.2,0.9,1.7c0.2,0.4,0.3,0.8,0.5,1.2c0,0,0,0.1,0.1,0.1c0,0,0.3,0.6,0.6,1.5c0.1,0.3,0.3,0.6,0.4,1
			c0.1,0.2,0.2,0.4,0.3,0.8c0.1,0.2,0.2,0.4,0.2,0.5c0.2,0.4,0.3,0.8,0.4,1.1c0.1,0.2,0.1,0.3,0.1,0.3c0.5,1.3,1,2.4,1.1,2.9
			c0.1,0.2,0.1,0.3,0.1,0.3l5.4-3c1.1-0.5,0.5-3.2,0.1-4.3c-0.3-0.9-0.8-1.8-1.3-2.9c-0.2-0.4-0.4-0.9-0.6-1.2c1.7-2.9,3.4-6,4.5-8
			C220.2,184.4,220.6,183.5,220.6,183.3z M212,174.8L212,174.8L212,174.8C212.1,174.8,212.1,174.8,212,174.8
			C212.1,174.8,212.1,174.7,212,174.8c0-0.1,0-0.1,0-0.1l0,0c0,0,2.6,4.1,2.5,7.6c0,0.5-0.5,1.9-1.4,3.8l0,0c-0.3,0.6-0.6,1.4-1,2.1
			v-0.1c-0.5-1.2-0.9-2.4-0.9-3.3C211.2,184.8,211.5,176.9,212,174.8z"/>
	</g>
	<g>
		<path class="st26" d="M171.2,177.4l12.2,2.7l5.8-15.2c0.1-0.1,1.8-1,2.9-1.5c1.2-0.5,2.6-1.2,3.9-1.8c0.6-0.3,1.2-0.5,1.7-0.8l0,0
			c0,0-0.8,2.4-1.6,8.4l0,0c0,0.2-0.1,0.4-0.1,0.6c0,0,0,0,0,0.1c0,0.1,0,0.3-0.1,0.4l0,0c0,0.1,0,0.2,0,0.3c0,0.2-0.1,0.4-0.1,0.8
			c-0.4,2.9-1,7.8-1.6,12.9l0,0c-0.4,4-1.5,7.9-1.8,11.1l0,0c-0.1,0.6-0.2,1.4-0.4,2.3c0,0.1,0,0.2-0.1,0.3
			c-0.9,3.9-2.7,9.2-2.7,9.2l-0.5-0.4l-1.5-1.4c-0.3-0.3-0.4-0.9-0.3-1.3c0.9-2.7,3.6-12.2,4.2-19l0,0c0.2-2.1-0.4-4.1-0.9-6l0,0
			c-0.3,0.9-0.6,1.7-1,2.6l0,0c-0.9,2.4-1.8,4.6-2.3,4.7c-0.9,0.3-17-4.1-17.1-4.7L171.2,177.4z"/>
	</g>
	<g>
		<path class="st53" d="M206.5,166.6l-2.5,1.4l1.1,1.1l-2.8,15.2c-0.5-3.5-0.9-7-1.1-9.1c-0.6-7,6.3-14.8,6.8-15.2
			c0.3,0.1,0.6,0.2,1.1,0.4L206.5,166.6z"/>
	</g>
	<g>
		<path class="st53" d="M197.8,160.6c0,0-1,3-2,10.6c-0.4,2.9-1,7.8-1.6,12.9l-0.5-14.3l1.2-1.3l-1.1-1.3l2.3-5.8
			C196.7,161.2,197.2,160.8,197.8,160.6L197.8,160.6z"/>
	</g>
	<g>
		<path class="st54" d="M208,160.1l-2-1.3c0,0-0.1,1.2-5.2,4.1l1.5,4.1L208,160.1z"/>
	</g>
	<g>
		<path class="st54" d="M199.4,159.4c0,0,0.1,1.2,1.4,3.5l-2.8,3.6l-0.2-6L199.4,159.4z"/>
	</g>
	<g>
		<path class="st48" d="M200.8,162.9c0,0,0.5,2.1,0.3,2.8c0,0-1.2,0.4-2-0.1C199.1,165.7,199.8,164.1,200.8,162.9z"/>
	</g>
	<g>
		<g>
			<path class="st55" d="M197.9,194.5c-0.3-1.5,0-6.2,0-6.4h0.2c0,0-0.3,4.8,0,6.3L197.9,194.5z"/>
		</g>
	</g>
	<g>
		<path class="st56" d="M200.2,193.9c0,0-2.5,0.3-3.3,0.5l0.1,2.8l3.2-0.3V193.9z"/>
	</g>
	<g>
		<path class="st48" d="M199.6,165.5c0,0-2.8,7-2.4,14.8c0.4,8,1.2,11.1,1.2,11.1l1.7,2.1l0.8-2.6c0,0-2.3-10.3-0.9-20.4
			c0.2-1.8,0.6-5.3,0.6-5.3L199.6,165.5z"/>
	</g>
	<g>
		<path class="st15" d="M207.9,198.4c0,0-0.6,1.2-1.2,1.4c-0.6,0.2-1.5,1.2-1.5,1.2l4.2,2.1c0,0,1.1-2.1,1.2-3.5
			C210.6,198.2,207.9,198.4,207.9,198.4z"/>
	</g>
	<g>
		<path class="st51" d="M207.5,198.5l-0.3,0.5c0,0,2.7,1.9,3.3,2l0.2-0.8L207.5,198.5z"/>
	</g>
	<g>
		<path class="st26" d="M207.3,198.5c0,0,2,1.6,3.6,2.4l5.6-10.1l-2.9-5.7C213.6,185.1,207.4,197.5,207.3,198.5z"/>
	</g>
	<g>
		<path class="st50" d="M190.4,175.2c-0.1,1.8-0.1,3.5-0.1,3.5l0,0v0.1v-0.1c-0.3,0.9-0.6,1.7-1,2.6c-0.1-1.1-0.1-1.9-0.1-2.9
			c0.1-5.3,1.8-8,1.8-8C190.6,171.5,190.5,173.5,190.4,175.2z"/>
	</g>
	<g>
		<path class="st50" d="M215.6,195.1l-4.5,5.5l3.9-6.7C215.2,194.2,215.4,194.6,215.6,195.1z"/>
	</g>
	<g>
		<path class="st57" d="M182.9,188.2h-10.4c-0.8,0-1.3-0.5-1.5-1.2l-4.5-18.7c-0.2-1,0.5-1.9,1.5-1.9h10.4c0.8,0,1.3,0.5,1.5,1.2
			l4.5,18.7C184.6,187.2,183.9,188.2,182.9,188.2z"/>
	</g>
	<g>
		<g>
			<path class="st15" d="M170.2,183c0.5-0.4,1.5-0.8,2.4-1.3s0.1-1.2,0.1-1.2c0.9-0.3,0.8-0.6,0.6-1c-0.1-0.3-1.1-0.2-1.1-0.2
				s0.9-0.2,1.2-0.3c0.3-0.1,0.2-0.8-0.3-1s-2.7,0.3-2.7,0.3s0.3-0.2,1.4-0.8c1.1-0.5,1.3-1.1,0.6-1.3c-0.4-0.2-1.3,0.2-3,1.3
				c-1.3,0.9-1.2,1-1.2,1S169.6,183.6,170.2,183z"/>
		</g>
	</g>
</g>
<g>
	<g>
		<polygon class="st58" points="242.8,217 286,217 272.4,258.8 273.7,259.2 287.9,215.6 241.8,215.6 227.8,258.8 229,259.2 		"/>
	</g>
	<g>
		<polygon class="st58" points="257.5,258.8 243.9,217 287.1,217 300.9,259.2 302.1,258.8 288.1,215.6 242,215.6 256.2,259.2 		"/>
	</g>
	<g>
		<rect x="238.8" y="228.8" class="st58" width="52.9" height="1.3"/>
	</g>
	<g>
		<rect x="233.3" y="243.3" class="st58" width="63.3" height="1.3"/>
	</g>
</g>
<g>
	<g>
		<g>
			<path class="st15" d="M264.5,121.5c0,0,1.1-1.9-0.6-6.9c-1.7-4.9-7.4-4.4-9.2-1.3s-1.2,5.1,1.5,8.6
				C258.8,125.4,263.3,123.1,264.5,121.5z"/>
		</g>
	</g>
	<g>
		<g>
			<path class="st15" d="M251.2,208.4c0,0-0.3,2.1-0.3,2.4c0,0.3-3.1-0.2-3.1-0.2l-0.3-2.5C247.4,208.2,250.8,208.1,251.2,208.4z"/>
		</g>
	</g>
	<g>
		<g>
			<path class="st59" d="M250.9,210.6c0,0,1,1.3,1.9,1.8c1,0.5,2.5,0.8,3,1.3c0.4,0.4,1.5,2.2-2.5,2.1c-4,0-5.9,0.2-6.3-0.4
				c-0.4-0.7,0.6-5,0.6-5S248.6,210.7,250.9,210.6z"/>
		</g>
	</g>
	<g>
		<g>
			<path class="st15" d="M272.7,208.4c0,0-0.3,2.1-0.3,2.4c0,0.3-3.1-0.2-3.1-0.2l-0.3-2.5C269,208.2,272.3,208.1,272.7,208.4z"/>
		</g>
	</g>
	<g>
		<g>
			<path class="st59" d="M272.4,210.6c0,0,1,1.3,1.9,1.8c1,0.5,4.5,1,5,1.6c0.4,0.4,1.1,2-4.5,1.9c-4-0.1-5.9,0.2-6.3-0.4
				s0.6-5,0.6-5S270.5,210.6,272.4,210.6z"/>
		</g>
	</g>
	<g>
		<g>
			<path class="st60" d="M252.2,156.8c0,0-1.6,5-1.4,9.2c0.2,4.3-0.8,9-1.2,13.4c-0.5,5-2.4,16.8-2.5,19.4
				c-0.1,2.7,0.3,11.2,0.3,11.2l3.9,0.1c0,0,3.2-20.6,4.1-22.7c0.8-2.1,5-17.1,5.2-18.8C260.7,166.9,252.2,156.8,252.2,156.8z"/>
		</g>
	</g>
	<g>
		<g>
			<path class="st60" d="M268.2,156.2c0,0,2.3,13.1,2.6,15.7c0.3,2.6,0.5,12.7,0.6,14.3s0.9,21.4,1.7,23.8h-4.3
				c0,0-4.4-14.4-4.4-21.2s-2.9-14.8-4.8-19.3s-6.2-4.6-7.4-12.9C252.2,156.8,266.7,153.6,268.2,156.2z"/>
		</g>
	</g>
	<g>
		<g>
			<path class="st15" d="M262.9,122.8c0,0-0.5,1.4,0,2.4s-6.2,0.4-6.2,0.4s0.3-2.1-0.6-3.8C255.2,120.1,262.9,122.8,262.9,122.8z"/>
		</g>
	</g>
	<g>
		<g>
			<path class="st60" d="M251.9,157.8c0,0,2.4,2.5,16.6-0.4l-0.2-1.2l-16.1,0.6L251.9,157.8z"/>
		</g>
	</g>
	<g>
		<g>
			<path class="st15" d="M263.9,125.6c0,0,2.5,0.3,3.2,0.4s5.5-0.9,6.4-1c1-0.1,5.1-3,5.3-3.3c0.1-0.3,2.5-6.4,2.7-7.7
				c0.1-1.3,2.3-0.6,2.1,0.3c-0.4,1.7-0.8,5.8-1.1,7c-0.3,1.3-1,4.2-1.4,4.6s-4.2,3.2-7.8,4.4c-3.7,1.2-6.4,3-6.4,3h-18.1
				c0,0-7-10.1-7.2-11.6s4.9-11.6,5.9-12.8c1-1.3,2.5,0.4,2.5,0.4s-3,8.9-3.4,10.1c-0.4,1.3,3.5,6.8,4.6,6.8s3.8-0.3,5.1-0.4
				c1.2-0.1,2.5-0.6,2.5-0.6L263.9,125.6z"/>
		</g>
	</g>
	<g>
		<g>
			<path class="st61" d="M271.7,132.3c0,0-2.2,1.5-2.4,4c-0.2,2.5-1,6.5-1.4,7.9s0.4,11.3,0.5,12s-14,2.4-16.2,0.7
				c0,0-0.6-9.2-0.9-11.9c-0.3-2.6-1.5-9-1.9-9.8c-0.4-0.9-5.3-7.7-5.5-8.6c0,0,2.5-4,4.4-4.1c0,0,2.9,3.4,3.8,3.5
				c0.9,0.2,6.7-0.9,6.7-0.9s0.6,0.9,4-0.2c0,0,4,0.4,4.6,0.5c0.8,0.1,6.2-0.7,6.2-0.7s2.2,3.7,1.8,5.6L271.7,132.3z"/>
		</g>
	</g>
	<g>
		<g>
			<path class="st15" d="M281.3,114.8c0,0,0.5-2.3-0.1-3c-0.3-0.4-1.2-1.4-1.2-1.5c-0.1-0.1-0.9-0.7-0.9-0.9c0-0.2,0.9-0.5,1.6,0.1
				c0.7,0.7,1.2,0.8,1.5,0.8c0.3-0.1,0.7-2.5,0.8-3.2c0-0.6,0.3-2.2,0.7-2.1c0.4,0.1,0.4,0.8,0.4,0.8s0.4-1.2,0.7-1
				c0.3,0.2,0.3,0.8,0.3,0.8s0.6-0.7,0.7-0.2s0,0.9,0,0.9s0.6-0.3,0.6,0.5s-0.2,3.1-0.6,3.9s-1.9,3-2.1,3.8
				C283.4,115.4,281.3,114.8,281.3,114.8z"/>
		</g>
	</g>
	<g>
		<g>
			<path class="st15" d="M249.5,110.7c0,0,1.7-2.8,2.3-3.1c0.6-0.3,1.4-0.4,2.1-0.9c0.7-0.5,1.6-0.9,1.6-1.1
				c-0.1-0.2-0.9-0.1-1.8,0.3c-0.9,0.4-1.3,0.2-1.4,0c-0.1-0.2,0.5-1.6,0.7-2c0.3-0.3,2.2-2.3,1.9-2.6c-0.3-0.3-1.6,0.8-1.8,1
				c0,0,1-2.1,0.6-2.2s-1.1,0.6-1.1,0.6s0.1-1.8-1.8,1.1c0,0,0.4-1-0.2-0.6c-0.6,0.3-1.2,2.1-1.3,3c-0.2,0.9-1,3.8-1.7,4.5
				C246.9,109.5,249.5,110.7,249.5,110.7z"/>
		</g>
	</g>
	<g>
		<g>
			<path class="st46" d="M256.1,121.8c0,0,0.9,0.1,2.8-0.6s2-3.9,2.4-3.6c0.8,0.8,1.6,0.2,1.9-0.2c0,0-0.9-1.2-0.5-1.8
				c0.4-0.6,1.1-1,1.1-1s-1.3-6.4-7.4-3.5C249.4,114.6,256.1,121.8,256.1,121.8z"/>
		</g>
	</g>
	<g>
		<g>
			<path class="st61" d="M262.9,125.2l-0.2-0.9c0,0-3.9-0.1-6,0.2l-0.2,1.1C256.5,125.7,259.2,126.9,262.9,125.2z"/>
		</g>
	</g>
	<g>
		<g>
			<path class="st15" d="M261.9,116.9c-0.4-0.6-1.6-1-1.8,0.7c-0.1,1.3,2.3,2.7,2.3,1.5C262.5,117.9,262.2,117.3,261.9,116.9z"/>
		</g>
	</g>
	<g>
		<g>
			<path class="st62" d="M281.4,114.3c0,0,1.4,0,2.1,0.6c0,0,0,0.4-0.1,0.7c0,0-1.2-0.6-2.1-0.7
				C281.3,114.9,281.3,114.4,281.4,114.3z"/>
		</g>
	</g>
	<g>
		<g>
			<path class="st46" d="M283.1,114.6c0.1,0.3,0,0.7-0.3,0.8c-0.3,0.1-0.7,0-0.8-0.3c-0.1-0.3,0-0.7,0.3-0.8
				C282.6,114.2,282.9,114.3,283.1,114.6z"/>
		</g>
	</g>
</g>
<g>
	<g class="st30">
		<path class="st63" d="M161.9,76.3H60c-2.7,0-5-2.2-5-5V26.7c0-2.7,2.2-5,5-5h102c2.7,0,5,2.2,5,5v44.6
			C166.9,74.1,164.7,76.3,161.9,76.3z"/>
	</g>
	<g>
		<g>
			<path class="st64" d="M155.8,43.9h-35.9c-1,0-1.9-0.9-1.9-1.9l0,0c0-1,0.9-1.9,1.9-1.9h35.9c1,0,1.9,0.9,1.9,1.9l0,0
				C157.7,43,156.8,43.9,155.8,43.9z"/>
		</g>
	</g>
	<g>
		<g>
			<path class="st64" d="M155.8,51h-35.9c-1,0-1.9-0.9-1.9-1.9l0,0c0-1,0.9-1.9,1.9-1.9h35.9c1,0,1.9,0.9,1.9,1.9l0,0
				C157.7,50.1,156.8,51,155.8,51z"/>
		</g>
	</g>
	<g>
		<g>
			<path class="st64" d="M155.8,58.1h-35.9c-1,0-1.9-0.9-1.9-1.9l0,0c0-1,0.9-1.9,1.9-1.9h35.9c1,0,1.9,0.9,1.9,1.9l0,0
				C157.7,57.3,156.8,58.1,155.8,58.1z"/>
		</g>
	</g>
	<g>
		<g>
			<g>
				<path class="st64" d="M107.8,41.4c-3.1-8.8-11.7-14.3-20.5-14c-2.1,0.1-4.4,0.5-6.5,1.2c-6.5,2.4-11.2,7.5-13.1,13.7
					c-1.4,4.2-1.4,9,0.2,13.4c0.1,0.5,0.4,0.9,0.5,1.4c0.9,2,2,3.7,3.2,5.2c5.6,6.5,14.7,9.2,23.3,6.2
					C106,64.5,111.7,52.5,107.8,41.4z M93.3,63.5C87,65.8,80,63.8,75.9,58.9c-1-1.1-1.9-2.5-2.5-4c-0.1-0.4-0.2-0.6-0.4-1
					c-1.2-3.4-1.2-6.8-0.2-10.1c1.5-4.6,5-8.5,9.8-10.2c1.6-0.6,3.2-0.9,4.8-0.9c6.7-0.2,13.1,3.9,15.4,10.6
					C105.7,51.5,101.5,60.6,93.3,63.5z"/>
			</g>
		</g>
		<g>
			<g>
				<path class="st65" d="M72.8,43.9l-5.1-1.6c1.9-6.1,6.6-11.3,13.1-13.7c2.1-0.7,4.4-1.1,6.5-1.2l0.1,5.3c-1.6,0-3.2,0.4-4.8,0.9
					C77.6,35.3,74.1,39.3,72.8,43.9z"/>
			</g>
		</g>
		<g>
			<g>
				<path class="st66" d="M73.4,54.8L68.6,57c-0.2-0.4-0.4-0.9-0.5-1.4c-1.6-4.5-1.6-9.2-0.2-13.4l5.1,1.6c-1,3.2-1,6.7,0.2,10.1
					C73,54.2,73.2,54.6,73.4,54.8z"/>
			</g>
		</g>
		<g>
			<g>
				<path class="st67" d="M71.8,62.3c-1.4-1.5-2.5-3.4-3.2-5.2l4.8-2.1c0.6,1.5,1.5,2.7,2.5,4L71.8,62.3z"/>
			</g>
		</g>
	</g>
</g>
</svg>
