<?xml version="1.0" encoding="utf-8"?>
<!-- Generator: Adobe Illustrator 22.0.1, SVG Export Plug-In . SVG Version: 6.00 Build 0)  -->
<svg version="1.1" id="Layer_1" xmlns="http://www.w3.org/2000/svg" xmlns:xlink="http://www.w3.org/1999/xlink" x="0px" y="0px"
	 viewBox="0 0 100 55.2" style="enable-background:new 0 0 100 55.2;" xml:space="preserve">
<style type="text/css">
	.st0{fill:#1266B9;}
	.st1{fill:#FAB400;}
</style>
<g>
	<g>
		<g>
			<path class="st0" d="M10.6,18.1H8.3V8.8h3c1.4,0,2.3,0.2,2.9,0.7c0.7,0.6,1.1,1.4,1.1,2.5c0,1-0.3,1.8-1,2.4
				c-0.6,0.6-1.5,0.8-2.7,0.8h-1C10.6,15.2,10.6,18.1,10.6,18.1z M10.6,10.9v2.2h1c1,0,1.5-0.4,1.5-1.1s-0.5-1.1-1.6-1.1L10.6,10.9
				L10.6,10.9z"/>
		</g>
		<g>
			<path class="st0" d="M21.5,18.1L21,16.8h-3.3l-0.5,1.4h-2.6l3.7-9.4h1.9l3.7,9.4H21.5z M19.4,11.7l-1,3.2h2L19.4,11.7z"/>
		</g>
		<g>
			<path class="st0" d="M29,16.2c1,0,1.8-0.5,2.3-1.6h2.5c-0.2,1.1-0.8,2-1.7,2.7c-0.9,0.7-1.9,1-3,1c-1.4,0-2.6-0.5-3.5-1.4
				c-0.9-0.9-1.4-2.1-1.4-3.5c0-1.4,0.5-2.5,1.4-3.4C26.4,9,27.6,8.5,29,8.5c1.8,0,3.2,0.8,4.2,2.3c0.3,0.5,0.5,1,0.6,1.5h-2.5
				c-0.2-0.5-0.5-0.9-0.9-1.2c-0.4-0.3-0.9-0.5-1.4-0.5c-0.7,0-1.3,0.2-1.8,0.8c-0.5,0.5-0.7,1.2-0.7,1.9c0,0.8,0.2,1.4,0.7,2
				C27.7,15.9,28.3,16.2,29,16.2z"/>
		</g>
		<g>
			<path class="st0" d="M37.4,18.1H35V8.8h2.4V18.1z"/>
		</g>
		<g>
			<path class="st0" d="M41.4,18.1h-2.3V8.8h5.1v2.1h-2.8v1.6h2.7v2.1h-2.7V18.1z"/>
		</g>
		<g>
			<path class="st0" d="M47.9,18.1h-2.4V8.8h2.4L47.9,18.1L47.9,18.1z"/>
		</g>
		<g>
			<path class="st0" d="M54.2,16.2c1,0,1.8-0.5,2.3-1.6H59c-0.2,1.1-0.8,2-1.7,2.7c-0.9,0.7-1.9,1-3,1c-1.4,0-2.6-0.5-3.5-1.4
				c-0.9-0.9-1.4-2.1-1.4-3.5c0-1.4,0.5-2.5,1.4-3.4c0.9-0.9,2.1-1.4,3.5-1.4c1.8,0,3.2,0.8,4.2,2.3c0.3,0.5,0.5,1,0.6,1.5h-2.5
				c-0.2-0.5-0.5-0.9-0.9-1.2c-0.4-0.3-0.9-0.5-1.4-0.5c-0.7,0-1.3,0.2-1.8,0.8c-0.5,0.5-0.7,1.2-0.7,1.9c0,0.8,0.2,1.4,0.7,2
				C52.9,15.9,53.5,16.2,54.2,16.2z"/>
		</g>
		<g>
			<path class="st1" d="M68.5,18.1h-5.2V8.8h5.2v2.1h-2.9v1.4h2.8v2.1h-2.8V16h2.9V18.1z"/>
		</g>
		<g>
			<path class="st1" d="M72.1,18.1h-2.2V8.8H73l1.9,6.2l1.9-6.2h3.1v9.4h-2.2l0.1-7l-2,7h-1.6l-2-7L72.1,18.1z"/>
		</g>
		<g>
			<path class="st1" d="M84,18.1h-2.4V8.8H84V18.1z"/>
		</g>
		<g>
			<path class="st1" d="M91.1,9.6c0.2,0.3,0.4,0.5,0.5,0.8c0.1,0.2,0.1,0.6,0.2,1.1h-2.4c-0.1-0.6-0.4-0.9-0.8-0.9
				c-0.2,0-0.4,0.1-0.6,0.2c-0.2,0.1-0.2,0.3-0.2,0.5c0,0.4,0.3,0.7,0.8,0.9l1.2,0.5c0.8,0.4,1.3,0.7,1.7,1.2
				c0.3,0.4,0.5,0.9,0.5,1.5c0,0.9-0.3,1.6-0.9,2.1c-0.6,0.5-1.4,0.8-2.4,0.8c-1.1,0-1.9-0.3-2.5-0.8c-0.6-0.5-0.9-1.3-0.9-2.2V15
				h2.4c0,0.4,0.1,0.7,0.2,0.9c0.2,0.2,0.4,0.4,0.7,0.4s0.5-0.1,0.7-0.2c0.2-0.2,0.3-0.4,0.3-0.6c0-0.4-0.4-0.7-1-1l-1.1-0.5
				c-0.5-0.2-0.8-0.4-1.1-0.7c-0.6-0.5-0.9-1.2-0.9-1.9s0.3-1.4,0.9-2c0.6-0.5,1.4-0.8,2.3-0.8C89.7,8.6,90.5,8.9,91.1,9.6z"/>
		</g>
	</g>
	<g>
		<g>
			<path class="st1" d="M42.4,35L42.4,35l0.8,0.7l0,0l0,0l0.8,0.7c0.1,0.1,0.2,0.2,0.2,0.2c0.1,0.1,0.2,0.2,0.4,0.4l0,0l0,0
				c0.2,0.2,0.4,0.4,0.6,0.6l0,0l0,0c0.4,0.3,0.8,0.7,1.3,1.1c1,0.7,2,1.3,2.9,1.8c2,1.1,4.2,1.8,6.7,2.3c1.1,0.2,2.3,0.4,3.5,0.5
				c-0.1-0.5-0.2-1-0.3-1.6c-1.5-0.5-2.9-1.2-4.4-1.9c-0.5-0.3-1-0.6-1.4-0.8c-0.5-0.3-0.9-0.6-1.4-0.9c-1.1-0.7-1.9-1.4-2.6-2
				l-2.7-2.6l3.7,1.1c2.1,0.6,4,1.1,5.9,1.5c0.8,0.2,1.6,0.3,2.4,0.5c0-3.8,1-8.1,4.4-10.4c7.3-4.9-8.5-1.4-12,0.6
				c-2.5,1.4-6,3.4-9.3,8.1C42.2,34.9,42.3,34.9,42.4,35L42.4,35z"/>
			<path class="st0" d="M96.9,36.6c-0.5-0.3-0.9-0.5-1.4-0.8c-1-0.5-2-0.8-3.1-1.1s-2.2-0.5-3.3-0.6c-0.3,0-0.6-0.1-0.8-0.1
				c-0.3,0-0.6,0-0.8,0l0,0h-0.8c-0.3,0-0.6,0-0.8,0c-1.1,0-2.2,0.2-3.4,0.4c-1.1,0.2-2.2,0.5-3.3,0.8c-0.5,0.2-1.1,0.4-1.6,0.6
				l-1.4,0.6c-0.8,0.4-1.7,0.6-2.6,0.9s-1.8,0.4-2.7,0.6S69,38.1,68,38.1c-1.1,0.1-2.2,0.1-3.3,0c-0.8,0-1.7-0.1-2.5-0.2
				c-1.1-0.1-2.2-0.3-3.3-0.5c-0.9-0.1-1.8-0.3-2.7-0.5c-2-0.4-4-0.9-6-1.6c0.7,0.7,1.6,1.4,2.5,2c0.4,0.3,0.9,0.6,1.3,0.8
				c0.5,0.3,0.9,0.5,1.4,0.8c1.2,0.6,2.5,1.2,3.7,1.7c0.7,0.3,1.5,0.5,2.3,0.7c2.1,0.6,4.3,0.9,6.5,1.1h0c1.1,0,2.3,0,3.4-0.1
				c1.1-0.1,2.3-0.3,3.4-0.6c1.1-0.3,2.2-0.6,3.3-1.1c0.3-0.1,0.5-0.2,0.8-0.4l0.7-0.3c0.4-0.2,0.8-0.4,1.3-0.6
				c0.9-0.4,1.8-0.7,2.7-0.9s1.8-0.5,2.7-0.7c1.9-0.4,3.8-0.6,5.8-0.7c0.8,0,1.7,0,2.6,0c1.2,0,2.3,0.1,3.6,0.3
				C97.8,37.1,97.3,36.9,96.9,36.6z"/>
			<path class="st0" d="M66.3,45c-0.7,0.1-1.4,0.1-2.1,0.2c-0.9,0.1-1.9,0.1-2.8,0.1c-0.4,0-0.9,0-1.3,0c-1.3,0-2.6-0.1-3.8-0.4
				c-2.5-0.4-4.9-1.1-7-2.1c-1.1-0.5-2.1-1.1-3.1-1.8c-0.5-0.4-1-0.7-1.4-1.1c-0.2-0.2-0.5-0.4-0.7-0.6c-0.2-0.2-0.5-0.4-0.7-0.6
				l-0.8-0.7l-0.8-0.7c0,0-0.1-0.1-0.1-0.1c-0.2-0.2-0.5-0.4-0.7-0.6c-0.3-0.2-0.6-0.5-0.9-0.7c-1.2-0.9-2.5-1.7-3.8-2.5
				c-2.6-1.5-5.5-2.7-8.5-3.4c-2.2-0.6-4.6-0.8-6.9-0.8c-0.7,0-1.5,0-2.2,0.1c-1.5,0.1-3,0.4-4.4,0.8c-0.7,0.2-1.4,0.4-2.1,0.7
				c-0.7,0.3-1.3,0.6-2,1c0.5,0,1,0,1.4,0c0.9,0,1.9,0,2.8,0.1c1.4,0.1,2.7,0.3,4.1,0.6c2.6,0.5,5.1,1.3,7.5,2.4
				c2.3,1,4.6,2.3,6.7,3.7c1.1,0.7,2.1,1.5,3,2.3c0.5,0.4,1,0.8,1.5,1.2l0.7,0.6l0.7,0.7c0.6,0.5,1.2,1,1.8,1.5
				c0.6,0.5,1.3,0.9,1.9,1.4c1.3,0.8,2.8,1.6,4.3,2.1c2.8,1.1,5.9,1.6,8.9,1.6c0.2,0,0.4,0,0.6,0c3.2-0.1,6.2-0.7,9-1.8
				c0.7-0.3,1.4-0.6,2.1-0.9c0.7-0.3,1.3-0.6,2-1c1.3-0.7,2.5-1.5,3.5-2.5c-1.4,0.3-2.8,0.6-4.2,0.8C67.7,44.8,67,44.9,66.3,45z"/>
			<path class="st0" d="M49.8,51.7c-2.3-0.4-4.4-1.1-6.3-2.1c-2-1-3.8-2.2-5.6-3.6c-0.9-0.7-1.7-1.4-2.6-2.2
				c-0.2-0.2-0.4-0.4-0.6-0.6l-0.7-0.6c-0.5-0.5-1-0.9-1.6-1.3c-2.2-1.7-4.6-3.1-7.1-4.1c-2.6-1-5.3-1.7-7.9-2c-2.7-0.3-5.4-0.3-8,0
				c-1.3,0.1-2.6,0.4-3.9,0.7c-1.3,0.3-2.5,0.7-3.7,1.3c1.3,0.2,2.6,0.4,3.8,0.6c1.2,0.2,2.5,0.4,3.6,0.7c2.4,0.5,4.7,1.1,6.9,1.8
				c2.2,0.7,4.3,1.6,6.3,2.6c2,1,3.8,2.2,5.5,3.5c0.4,0.4,0.8,0.7,1.3,1.1L30,48c0.2,0.2,0.5,0.4,0.8,0.6c1,0.8,2.1,1.6,3.2,2.4
				c2.3,1.5,4.8,2.7,7.5,3.4c2.7,0.7,5.6,1,8.4,0.5c1.4-0.2,2.7-0.7,3.9-1.2c0.6-0.3,1.2-0.6,1.8-1c0.5-0.4,1.1-0.8,1.5-1.3
				c-1.3,0.3-2.5,0.5-3.7,0.5C52.1,52,50.9,51.9,49.8,51.7z"/>
		</g>
		<g>
			<polygon class="st0" points="98.2,37.5 98.1,1.7 1.8,1.8 1.8,37.2 0,37.2 0,0 100,0 100,37.5 			"/>
		</g>
	</g>
</g>
</svg>
