<?xml version="1.0" encoding="utf-8"?>
<!-- Generator: Adobe Illustrator 22.0.1, SVG Export Plug-In . SVG Version: 6.00 Build 0)  -->
<svg version="1.1" id="Layer_1" xmlns="http://www.w3.org/2000/svg" xmlns:xlink="http://www.w3.org/1999/xlink" x="0px" y="0px"
	 viewBox="0 0 480 270" style="enable-background:new 0 0 480 270;" xml:space="preserve">
<style type="text/css">
	.st0{fill:#777777;}
	.st1{fill:url(#SVGID_1_);}
	.st2{fill:url(#SVGID_2_);}
	.st3{fill:#FFFFFF;}
	.st4{fill:url(#SVGID_3_);}
	.st5{fill:#536E7A;}
	.st6{fill:url(#SVGID_4_);}
	.st7{fill:url(#SVGID_5_);}
	.st8{fill:url(#SVGID_6_);}
	.st9{fill:#E0E0E0;}
	.st10{fill:#1487E3;}
	.st11{fill:#78C2FF;}
	.st12{fill:#FF8761;}
	.st13{fill:#323657;}
	.st14{fill:url(#SVGID_7_);}
	.st15{fill:url(#SVGID_8_);}
	.st16{fill:url(#SVGID_9_);}
	.st17{fill:url(#SVGID_10_);}
	.st18{fill:url(#SVGID_11_);}
	.st19{fill:url(#SVGID_12_);}
	.st20{fill:url(#SVGID_13_);}
	.st21{fill:url(#SVGID_14_);}
	.st22{fill:url(#SVGID_15_);}
	.st23{fill:url(#SVGID_16_);}
	.st24{fill:url(#SVGID_17_);}
	.st25{fill:url(#SVGID_18_);}
	.st26{fill:url(#SVGID_19_);}
	.st27{fill:url(#SVGID_20_);}
	.st28{fill:url(#SVGID_21_);}
	.st29{fill:url(#SVGID_22_);}
	.st30{fill:url(#SVGID_23_);}
	.st31{fill:url(#SVGID_24_);}
	.st32{fill:#EEA886;}
	.st33{opacity:0.68;fill:url(#SVGID_25_);enable-background:new    ;}
	.st34{fill:#FFC055;}
	.st35{fill:#FFC455;}
	.st36{fill:#202338;}
	.st37{fill:#1C4054;}
	.st38{fill:#518AFA;}
	.st39{fill:#EEA987;}
	.st40{fill:#3D66BA;}
	.st41{fill:#252E3B;}
	.st42{fill:#A77860;}
	.st43{fill:#999999;}
	.st44{fill:#E8E8E8;}
	.st45{fill:#3A3F47;}
	.st46{fill:#0C5087;}
	.st47{fill:#444C94;}
	.st48{fill:#303669;}
	.st49{fill:#316EBF;}
	.st50{fill:#3D6091;}
	.st51{fill:#DE9673;}
	.st52{fill:#EDDAD3;}
	.st53{fill:#5D89C4;}
	.st54{fill:#4C5285;}
	.st55{fill:#F7931E;}
	.st56{fill:#CFBEB8;}
	.st57{fill:url(#SVGID_26_);}
	.st58{fill:url(#SVGID_27_);}
	.st59{fill:url(#SVGID_28_);}
	.st60{fill:url(#SVGID_29_);}
	.st61{fill:url(#SVGID_30_);}
	.st62{fill:url(#SVGID_31_);}
</style>
<g>
	<path class="st0" d="M350.4,84.8l3.1-5.1l3.1-5.1l-4.1-3.6c0.7-2.5,1.1-5.2,1.1-7.7l5-2.3l-1.4-5.7l-1.4-5.7l-5.4,0.3
		c-1.2-2.3-2.7-4.4-4.6-6.3l2-5.2l-5.1-3.1l-5.1-3.1l-3.6,4.1c-2.5-0.7-5.2-1.1-7.7-1.1l-2.3-5l-5.7,1.4l-5.7,1.4l0.2,5.5
		c-2.3,1.2-4.4,2.7-6.3,4.6l-5.2-1.9l-3.1,5.1l-3.1,5.1l4.1,3.6c-0.7,2.5-1.1,5.2-1.1,7.7l-5,2.3l1.4,5.7l1.4,5.7l5.5-0.2
		c1.2,2.3,2.7,4.4,4.6,6.3l-1.9,5.2l5.1,3.1l5.1,3.1l3.6-4.1c2.5,0.8,5.2,1.1,7.7,1.1l2.3,5l5.7-1.4l5.7-1.4l-0.2-5.5
		c2.3-1.2,4.4-2.7,6.3-4.6L350.4,84.8z M343.5,73.7c-5.8,9.8-18.6,13.1-28.5,7.2c-9.8-5.8-13.1-18.6-7.2-28.5
		c5.8-9.8,18.6-13.1,28.5-7.2C346.3,51,349.5,63.8,343.5,73.7z"/>
</g>
<g>
	
		<linearGradient id="SVGID_1_" gradientUnits="userSpaceOnUse" x1="351.696" y1="408.8" x2="382.75" y2="408.8" gradientTransform="matrix(1 0 0 -1 0 440)">
		<stop  offset="0" style="stop-color:#29ABE2"/>
		<stop  offset="1" style="stop-color:#6D64B4"/>
	</linearGradient>
	<path class="st1" d="M382.3,35.1l0.2-2.9l0.2-2.9l-2.6-0.6c-0.2-1.4-0.5-2.5-1.2-3.6l1.6-2.1l-1.8-2.2l-2-2l-2.2,1.3
		c-1-0.7-2.1-1.2-3.3-1.6l-0.4-2.6l-2.7-0.1l-2.9-0.2l-0.6,2.5c-1.4,0.2-2.5,0.5-3.6,1.2l-2.1-1.6l-2.1,1.9l-2.1,1.9l1.3,2.2
		c-0.7,1-1.2,2.1-1.6,3.3l-2.5,0.3l-0.2,2.9l-0.2,2.9l2.5,0.6c0.2,1.4,0.5,2.5,1.2,3.6l-1.5,2l1.9,2.1l1.9,2.1l2.2-1.3
		c1,0.7,2.1,1.2,3.3,1.6l0.4,2.6l2.9,0.2l2.9,0.2l0.6-2.5c1.4-0.2,2.5-0.5,3.6-1.2l2.1,1.6l2.1-1.9l2.1-1.9l-1.3-2.2
		c0.7-1,1.2-2.1,1.6-3.3L382.3,35.1z M377,32c-0.3,5.4-4.9,9.8-10.4,9.4c-5.4-0.3-9.7-4.9-9.4-10.4c0.3-5.4,4.9-9.8,10.4-9.4
		C373.1,21.8,377.4,26.5,377,32z"/>
</g>
<g>
	
		<linearGradient id="SVGID_2_" gradientUnits="userSpaceOnUse" x1="165.2" y1="361.6" x2="321.9" y2="361.6" gradientTransform="matrix(1 0 0 -1 0 610)">
		<stop  offset="0" style="stop-color:#29ABE2"/>
		<stop  offset="1" style="stop-color:#6D64B4"/>
	</linearGradient>
	<polygon class="st2" points="312.1,230.1 243.6,230.1 175,230.1 165.2,266.7 243.6,266.7 321.9,266.7 	"/>
	<path class="st3" d="M176.1,239.8h9c0.4,0,0.7,0.3,0.6,0.6l-0.9,3.9c-0.1,0.2-0.3,0.4-0.6,0.4h-9.1c-0.4,0-0.7-0.3-0.6-0.6l1-3.9
		C175.6,240,175.8,239.8,176.1,239.8z"/>
	<polygon class="st3" points="189.2,239.8 196,239.8 195.1,244.8 188.2,244.8 	"/>
	<polygon class="st3" points="199.4,239.8 206.1,239.8 205.4,244.8 198.5,244.8 	"/>
	<polygon class="st3" points="209.5,239.8 216.3,239.8 215.8,244.8 208.9,244.8 	"/>
	<polygon class="st3" points="219.7,239.8 226.5,239.8 226.2,244.8 219.3,244.8 	"/>
	<polygon class="st3" points="229.9,239.8 236.7,239.8 236.5,244.8 229.6,244.8 	"/>
	<polygon class="st3" points="311.3,239.8 301.1,239.8 302.2,244.8 312.6,244.8 	"/>
	<polygon class="st3" points="297.7,239.8 290.9,239.8 291.8,244.8 298.7,244.8 	"/>
	<polygon class="st3" points="287.5,239.8 280.8,239.8 281.5,244.8 288.4,244.8 	"/>
	<polygon class="st3" points="277.4,239.8 270.6,239.8 271.1,244.8 278,244.8 	"/>
	<polygon class="st3" points="267.2,239.8 260.4,239.8 260.7,244.8 267.7,244.8 	"/>
	<polygon class="st3" points="257,239.8 250.2,239.8 250.4,244.8 257.3,244.8 	"/>
	<polygon class="st3" points="240.1,239.8 246.8,239.8 246.9,244.8 240.1,244.8 	"/>
	<polygon class="st3" points="173.1,248.4 187.3,248.4 186.5,253.5 172.1,253.5 	"/>
	<polygon class="st3" points="313.5,248.4 296,248.4 297,253.5 314.8,253.5 	"/>
	<polygon class="st3" points="292.5,248.4 285.5,248.4 286.3,253.5 293.4,253.5 	"/>
	<polygon class="st3" points="282,248.4 275,248.4 275.6,253.5 282.7,253.5 	"/>
	<polygon class="st3" points="271.5,248.4 264.4,248.4 264.8,253.5 272,253.5 	"/>
	<polygon class="st3" points="260.9,248.4 253.9,248.4 254.1,253.5 261.3,253.5 	"/>
	<polygon class="st3" points="171,257.5 185.5,257.5 184.4,262.5 169.7,262.5 	"/>
	<polygon class="st3" points="189.1,257.5 196.4,257.5 195.5,262.5 188.1,262.5 	"/>
	<polygon class="st3" points="200,257.5 207.2,257.5 254.3,257.5 254.5,262.5 199.2,262.5 	"/>
	<polygon class="st3" points="257.9,257.5 265.2,257.5 265.6,262.5 258.2,262.5 	"/>
	<polygon class="st3" points="268.8,257.5 276,257.5 276.6,262.5 269.3,262.5 	"/>
	<polygon class="st3" points="279.7,257.5 286.9,257.5 287.7,262.5 280.3,262.5 	"/>
	<polygon class="st3" points="290.5,257.5 297.8,257.5 298.8,262.5 291.4,262.5 	"/>
	<polygon class="st3" points="301.4,257.5 315.9,257.5 317.2,262.5 302.4,262.5 	"/>
	<polygon class="st3" points="250.5,248.4 243.5,248.4 243.5,253.5 250.6,253.5 	"/>
	<polygon class="st3" points="239.9,248.4 232.9,248.4 232.7,253.5 239.9,253.5 	"/>
	<polygon class="st3" points="229.4,248.4 222.4,248.4 222,253.5 229.2,253.5 	"/>
	<polygon class="st3" points="218.9,248.4 211.9,248.4 211.3,253.5 218.5,253.5 	"/>
	<polygon class="st3" points="208.4,248.4 201.4,248.4 200.6,253.5 207.8,253.5 	"/>
	<polygon class="st3" points="197.9,248.4 190.9,248.4 189.9,253.5 197,253.5 	"/>
	<polygon class="st3" points="176.4,236.7 177.6,232.3 180.9,232.3 179.8,236.7 	"/>
	<polygon class="st3" points="184.2,232.3 190.8,232.3 189.8,236.7 183.1,236.7 	"/>
	<polygon class="st3" points="194.1,232.3 200.6,232.3 199.9,236.7 193.2,236.7 	"/>
	<polygon class="st3" points="203.9,232.3 210.5,232.3 209.9,236.7 203.2,236.7 	"/>
	<polygon class="st3" points="213.8,232.3 220.4,232.3 220,236.7 213.3,236.7 	"/>
	<polygon class="st3" points="223.7,232.3 230.3,232.3 230,236.7 223.3,236.7 	"/>
	<polygon class="st3" points="233.6,232.3 240.2,232.3 240.1,236.7 233.4,236.7 	"/>
	<polygon class="st3" points="243.4,232.3 250,232.3 250.1,236.7 243.4,236.7 	"/>
	<polygon class="st3" points="253.3,232.3 259.9,232.3 260.2,236.7 253.5,236.7 	"/>
	<polygon class="st3" points="263.2,232.3 269.8,232.3 270.2,236.7 263.5,236.7 	"/>
	<polygon class="st3" points="273.1,232.3 279.7,232.3 280.3,236.7 273.6,236.7 	"/>
	<polygon class="st3" points="283,232.3 289.5,232.3 290.3,236.7 283.6,236.7 	"/>
	<polygon class="st3" points="292.8,232.3 299.4,232.3 300.4,236.7 293.7,236.7 	"/>
	<polygon class="st3" points="302.7,232.3 309.3,232.3 310.4,236.7 303.7,236.7 	"/>
	
		<linearGradient id="SVGID_3_" gradientUnits="userSpaceOnUse" x1="394.5732" y1="341.65" x2="237.8732" y2="341.65" gradientTransform="matrix(1 0 0 -1 0 610)">
		<stop  offset="0" style="stop-color:#29ABE2"/>
		<stop  offset="1" style="stop-color:#6D64B4"/>
	</linearGradient>
	<polygon class="st4" points="321.9,270 165.2,270 165.2,266.7 321.9,266.7 	"/>
</g>
<g>
	<rect x="233.2" y="154.1" class="st5" width="21.6" height="65.5"/>
</g>
<g>
	
		<linearGradient id="SVGID_4_" gradientUnits="userSpaceOnUse" x1="342.7766" y1="484.3" x2="135.8959" y2="484.3" gradientTransform="matrix(1 0 0 -1 0 610)">
		<stop  offset="0" style="stop-color:#29ABE2"/>
		<stop  offset="1" style="stop-color:#6D64B4"/>
	</linearGradient>
	<path class="st6" d="M159.6,191.4h168.9c4.8,0,8.7-3.9,8.7-8.7v-114c0-4.8-3.9-8.7-8.7-8.7H159.6c-4.8,0-8.7,3.9-8.7,8.7v114
		C150.9,187.5,154.8,191.4,159.6,191.4z"/>
</g>
<g>
	
		<linearGradient id="SVGID_5_" gradientUnits="userSpaceOnUse" x1="157.5" y1="493.1" x2="330.3" y2="493.1" gradientTransform="matrix(1 0 0 -1 0 610)">
		<stop  offset="0" style="stop-color:#404B61"/>
		<stop  offset="0.486" style="stop-color:#3C4860"/>
		<stop  offset="1" style="stop-color:#2F3E5C"/>
	</linearGradient>
	<path class="st7" d="M163.6,167.5h160.6c3.3,0,6.1-2.7,6.1-6.1v-89c0-3.3-2.7-6.1-6.1-6.1H163.6c-3.3,0-6.1,2.7-6.1,6.1v89
		C157.5,164.8,160.2,167.5,163.6,167.5z"/>
</g>
<radialGradient id="SVGID_6_" cx="244" cy="390.4716" r="34.3812" gradientTransform="matrix(1 0 0 -1 0 610)" gradientUnits="userSpaceOnUse">
	<stop  offset="0" style="stop-color:#6D64B4"/>
	<stop  offset="1" style="stop-color:#29ABE2"/>
</radialGradient>
<rect x="195.5" y="217.1" class="st8" width="97" height="4.9"/>
<g>
	<rect x="167.4" y="74.2" class="st9" width="19.3" height="2"/>
</g>
<g>
	<rect x="192.2" y="89.1" class="st9" width="14" height="2"/>
</g>
<g>
	<rect x="208.3" y="89.1" class="st10" width="9.3" height="2"/>
</g>
<g>
	<rect x="227.3" y="149" class="st10" width="9.3" height="2"/>
</g>
<g>
	<rect x="167.7" y="126.6" class="st10" width="9.3" height="2"/>
</g>
<g>
	<rect x="219.4" y="89.1" class="st9" width="22.4" height="2"/>
</g>
<g>
	<rect x="167.7" y="119.1" class="st9" width="14.4" height="2"/>
</g>
<g>
	<rect x="206.3" y="134.1" class="st9" width="14.4" height="2"/>
</g>
<g>
	<rect x="260" y="149" class="st9" width="14.4" height="2"/>
</g>
<g>
	<rect x="187.7" y="134.1" class="st9" width="8.8" height="2"/>
</g>
<g>
	<rect x="167.7" y="134.1" class="st10" width="17.4" height="2"/>
</g>
<g>
	<rect x="167.7" y="141.5" class="st9" width="9.6" height="2"/>
</g>
<g>
	<rect x="190.6" y="74.2" class="st11" width="13.7" height="2"/>
</g>
<g>
	<rect x="190.6" y="96.6" class="st10" width="13.7" height="2"/>
</g>
<g>
	<rect x="183.7" y="104" class="st9" width="5.9" height="2"/>
</g>
<g>
	<rect x="177.8" y="111.6" class="st11" width="13.2" height="2"/>
</g>
<g>
	<rect x="193" y="111.6" class="st10" width="18.2" height="2"/>
</g>
<g>
	<rect x="250.6" y="141.5" class="st10" width="18.2" height="2"/>
</g>
<g>
	<rect x="167.7" y="104.1" class="st10" width="13.7" height="2"/>
</g>
<g>
	<rect x="167.7" y="111.6" class="st10" width="8.1" height="2"/>
</g>
<g>
	<rect x="192.3" y="104.1" class="st12" width="7.7" height="2"/>
</g>
<g>
	<rect x="167.9" y="149" class="st12" width="7.7" height="2"/>
</g>
<g>
	<rect x="167.6" y="89.1" class="st11" width="13.7" height="2"/>
</g>
<g>
	<rect x="179.8" y="126.6" class="st11" width="13.7" height="2"/>
</g>
<g>
	<rect x="179.9" y="141.5" class="st11" width="13.7" height="2"/>
</g>
<g>
	<rect x="204.3" y="141.5" class="st11" width="13.7" height="2"/>
</g>
<g>
	<rect x="167.6" y="96.6" class="st11" width="19.6" height="2"/>
</g>
<g>
	<rect x="259.3" y="74.2" class="st11" width="13.7" height="2"/>
</g>
<g>
	<rect x="210.4" y="149" class="st11" width="13.7" height="2"/>
</g>
<g>
	<rect x="277.4" y="74.2" class="st11" width="9.2" height="2"/>
</g>
<g>
	<rect x="308.5" y="81.7" class="st11" width="9.2" height="2"/>
</g>
<g>
	<rect x="208" y="74.2" class="st10" width="17.5" height="2"/>
</g>
<g>
	<rect x="277.4" y="149" class="st10" width="17.5" height="2"/>
</g>
<g>
	<rect x="178.5" y="149" class="st10" width="17.5" height="2"/>
</g>
<g>
	<rect x="276.2" y="81.7" class="st10" width="17.5" height="2"/>
</g>
<g>
	<rect x="254.7" y="89.1" class="st10" width="17.5" height="2"/>
</g>
<g>
	<rect x="239.5" y="149" class="st10" width="17.5" height="2"/>
</g>
<g>
	<rect x="236.8" y="134.1" class="st10" width="17.5" height="2"/>
</g>
<g>
	<rect x="231.9" y="96.6" class="st10" width="17.5" height="2"/>
</g>
<g>
	<rect x="199.2" y="134.1" class="st12" width="3.8" height="2"/>
</g>
<g>
	<rect x="274.4" y="89.1" class="st11" width="12.4" height="2"/>
</g>
<g>
	<rect x="238.4" y="74.2" class="st12" width="17.5" height="2"/>
</g>
<g>
	<rect x="218.5" y="96.6" class="st12" width="10.3" height="2"/>
</g>
<g>
	<rect x="210.4" y="126.7" class="st12" width="10.3" height="2"/>
</g>
<g>
	<rect x="228.7" y="74.2" class="st9" width="6.4" height="2"/>
</g>
<g>
	<rect x="208" y="96.6" class="st9" width="6.4" height="2"/>
</g>
<g>
	<rect x="297.9" y="81.7" class="st9" width="6.4" height="2"/>
</g>
<g>
	<rect x="167.4" y="81.7" class="st10" width="10" height="2"/>
</g>
<g>
	<rect x="194.2" y="119.2" class="st10" width="7.9" height="2"/>
</g>
<g>
	<rect x="179.9" y="81.7" class="st10" width="3.2" height="2"/>
</g>
<g>
	<rect x="246.3" y="81.7" class="st9" width="26.7" height="2"/>
</g>
<g>
	<rect x="220.7" y="141.5" class="st9" width="26.7" height="2"/>
</g>
<g>
	<rect x="185.5" y="81.7" class="st12" width="3.3" height="2"/>
</g>
<g>
	<rect x="235.1" y="81.7" class="st10" width="8.7" height="2"/>
</g>
<g>
	<rect x="243.9" y="89.1" class="st12" width="8.7" height="2"/>
</g>
<g>
	<rect x="224.3" y="134.1" class="st12" width="8.7" height="2"/>
</g>
<g>
	<rect x="198.9" y="149" class="st12" width="8.7" height="2"/>
</g>
<g>
	<rect x="214.2" y="81.7" class="st10" width="18.6" height="2"/>
</g>
<g>
	<rect x="257.5" y="134.1" class="st10" width="18.6" height="2"/>
</g>
<g>
	<rect x="196.9" y="126.7" class="st10" width="10.9" height="2"/>
</g>
<g>
	<rect x="196.2" y="141.5" class="st10" width="5.4" height="2"/>
</g>
<g>
	<rect x="205.1" y="81.7" class="st11" width="6.4" height="2"/>
</g>
<g>
	<rect x="271.2" y="141.5" class="st12" width="6.4" height="2"/>
</g>
<g>
	<rect x="183.6" y="89.1" class="st12" width="6.4" height="2"/>
</g>
<g>
	<rect x="184.9" y="119.2" class="st12" width="6.4" height="2"/>
</g>
<g>
	<rect x="191.5" y="81.7" class="st10" width="11.2" height="2"/>
</g>
<g>
	<g>
		<g>
			<path class="st13" d="M165,156.7L165,156.7L165,156.7z"/>
		</g>
	</g>
</g>
<g>
	
		<linearGradient id="SVGID_7_" gradientUnits="userSpaceOnUse" x1="2258.6484" y1="502.25" x2="2255.7532" y2="502.25" gradientTransform="matrix(-1 0 0 -1 2645.4771 610)">
		<stop  offset="0" style="stop-color:#29ABE2"/>
		<stop  offset="1" style="stop-color:#6D64B4"/>
	</linearGradient>
	<path class="st14" d="M388.1,108.2c-0.2,0-0.6,0-1.1-0.1h-0.2l0.1-0.8h0.2c0.8,0.1,1.5,0.1,2.3,0h0.2l0.1,0.8h-0.2
		c-0.5,0-0.9,0.1-1.1,0.1C388.3,108.2,388.3,108.2,388.1,108.2z"/>
	
		<linearGradient id="SVGID_8_" gradientUnits="userSpaceOnUse" x1="2261.2405" y1="492.4" x2="2253.0798" y2="492.4" gradientTransform="matrix(-1 0 0 -1 2645.4771 610)">
		<stop  offset="0" style="stop-color:#29ABE2"/>
		<stop  offset="1" style="stop-color:#6D64B4"/>
	</linearGradient>
	<rect x="384.2" y="117.2" class="st15" width="8.2" height="0.8"/>
	
		<linearGradient id="SVGID_9_" gradientUnits="userSpaceOnUse" x1="2257.7891" y1="539.8" x2="2256.5313" y2="539.8" gradientTransform="matrix(-1 0 0 -1 2645.4771 610)">
		<stop  offset="0" style="stop-color:#29ABE2"/>
		<stop  offset="1" style="stop-color:#6D64B4"/>
	</linearGradient>
	<rect x="387.7" y="66.5" class="st16" width="1.3" height="7.4"/>
	
		<linearGradient id="SVGID_10_" gradientUnits="userSpaceOnUse" x1="2271.499" y1="537.35" x2="2265.3491" y2="537.35" gradientTransform="matrix(-1 0 0 -1 2645.4771 610)">
		<stop  offset="0" style="stop-color:#29ABE2"/>
		<stop  offset="1" style="stop-color:#6D64B4"/>
	</linearGradient>
	<polygon class="st17" points="374,70.5 374.9,69.6 380.1,74.9 379.2,75.7 	"/>
	
		<linearGradient id="SVGID_11_" gradientUnits="userSpaceOnUse" x1="2248.9771" y1="537.35" x2="2242.8271" y2="537.35" gradientTransform="matrix(-1 0 0 -1 2645.4771 610)">
		<stop  offset="0" style="stop-color:#29ABE2"/>
		<stop  offset="1" style="stop-color:#6D64B4"/>
	</linearGradient>
	<polygon class="st18" points="396.5,74.9 401.8,69.6 402.7,70.5 397.4,75.7 	"/>
	
		<linearGradient id="SVGID_12_" gradientUnits="userSpaceOnUse" x1="2253.7617" y1="503.55" x2="2250.9509" y2="503.55" gradientTransform="matrix(-1 0 0 -1 2645.4771 610)">
		<stop  offset="0" style="stop-color:#29ABE2"/>
		<stop  offset="1" style="stop-color:#6D64B4"/>
	</linearGradient>
	<polygon class="st19" points="393.7,102.1 394.5,102.3 392.5,110.8 391.7,110.6 	"/>
	
		<linearGradient id="SVGID_13_" gradientUnits="userSpaceOnUse" x1="2263.3699" y1="503.55" x2="2260.5591" y2="503.55" gradientTransform="matrix(-1 0 0 -1 2645.4771 610)">
		<stop  offset="0" style="stop-color:#29ABE2"/>
		<stop  offset="1" style="stop-color:#6D64B4"/>
	</linearGradient>
	<polygon class="st20" points="384.9,110.6 384.1,110.8 382.1,102.3 382.9,102.1 	"/>
	
		<linearGradient id="SVGID_14_" gradientUnits="userSpaceOnUse" x1="2274.207" y1="524.95" x2="2258.1069" y2="524.95" gradientTransform="matrix(-1 0 0 -1 2645.4771 610)">
		<stop  offset="0" style="stop-color:#29ABE2"/>
		<stop  offset="1" style="stop-color:#6D64B4"/>
	</linearGradient>
	<path class="st21" d="M371.3,93.1v-0.2c0-8.8,7.1-15.9,15.9-15.9h0.2v0.8h-0.2c-8.3,0-15,6.7-15,15V93L371.3,93.1L371.3,93.1z"/>
	
		<linearGradient id="SVGID_15_" gradientUnits="userSpaceOnUse" x1="2308.2771" y1="506.45" x2="2242.9771" y2="506.45" gradientTransform="matrix(-1 0 0 -1 2645.4771 610)">
		<stop  offset="0" style="stop-color:#29ABE2"/>
		<stop  offset="1" style="stop-color:#6D64B4"/>
	</linearGradient>
	<path class="st22" d="M337.2,82.7v0.8h5.3V101H376c0.2,0.3,0.3,0.5,0.5,0.8c0.2,0.4,4.8,9,5.3,15.3h-1v5.5c0,1.1,0.7,2.1,1.7,2.6
		v0.1c0,0.5,0.2,1,0.6,1.4s0.9,0.6,1.4,0.6h7.7c1.1,0,2-0.9,2-2v-0.1c1-0.4,1.7-1.4,1.7-2.5v-5.5h-1c0.5-6.4,5.3-15.3,5.3-15.4
		c1.5-2.3,2.3-5,2.3-7.8c0-7.8-6.4-14.2-14.2-14.2s-14.2,6.4-14.2,14.2c0,2.1,0.5,4.2,1.4,6.1h-32.2V82.7H337.2z M379.3,99.7
		c0.5,0,0.9,0.4,0.9,0.9s-0.4,0.9-0.9,0.9s-0.9-0.4-0.9-0.9S378.8,99.7,379.3,99.7z M376.5,100.2c-1-1.9-1.5-4-1.5-6.1
		c0-7.3,6-13.3,13.3-13.3s13.3,6,13.3,13.3c0,2.6-0.8,5.1-2.2,7.3c0,0.1-5.1,9.5-5.5,16.3v0.4h1.1v4.6c0,0.9-0.6,1.6-1.4,1.8
		l-0.3,0.1v0.7c0,0.6-0.5,1.1-1.1,1.1h-7.7c-0.6,0-1.1-0.5-1.1-1.1v-0.7l-0.3-0.1c-0.8-0.2-1.4-1-1.4-1.8v-4.6h1v-0.4
		c-0.3-6.6-5.2-15.8-5.4-16.2l0,0c-0.1-0.1-0.2-0.2-0.2-0.4h0.7c0.2,0.8,0.9,1.3,1.7,1.3c1,0,1.7-0.8,1.7-1.7c0-1-0.8-1.7-1.7-1.7
		c-0.8,0-1.5,0.5-1.7,1.3h-1.3V100.2z"/>
</g>
<g>
	
		<linearGradient id="SVGID_16_" gradientUnits="userSpaceOnUse" x1="629.8115" y1="463.05" x2="632.7067" y2="463.05" gradientTransform="matrix(1 0 0 -1 -531.4385 610)">
		<stop  offset="0" style="stop-color:#29ABE2"/>
		<stop  offset="1" style="stop-color:#6D64B4"/>
	</linearGradient>
	<path class="st23" d="M100,147.4c0.2,0,0.6,0,1.1-0.1h0.2l-0.1-0.8H101c-0.8,0.1-1.5,0.1-2.3,0h-0.2l-0.1,0.8h0.2
		c0.5,0,0.9,0.1,1.1,0.1C99.8,147.4,99.8,147.4,100,147.4z"/>
	
		<linearGradient id="SVGID_17_" gradientUnits="userSpaceOnUse" x1="627.1385" y1="453.2" x2="635.2992" y2="453.2" gradientTransform="matrix(1 0 0 -1 -531.4385 610)">
		<stop  offset="0" style="stop-color:#29ABE2"/>
		<stop  offset="1" style="stop-color:#6D64B4"/>
	</linearGradient>
	<rect x="95.7" y="156.4" class="st24" width="8.2" height="0.8"/>
	
		<linearGradient id="SVGID_18_" gradientUnits="userSpaceOnUse" x1="630.5895" y1="500.6" x2="631.8474" y2="500.6" gradientTransform="matrix(1 0 0 -1 -531.4385 610)">
		<stop  offset="0" style="stop-color:#29ABE2"/>
		<stop  offset="1" style="stop-color:#6D64B4"/>
	</linearGradient>
	<rect x="99.2" y="105.7" class="st25" width="1.3" height="7.4"/>
	
		<linearGradient id="SVGID_19_" gradientUnits="userSpaceOnUse" x1="639.4074" y1="498.15" x2="645.5573" y2="498.15" gradientTransform="matrix(1 0 0 -1 -531.4385 610)">
		<stop  offset="0" style="stop-color:#29ABE2"/>
		<stop  offset="1" style="stop-color:#6D64B4"/>
	</linearGradient>
	<polygon class="st26" points="114.1,109.7 113.2,108.8 108,114 108.9,114.9 	"/>
	
		<linearGradient id="SVGID_20_" gradientUnits="userSpaceOnUse" x1="616.8796" y1="498.15" x2="623.0295" y2="498.15" gradientTransform="matrix(1 0 0 -1 -531.4385 610)">
		<stop  offset="0" style="stop-color:#29ABE2"/>
		<stop  offset="1" style="stop-color:#6D64B4"/>
	</linearGradient>
	<polygon class="st27" points="91.6,114 86.3,108.8 85.4,109.7 90.7,114.9 	"/>
	
		<linearGradient id="SVGID_21_" gradientUnits="userSpaceOnUse" x1="625.0092" y1="464.4" x2="627.8199" y2="464.4" gradientTransform="matrix(1 0 0 -1 -531.4385 610)">
		<stop  offset="0" style="stop-color:#29ABE2"/>
		<stop  offset="1" style="stop-color:#6D64B4"/>
	</linearGradient>
	<polygon class="st28" points="94.4,141.3 93.6,141.5 95.6,149.9 96.4,149.8 	"/>
	
		<linearGradient id="SVGID_22_" gradientUnits="userSpaceOnUse" x1="634.6174" y1="464.4" x2="637.4282" y2="464.4" gradientTransform="matrix(1 0 0 -1 -531.4385 610)">
		<stop  offset="0" style="stop-color:#29ABE2"/>
		<stop  offset="1" style="stop-color:#6D64B4"/>
	</linearGradient>
	<polygon class="st29" points="103.2,149.8 104,149.9 106,141.5 105.2,141.3 	"/>
	
		<linearGradient id="SVGID_23_" gradientUnits="userSpaceOnUse" x1="632.1761" y1="485.75" x2="648.2761" y2="485.75" gradientTransform="matrix(1 0 0 -1 -531.4385 610)">
		<stop  offset="0" style="stop-color:#29ABE2"/>
		<stop  offset="1" style="stop-color:#6D64B4"/>
	</linearGradient>
	<path class="st30" d="M116.8,132.3v-0.2c0-8.8-7.1-15.9-15.9-15.9h-0.2v0.8h0.2c8.3,0,15,6.7,15,15v0.2h0.9V132.3z"/>
	
		<linearGradient id="SVGID_24_" gradientUnits="userSpaceOnUse" x1="617.0385" y1="467.25" x2="682.3385" y2="467.25" gradientTransform="matrix(1 0 0 -1 -531.4385 610)">
		<stop  offset="0" style="stop-color:#29ABE2"/>
		<stop  offset="1" style="stop-color:#6D64B4"/>
	</linearGradient>
	<path class="st31" d="M144.8,121.9v17.4h-32.2c0.9-1.9,1.4-4,1.4-6.1c0-7.8-6.4-14.2-14.2-14.2s-14.2,6.4-14.2,14.2
		c0,2.8,0.8,5.5,2.3,7.8c0,0.1,4.8,9,5.3,15.4h-1v5.5c0,1.1,0.7,2.1,1.7,2.5v0.1c0,1.1,0.9,2,2,2h7.7c0.5,0,1-0.2,1.4-0.6
		c0.4-0.4,0.6-0.9,0.6-1.4v-0.1c1-0.4,1.7-1.4,1.7-2.6v-5.5h-1c0.5-6.3,5.1-15,5.3-15.3c0.2-0.3,0.3-0.5,0.5-0.8h33.5v-17.4h5.3V122
		L144.8,121.9L144.8,121.9z M109.7,139.8c0,0.5-0.4,0.9-0.9,0.9s-0.9-0.4-0.9-0.9s0.4-0.9,0.9-0.9
		C109.3,138.9,109.7,139.3,109.7,139.8z M110.5,139.3c-0.2-0.8-0.9-1.3-1.7-1.3c-1,0-1.7,0.8-1.7,1.7c0,1,0.8,1.7,1.7,1.7
		c0.8,0,1.5-0.5,1.7-1.3h0.7c-0.1,0.1-0.1,0.2-0.2,0.4l0,0c-0.2,0.4-5.1,9.5-5.4,16.2v0.4h1v4.6c0,0.9-0.6,1.6-1.4,1.8l-0.3,0.1v0.7
		c0,0.6-0.5,1.1-1.1,1.1h-7.7c-0.6,0-1.1-0.5-1.1-1.1v-0.7l-0.3-0.1c-0.8-0.2-1.4-1-1.4-1.8v-4.6h1.1v-0.4
		c-0.3-6.7-5.4-16.2-5.5-16.3c-1.4-2.2-2.2-4.7-2.2-7.3c0-7.3,6-13.3,13.3-13.3s13.3,6,13.3,13.3c0,2.1-0.5,4.2-1.5,6.1h-1.3V139.3z
		"/>
</g>
<g>
	<path class="st32" d="M355.7,161.5c0,0-0.4-1.7,0-2.5c0.5-0.8,0.8-1.9,0.9-2.4s1-2,0.3-2.1c-0.6,0-1.6,2.5-1.9,3s-1.1-1.7-1.6-1.9
		s-4.4,1.8-3.7,3.2s2.6,2.4,2.7,2.7s0.5,1.1,0.5,1.1L355.7,161.5z"/>
	<path class="st32" d="M353.7,156c0,0-2.6-4.3-3.1-4.4c-0.4-0.1-0.6,0.1-0.4,0.5s2.4,4.2,2.4,4.2s-4.1-4.4-4.4-4.5
		c-0.2-0.1-0.6,0.2-0.6,0.4c0.1,0.2,3.9,4.8,3.9,4.8s-3.8-4.1-4.1-4.2c-0.3,0-0.6,0.3-0.4,0.6s3.5,4.4,3.5,4.4s-3-2.8-3.3-2.7
		c-0.2,0.1-0.6,0.3,0.1,1.1c0.8,0.6,2.5,2.6,2.5,2.6L353.7,156z"/>
	
		<linearGradient id="SVGID_25_" gradientUnits="userSpaceOnUse" x1="305.3" y1="463.5" x2="424.7464" y2="463.5" gradientTransform="matrix(1 0 0 -1 0 610)">
		<stop  offset="0" style="stop-color:#343D4F"/>
		<stop  offset="0.4581" style="stop-color:#30394C"/>
		<stop  offset="0.9513" style="stop-color:#232D41"/>
		<stop  offset="1" style="stop-color:#212B40"/>
	</linearGradient>
	<path class="st33" d="M419.3,159.5H310.9c-3.1,0-5.6-2.5-5.6-5.6v-14.8c0-3.1,2.5-5.6,5.6-5.6h108.4c3.1,0,5.6,2.5,5.6,5.6v14.8
		C424.9,157,422.3,159.5,419.3,159.5z"/>
	<g>
		<g>
			<rect x="311.8" y="141.6" class="st9" width="19.3" height="1.9"/>
		</g>
		<g>
			<rect x="334.9" y="141.6" class="st9" width="13.8" height="1.9"/>
		</g>
		<g>
			<rect x="334.9" y="149.1" class="st9" width="12.8" height="1.9"/>
		</g>
		<g>
			<rect x="403.6" y="141.6" class="st11" width="13.8" height="1.9"/>
		</g>
		<g>
			<rect x="352.3" y="141.6" class="st10" width="17.5" height="1.9"/>
		</g>
		<g>
			<rect x="382.8" y="141.6" class="st34" width="17.5" height="1.9"/>
		</g>
		<g>
			<rect x="373" y="141.6" class="st9" width="6.4" height="1.9"/>
		</g>
		<g>
			<rect x="311.8" y="149.1" class="st11" width="10" height="1.9"/>
		</g>
		<g>
			<rect x="324.2" y="149.1" class="st10" width="3.2" height="1.9"/>
		</g>
		<g>
			<rect x="390.6" y="149.1" class="st9" width="26.8" height="1.9"/>
		</g>
		<g>
			<rect x="329.9" y="149.1" class="st35" width="3.3" height="1.9"/>
		</g>
		<g>
			<rect x="379.5" y="149.1" class="st10" width="8.7" height="1.9"/>
		</g>
		<g>
			<rect x="358.5" y="149.1" class="st11" width="18.6" height="1.9"/>
		</g>
		<g>
			<rect x="349.5" y="149.1" class="st9" width="6.4" height="1.9"/>
		</g>
	</g>
	<path class="st36" d="M352.6,249.5c0,0-2.6,2.6-4.7,2.8c-2.1,0.3-4.7,1.1-4.9,2.7c-0.3,1.6,6.4,3.3,9.1,2c4-1.9,5-1.2,5.7-2.4
		c0.6-1.2,0.5-5.3,0.5-5.6C358.4,248.8,352.6,249.5,352.6,249.5z"/>
	<path class="st36" d="M397.2,242.3c0,0-0.8,3.4-2.4,4.8c-1.6,1.3-3.2,3.3-2.6,4.8c0.6,1.6,6.3,1.4,8.4-2.8c1.3-2.6,2.8-3.1,2.7-4.4
		c-0.1-1.3-2.1-4.2-2.3-4.5C400.9,239.9,397.2,242.3,397.2,242.3z"/>
	<path class="st37" d="M369.7,192.7c0,0-8.7,18-10.6,22.6c-1.8,4.2-3.7,11.8-4,14.8c-0.3,3.8-3.9,18.9-4.1,20.1
		c-0.2,1.1,7.6,0.4,7.6,0.4s6.8-25.9,8.6-29.7c1.2-2.5,10.2-18.8,11.1-17.7c0.8,1,5.7,13.2,6.2,16.1s11.7,24.7,11.7,24.7
		s5.2-0.4,6.2-2.4c0,0-8.3-22-9.2-26.1c-0.4-2-2.1-14.9-4.4-24.8C387.6,185.7,369.7,192.7,369.7,192.7z"/>
	<path class="st38" d="M391.7,165.2c0,0-3,9-2.9,11.2C388.8,178.5,387.1,165.8,391.7,165.2z"/>
	<g>
		<g>
			<g>
				<g>
					<path class="st38" d="M370.4,168.5c0,0-0.3,1.3-1.1,2.7l0,0c-0.2,0.5-0.5,1.1-0.9,1.7c-0.1,0.1-0.1,0.2-0.2,0.3
						c-0.2,0.4-0.5,0.8-0.8,1.1c-0.9,1.1-1.9,1.9-3.2,2c-2.6,0.2-11.7-13.9-11.7-13.9l4.4-2c0,0,5.8,8.4,6.8,8
						c0.9-0.4,1.8-3.9,1.8-3.9c1.1-0.5,2.7,1.1,3.8,2.4c0.1,0.1,0.1,0.2,0.2,0.2C370.1,168,370.4,168.5,370.4,168.5z"/>
				</g>
			</g>
		</g>
	</g>
	<g>
		<g>
			<g>
				<g>
					<path class="st38" d="M389.2,192.3c-4.9,4.4-20.8,3-20.8,3c0.2-0.5,1.8-17.1,1.3-20.8s-0.2-6.9-0.8-7.1
						c-0.5-0.1-3.9-1.3-3.9-1.3s1.8-5.8,2.6-7c0.8-1.3,6.2-3.1,6.2-3.1s4.2-1.5,8.7-1c7.5,0.9,8.4,3.1,8.4,3.1l-1.7,11.2
						c0,0,0,0,0,0.1c0,0.2,0,0.9-0.1,1.7c-0.1,3.5-0.4,11.3-0.4,13.1C388.6,186.9,389.2,192.3,389.2,192.3z"/>
				</g>
			</g>
		</g>
	</g>
	<g>
		<g>
			<g>
				<g>
					<path class="st39" d="M383.8,155.1c-0.3,0.5-0.6,1.1-1,1.5c-2.4,3-5,2.9-5,2.9c-1.6-0.1-2.6-1.2-3-2.1
						c-0.4-0.9-0.5-1.6-0.5-1.6l1-0.3c0.1-0.2,0.1-0.6,0.1-1c0-0.2,0-0.4,0-0.6c0-0.2,0-0.4,0-0.6c0-0.1,0-0.1,0-0.2
						c0-0.9-0.1-1.5-0.1-1.5s7.1-3.9,6.6-1.2c-0.2,1.3-0.2,2.3,0,2.9c0.2,0.9,0.6,1.4,1,1.5C383.3,154.9,383.8,155.1,383.8,155.1z"
						/>
				</g>
			</g>
		</g>
	</g>
	<path class="st32" d="M363.3,160.6c0,0-0.4-0.3-0.4-0.8c-0.1-0.8,0.6-1.6-0.2-2.3c-0.9-0.6-3.8,1.4-4.1,1.9c-0.3,0.6,0.5,1.8,2.5,3
		C363,163.6,363.3,160.6,363.3,160.6z"/>
	<path class="st32" d="M363,157.7c0,0-0.6-1.4-1.6-2.8c-0.9-1.3-2-2.6-2.4-2.4c-0.4,0.3,0.6,1.3,1.4,2.6c0.6,1.2,0.3,1.1,0.3,1.1
		s0.1,0-1-1.2c-1.1-1.3-2.5-2.6-2.8-2.4c-0.2,0.2-0.2,0.2,0.1,0.8c-0.2-0.2-0.3-0.2-0.5-0.1c-0.6,0.5,0.6,2.6,1.2,3.4
		c-0.4-0.6-0.8-1.1-1-0.5s1.7,3.5,2.4,4.6C359.8,162.1,363,157.7,363,157.7z"/>
	<g>
		<path class="st38" d="M391.5,166.5c3.2-3.9-0.8-8.8-0.8-8.8c-2.4-2-7.5,6.4-8.2,7.2c-0.6,0.9-5.6,5.3-7,6.7
			c-0.8,0.8-3.7-2.5-5-3.8c-0.9-0.8-7.1-8.2-7.1-8.2s-4.4,3.1-4,2.9c0.3-0.2,12.9,16.1,15.3,16.2
			C374.7,178.8,383.8,175.9,391.5,166.5z"/>
	</g>
	<path class="st40" d="M368.5,172.9c-0.1,0.1-0.1,0.2-0.2,0.3c-0.2,0.4-0.5,0.8-0.8,1.1c-0.6-0.8-2.9-5.9-2.9-6L368.5,172.9z"/>
	<path class="st40" d="M388.1,170.3c0,0-4.1,3.7-6.2,4.9c-2.1,1.3-5.8,3.1-6.2,3.3C375.6,178.6,385.1,176.7,388.1,170.3z"/>
	<g>
		<path class="st32" d="M371.5,141.5c0,0-1.5,2.9-0.8,3.3c0.6,0.3-0.8,3.2-1,3.7c-0.2,0.4,1.2,0.8,1.4,1.1c0.3,0.3,1.1,4,2.1,4.1
			s6-1.6,7.3-3s2.5-7.6,1.5-10.3C381.4,137.5,374.3,136.4,371.5,141.5z"/>
	</g>
	<g>
		<path class="st41" d="M371.2,142c0,0-1.6-3.1,1.3-5.4c2.9-2.3,8.2,1.7,8.7,1.9c0.6,0.1,4,0.4,2.3,6.3c-1.5,5-1.6,5.3-1.6,5.3
			s-1.1-2.9-1.7-3.4c-1-0.8-3.1-0.5-3.1-0.5s1-2.7-0.5-3C374.9,142.7,372.8,141.5,371.2,142z"/>
	</g>
	<g>
		<path class="st32" d="M378.7,144.7c0.1-0.3,0.5-1.9,1.9-1c1.4,1-0.9,3.9-1.1,4C379.3,147.7,377.5,147.8,378.7,144.7z"/>
	</g>
	<path class="st42" d="M380.6,150.6c0,0-1.2,2.3-5.3,3.8c0-0.2,0-0.4,0-0.6c0-0.2,0-0.4,0-0.6C375.4,153.1,378.6,152.2,380.6,150.6z
		"/>
</g>
<g>
	<g>
		<path class="st43" d="M230.3,97.9c0,0,0.3,2.4,0.7,3.4c0.4,1.1,2.5,3.5,1.6,5.8c-1,2.5-5.2,0.1-6.9-0.7c-1.7-0.8-1.3-2.2-1.5-3.9
			c-0.2-1.7-1-1.8-0.7-3s2.2-3.5,2.2-3.5L230.3,97.9z"/>
	</g>
	<g>
		<g>
			<path class="st32" d="M226.5,94.8c0,0-1.1,1.5-1,1.5c0,0,4.6,2.8,4.9,1.9c0.3-0.7,0.4-1.8,0.4-1.8L226.5,94.8z"/>
		</g>
	</g>
	<g>
		<path class="st43" d="M210.9,99.6c0,0-1.4,1.2-2.6,3.1c-1.3,1.9-4.6,2-4.7,4.5c-0.1,2.6,4.5,2.6,7,1.8c2.4-0.8,2.8-3.3,4.3-4
			c1.5-0.6,2.2-1.1,2.1-2.4c-0.1-1.2-0.9-3.2-0.9-3.2s-0.9,0.3-1.5,0.4S212.2,99.9,210.9,99.6z"/>
	</g>
	<g>
		<path class="st10" d="M227.7,30c0,0-0.9,5.6-1.7,9.3l0,0c-0.3,1.5-0.6,2.7-0.8,3.1c-0.2,0.5-2,2.4-4.1,4.6
			c-3.8,3.9-8.8,8.8-8.8,8.8l-2-3.7c0,0,4.4-5.2,7.5-8.7c1.4-1.6,2.5-2.8,2.7-3c0.6-0.6,1.4-6.1,2.4-10.7s3.1-7.1,3.1-7.1L227.7,30z
			"/>
	</g>
	<g>
		<path class="st32" d="M221.2,46.9c-3.8,3.9-8.8,8.8-8.8,8.8l-2-3.7c0,0,4.4-5.2,7.5-8.7C218.8,43.8,220.5,44.9,221.2,46.9z"/>
	</g>
	<g>
		<path class="st32" d="M211.2,97.8l-0.2,1.7c0,0,2.4,0.9,5.1-0.1l0.1-1.5L211.2,97.8z"/>
	</g>
	<g>
		<path class="st10" d="M245.6,55c0.1,0.5-25.7,0-25.7,0s7.2-5.2,7.6-6.6c0.5-1.4-1.8-9.7-2.1-12.5c-0.2-2.2-0.8-11.9,0.6-13.4
			c1.5-1.6,6.9-3.2,6.9-3.2l7.9,0.3c0,0,1.3,0.3,2.2,0.7c0.9,0.4,6.2,2.3,7.1,5c0.9,2.7-5.3,11.2-5.3,11.2s0,0.4,0,1l0,0
			c0,0.8-0.1,2.1-0.1,3.5c0,1.8-0.1,3.8-0.1,5.2C244.6,49.6,245.5,54.5,245.6,55z"/>
	</g>
	<g>
		<path class="st44" d="M245.6,55c0,0,3.5,5.2,3.6,8.7c0,3.5-6.2,15.3-7.2,17c-2.9,5.1-10.7,16-10.7,16s-1.4,0-5.6-1.7
			c0,0,5.2-14.5,5.9-16c2.8-6.4,4.4-10.9,3.4-12c-0.9-1.1-3.5-2.2-4.3-2.8c-0.7-0.6-13.7,2.5-15.1,2.8c-3.5,0.9-1.9,7-1.1,9.8
			c1.3,4.6,2.4,21.2,2.4,21.2s-2.5,1.1-6.7,0.2c0,0-8.3-30-8.5-33c-0.3-3-0.4-7.9,19.9-11.6L245.6,55z"/>
	</g>
	<g>
		<path class="st32" d="M235.1,2.3c0,0-6.8-1.5-5.3,7c1.6,8.6,3.2,9.3,7.3,7.5s3.7-7.3,4-10C241.3,4.1,237.2,2.4,235.1,2.3z"/>
	</g>
	<g>
		<path class="st32" d="M233.3,21.6c0,0,3,3.2,7.8,0.3c0,0-1.1-6.9-0.5-10.3s-6.2,5.2-6.2,5.2c0.1,0,0.1,0.4,0.2,0.8
			c0,0.4,0,0.9-0.1,1.4C234.3,20.1,233.9,21.3,233.3,21.6z"/>
	</g>
	<g>
		<path class="st45" d="M240.7,11.2c0,0-0.2-2.7-1.2-2.8s-1.1,1-1.1,1l-1,0.2c0,0,0.3-2.4-0.7-2.8s-6.4,1.3-7.2,0.6s-0.4-5.5,1-6.2
			s5.4-2.1,8.3-0.2c0,0,2.3-0.3,2.6,1.6C241.8,4.5,241.4,9.9,240.7,11.2z"/>
	</g>
	<g>
		<path class="st42" d="M234.4,19c4.9-1.5,5.3-4.5,5.3-4.5c-1.6,2.8-5.2,3.2-5.2,3.2C234.5,18,234.5,18.5,234.4,19z"/>
	</g>
	<g>
		<path class="st32" d="M243.1,20.4c0,0-3.6,7.2-9.4,6.7c-5.8-0.5-1-7.7-0.7-7.8C233.2,19.3,238.9,17.9,243.1,20.4z"/>
	</g>
	<g>
		<path class="st10" d="M217,54.6c0,0,17.9,2.2,28.7,0.4L225,52.4C225,52.4,224.8,52.9,217,54.6z"/>
	</g>
	<g>
		<path class="st32" d="M230.3,51.6l-1.3,0.7c0,0,0.3,2.1,1,2.8l1.5-0.4C231.5,54.6,231.2,52.3,230.3,51.6z"/>
	</g>
	<g>
		<path class="st10" d="M251,47.3c-0.3,0.3-3.8,1.7-7.7,3.2l0,0c-5.4,2.1-11.5,4.1-11.5,4.1l-1.4-3c0,0,6.4-3.5,10.7-5.9
			c2-1.2,3.6-2.1,3.8-2.3c0.7-0.7,0.9-1.7,0.4-3.6c-0.5-1.9-1.7-10.4-1.8-11.4s0.3-3.6,2.8-3.8c2.5-0.1,3.7,0.6,3.7,0.6
			s0.6,0.3,1.1,6.3S251.6,46.5,251,47.3z"/>
	</g>
	<g>
		<path class="st46" d="M244.8,37.5L244.8,37.5c0,0.8-0.1,2.1-0.1,3.5c-2.4-5.9-1-10.7-1-10.8C243.4,31.8,244.7,37.4,244.8,37.5z"/>
	</g>
	<g>
		<path class="st46" d="M226,39.3L226,39.3c-0.3,1.5-0.6,2.7-0.8,3.1c-0.8-4-0.1-9.1-0.1-9.1C225.3,35.7,226,39.3,226,39.3z"/>
	</g>
	<g>
		<path class="st32" d="M243.2,50.5L243.2,50.5c-5.4,2.1-11.7,4.1-11.7,4.1l-1.2-3c0,0,6.4-3.5,10.7-5.9
			C241,45.7,242.6,46.4,243.2,50.5z"/>
	</g>
	<g>
		<polygon class="st47" points="229.9,54.8 204.5,54.4 217.4,60.9 		"/>
	</g>
	<g>
		<polygon class="st48" points="217.4,60.9 229.9,56.1 229.9,54.8 216.4,59.7 		"/>
	</g>
	<g>
		<g>
			<path class="st32" d="M229.3,52.3c0,0-1.6-0.2-2.7-0.5c-0.8-0.2-3,0.1-3.5,0.6s-2.2,4.3-2.6,4.6c-0.3,0.2,0.2,0.8,0.7,0.5
				c0,0,0.5,1.7,1.8,1c1.3-0.6,2.2-2,2.8-2.2c0.7-0.2,4.6-1.4,4.6-1.4S230.3,51.9,229.3,52.3z"/>
		</g>
	</g>
	<g>
		<g>
			<path class="st32" d="M223.5,52.2c0,0-1,0.5-1.3,0.7s-1.3,1-1.6,1.2s0.4,0.7,2.3-0.1C224.8,53.2,223.5,52.2,223.5,52.2z"/>
		</g>
	</g>
	<g>
		<polygon class="st48" points="217.4,60.9 209.8,40.3 185.5,40.7 192.7,59.7 		"/>
	</g>
	<g>
		<path class="st38" d="M202,49.4c0.7,1.5,0.5,3.1-0.5,3.6s-2.4-0.3-3.2-1.8c-0.7-1.5-0.5-3.1,0.5-3.6C199.9,47.2,201.3,48,202,49.4
			z"/>
	</g>
	<g>
		<path class="st32" d="M238.5,8.3c0.1-0.8,1.6-1,1.7,0.1c0.1,1.1-0.7,3.1-1.2,2.9C238.3,11.2,238.3,9.4,238.5,8.3z"/>
	</g>
</g>
<g>
	<g>
		<polygon class="st49" points="116.7,17.1 171.9,17.1 171.9,44 171.9,49.5 163.5,44 116.7,44 		"/>
	</g>
	<path class="st3" d="M126.3,25.5v-0.1c0-0.5,0.5-1,1-1h37.2c0.5,0,1,0.5,1,1v0.1c0,0.5-0.5,1-1,1h-37.3
		C126.8,26.3,126.3,25.8,126.3,25.5z"/>
	<path class="st3" d="M130.1,30.6L130.1,30.6c0-0.6,0.5-1.1,1-1.1h33.4c0.5,0,1,0.5,1,1v0.1c0,0.5-0.5,1-1,1h-33.4
		C130.6,31.4,130.1,30.9,130.1,30.6z"/>
	<path class="st3" d="M138.2,35.8L138.2,35.8c0-0.6,0.5-1.1,1-1.1h25.3c0.5,0,1,0.5,1,1v0.1c0,0.5-0.5,1-1,1h-25.3
		C138.7,36.6,138.2,36.4,138.2,35.8z"/>
</g>
<g>
	<path class="st32" d="M173.7,196.5c0,0,1.3,0.6,2,0.3c0.6-0.3,1.6-0.3,1.9-0.3c0.4,0,1.7-0.5,1.7,0s-2.1,0.9-2.5,1
		c-0.4,0.2,1.3,1.1,1.4,1.5c0.2,0.4-1.8,3.2-2.9,2.4c-1.1-0.8-1.7-2.3-1.9-2.4c-0.2-0.1-0.8-0.5-0.8-0.5L173.7,196.5z"/>
	<path class="st32" d="M178,198.9c0,0,3.2,2.6,3.2,3s-0.1,0.5-0.4,0.3c-0.3-0.2-3.1-2.4-3.1-2.4s3.2,3.7,3.3,4
		c0.1,0.2-0.2,0.5-0.4,0.4s-3.5-3.6-3.5-3.6s2.9,3.5,3,3.8c0,0.2-0.3,0.5-0.6,0.2c-0.2-0.2-3.2-3.3-3.2-3.3s2,2.7,1.9,2.9
		c-0.1,0.1-0.3,0.4-0.8-0.3s-1.8-2.3-1.8-2.3L178,198.9z"/>
	<path class="st50" d="M151.9,253.4c0,0-0.1,4.3,0.5,4.6c0.6,0.3,2.9-1.2,4-2.7c1-1.5-1.3-4.9-1.7-6.8c-0.2-0.8-2-2.2-2.8-1.8
		c-0.9,0.4-1.5,1.5-1.5,1.5S152.6,249.6,151.9,253.4z"/>
	<g>
		<path class="st51" d="M150.3,248c0,0,0.8,1.5,1.2,2.6s0.5,4.3,0.7,4.5s2.2-0.8,2.5-1.9c0.3-1.2-0.5-3.5-1.3-4.8
			c-0.8-1.2-1.5-1.9-1.5-1.9S150.5,246.8,150.3,248z"/>
	</g>
	<polygon class="st50" points="154.7,248.4 156.8,251.4 156.4,251.7 154.8,249.3 	"/>
	<path class="st51" d="M142.8,220.4c0,0,1.2,6.3,1.2,7.8s0.4,4,1.4,5.8s5.2,14.3,5.5,15.8c0.4,1.5,0.7,2.8,0.7,2.8s2.1-1,2.1-2.3
		c0-1.4-1.8-12.7-2.2-15c-0.3-2.2-3-13.7-3-13.7L142.8,220.4z"/>
	<path class="st32" d="M149.6,220c0,0-0.4,5.3-0.4,6.6c0,1.4,0.7,4.5,0.7,5.3s0,17.9-0.7,20s1.9,0.6,1.9,0.6s4.5-11.2,4.5-15.9
		s-0.5-7-0.2-10s2.3-6.9,2.3-6.9L149.6,220z"/>
	<path class="st32" d="M148.8,151c0,0-4.2,4.2-2.8,9.7s3.7,5.5,6.3,3.1c2.5-2.4,4-4.8,4.4-7.6C157,153.6,152.7,147.2,148.8,151z"/>
	<path class="st32" d="M148,169.3c0,0,0.6-1.4,1.1-3c0.1-0.3,0.1-0.6,0.2-0.9c0.2-1,0.3-2,0.1-2.7c-0.7-2,4.2-0.6,4.2-0.6
		s-0.9,5.3,0,7C154.5,170.9,148,169.3,148,169.3z"/>
	<path class="st49" d="M156.4,194.7c0,0,3,4.5,3.7,8.5c0.6,4-0.6,9.9-1.1,12.1c-0.4,1.9-1.1,7.8-1.1,8.5c0,0-9.5,2.5-15.8,0.5
		c0,0-1-9.8-1.3-13.4c-0.4-3.6,2.2-15.8,2.2-15.8L156.4,194.7z"/>
	<path class="st52" d="M174.6,196.7l-1.7,1.9c0,0-10.2-8.3-10.7-9.4c-0.5-1.1-3.9-7.3-4.1-7.9c0,0-0.7,1.7-1.2,3.4
		c-0.2,0.7-0.5,2-0.7,2.5c-0.5,1.9-0.5,4.9,0.2,7.4c0,0-8.3,3.1-13.4,0.3c0,0,0.5-4.5-0.3-7.4s-5.1-13-5.1-13s2.3-4.2,4.7-5.1
		c2.4-0.8,5.1-1.4,5.1-1.4h5.6c0,0,3.7,1,4.5,1.2c1.5,0.5,2.9,2.4,3.1,4.1c0.3,1.7,4.2,13.3,4.6,13.6
		C165.8,187.2,174.6,196.7,174.6,196.7z"/>
	<path class="st32" d="M141.1,191.2c0,0,3.7,0.1,4.2,0c0.6-0.1,4.4-1.8,4.6-3.4c0.2-1.6-8.8,1.5-8.8,1.5V191.2z"/>
	<path class="st53" d="M147.1,257.1c0,0-2.8,3.3-2.5,3.9s3.1,0.9,4.8,0.4s2.1-4.7,3-6.4c0.4-0.7-0.1-3-1.1-3.2s-2.1,0.2-2.1,0.2
		S150,254.6,147.1,257.1z"/>
	<g>
		<path class="st32" d="M149.2,251.9c0,0-0.3,1.6-0.8,2.8c-0.4,1.1-2.4,3.7-2.3,4c0.1,0.3,2.2,0.8,3.2,0s1.8-3.1,2-4.6
			s0.1-2.4,0.1-2.4S150.1,251.1,149.2,251.9z"/>
	</g>
	<polygon class="st53" points="152.4,255 152.1,258.7 151.6,258.7 151.9,255.8 	"/>
	<polygon class="st54" points="152.5,186.2 137.6,184.4 144.3,189.9 	"/>
	<path class="st52" d="M141.5,189.1c0,0-0.2,1.9,0,2.3c0,0-9.2-0.9-10-2.2c-0.9-1.3-0.8-2.8-0.8-2.8L141.5,189.1z"/>
	<path class="st55" d="M150.2,154.1c0,0,2,3.7,3.3,5s1.1,2.4,1.1,2.4s4.9-6,1.4-9.7c-3.5-3.6-8-2.2-9.3,1s-0.8,7.1-0.8,7.1
		S145.9,156.1,150.2,154.1z"/>
	<path class="st55" d="M151.5,150.2c0,0-0.5-2.7,3.7-3.7c4.2-1.1,6.1,3.8,5.6,6.7c-0.5,3-4.1,10.5-2.2,11.4c2,1,2.7-1.1,2.7-1.1
		s-0.6,3.7-3.3,2.8s-2.3-6.8-1.9-9.2C156.5,154.7,151.5,150.2,151.5,150.2z"/>
	<path class="st52" d="M147.4,168c0,0,0.4-1.1,0.3-1.4c0,0,5.3-0.3,6.7-0.1c0,0,0.1,1.5,0.1,1.8C154.5,168.7,148.3,169.7,147.4,168z
		"/>
	<polygon class="st13" points="144.3,189.9 152.5,187.1 152.5,186.2 144,188.9 	"/>
	<polygon class="st13" points="144.3,189.9 140,173.8 123.5,172 128,186.9 	"/>
	<path class="st42" d="M152.9,163.4c0,0-1.1,2.5-3.8,2.9c0.1-0.3,0.1-0.6,0.2-0.9C149.3,165.4,150.8,165.7,152.9,163.4z"/>
	<path class="st56" d="M158.1,181.4c0,0-0.7,1.7-1.2,3.4c-0.6-4.7,0.2-8.4,0.2-8.4C157.2,178.8,158.1,181.4,158.1,181.4z"/>
	<path class="st52" d="M152.2,149.7c0,0,3,0.6,4.5,3c0,0-0.3-2.2-1.8-2.8C153.4,149.2,152.2,149.7,152.2,149.7z"/>
</g>
<g>
	
		<linearGradient id="SVGID_26_" gradientUnits="userSpaceOnUse" x1="55.0555" y1="390.3654" x2="86.4204" y2="390.3654" gradientTransform="matrix(1 0 0 -1 0 610)">
		<stop  offset="0" style="stop-color:#3076A1"/>
		<stop  offset="1" style="stop-color:#639C38"/>
	</linearGradient>
	<path class="st57" d="M57.8,178.1c2.7-1.3,5.4,7.4,5.4,7.4c4.6,6,11-2.1,10.4,7.1c-1.1,15.9,18.3,4.9,9.3,21.6
		c-8.9,16.5,7.8,9.4,2.3,22.8c-5.6,13.4,1.7,29.3-6.8,22.8c0,0-7.4-16.2-15-21.1s4.6-11,2.2-17.7c-3.5-9.9-11.8-9.4-5.8-20
		C66,190.1,48.6,182.5,57.8,178.1z"/>
	<g>
		<path class="st3" d="M81.2,253.5c-3.6-2.5-7.8-20.3-8.1-30.9c-0.1-5.4-1.7-7.7-3.1-9.7c-1.3-1.9-2.5-3.5-1.8-7.4
			c1.3-7.2-2.2-10.4-2.2-10.4l0.4-0.5c0.1,0.1,3.7,3.4,2.3,11c-0.6,3.5,0.4,4.9,1.7,6.9c1.4,1.9,3.1,4.3,3.3,10
			c0.2,11.3,4.6,28.1,7.8,30.4L81.2,253.5z"/>
	</g>
	<g>
		
			<linearGradient id="SVGID_27_" gradientUnits="userSpaceOnUse" x1="78.0896" y1="372.8952" x2="106.4535" y2="372.8952" gradientTransform="matrix(1 0 0 -1 0 610)">
			<stop  offset="0" style="stop-color:#3076A1"/>
			<stop  offset="1" style="stop-color:#639C38"/>
		</linearGradient>
		<path class="st58" d="M82.6,254.9c-0.5,0-1,0-1.6-0.1c-1.4-0.2-2.3-1-2.8-2.2c-1-2.8,1.3-7.4,3.1-9.5c0,0,3.1-3.7,2.8-9.1
			c0-0.8-0.1-1.7-0.2-2.4c-0.2-2.1-0.4-3.5,0.5-4.6c0.7-0.8,2.3-1.2,5.1-1.3c4.8,0,6.8-2.1,8.3-3.6c0.6-0.7,1.2-1.3,2.1-1.7l0,0
			c2.4-1.3,4.9-1.4,6-0.5c0.5,0.5,1,1.4,0.1,3.3c-0.8,1.7-1.8,2.7-2.7,3.5c-1.1,1.1-1.8,1.9-1.4,3.4c0.1,0.4,0.2,0.7,0.2,1.1
			c0.7,2.5,1.6,5.4-2.8,7.4c-1,0.4-1.8,0.7-2.5,1.1c-3,1.2-4.8,1.9-7,6.3c-0.4,0.8-0.7,1.7-1.1,2.4C87.2,252,86,254.9,82.6,254.9z
			 M100.1,220.8c-0.7,0.4-1.2,1-1.8,1.6c-1.6,1.7-3.6,3.7-8.7,3.9c-2.5,0-4,0.4-4.6,1.1c-0.7,0.8-0.6,2.2-0.4,4.1
			c0.1,0.7,0.1,1.6,0.2,2.4c0.4,5.4-2.8,9.3-2.9,9.4c-1.8,2.2-3.9,6.5-3,8.9c0.4,1,1.1,1.6,2.3,1.8c4.1,0.8,5.2-1.7,7.1-6
			c0.4-0.7,0.7-1.6,1.1-2.4c2.2-4.6,4.2-5.4,7.2-6.6c0.7-0.2,1.6-0.6,2.5-1.1c3.9-1.7,3.1-4.1,2.4-6.6c-0.1-0.4-0.2-0.7-0.4-1.1
			c-0.5-1.8,0.5-2.8,1.6-4c0.8-0.8,1.8-1.8,2.5-3.4c0.4-0.8,0.7-1.9,0-2.5C104.6,219.5,102.3,219.8,100.1,220.8L100.1,220.8z"/>
	</g>
	<g>
		
			<linearGradient id="SVGID_28_" gradientUnits="userSpaceOnUse" x1="80.5" y1="368.9" x2="101.789" y2="368.9" gradientTransform="matrix(1 0 0 -1 0 610)">
			<stop  offset="0" style="stop-color:#3076A1"/>
			<stop  offset="1" style="stop-color:#639C38"/>
		</linearGradient>
		<path class="st59" d="M81.1,258.2h-0.6c0-0.6,0.8-13.9,6.2-17.7c5.8-4.2,7.7-8.8,8.6-11.9c1.1-3.6,6.3-4.6,6.5-4.6l0.1,0.6
			c0,0-5.1,1-6,4.2c-0.8,3.1-2.8,7.8-8.8,12.2C81.9,244.7,81.2,258.1,81.1,258.2z"/>
	</g>
	
		<linearGradient id="SVGID_29_" gradientUnits="userSpaceOnUse" x1="72.824" y1="386.1237" x2="97.5945" y2="386.1237" gradientTransform="matrix(1 0 0 -1 0 610)">
		<stop  offset="0" style="stop-color:#3076A1"/>
		<stop  offset="1" style="stop-color:#639C38"/>
	</linearGradient>
	<path class="st60" d="M93.2,191.4c-3.7-1.3-3,6-4.6,11.3c-1.6,5.4-17.7,2.4-11,15.8c6.8,13.5-8.6,4.5-4,16.3S74,259.2,79,256
		c4.9-3.3,2.8-18.1,8-19.8c5.2-1.8,6-3.9,0.8-8.6c-5.2-4.8,13.5-9.5,8.9-19.2C92.3,198.9,97.7,193,93.2,191.4z"/>
	<g>
		<path class="st3" d="M81.4,255.6c-0.5-2.1-4.6-19.8-0.7-22c3.4-1.9,3.3-9.3,2.8-16.2c-0.5-6.2,7.5-9.1,7.7-9.2l0.2,0.6
			c-0.1,0-7.8,2.9-7.4,8.6c0.5,7.1,0.6,14.7-3,16.8c-2.9,1.7-0.2,15.9,1.1,21.2L81.4,255.6z"/>
	</g>
	
		<linearGradient id="SVGID_30_" gradientUnits="userSpaceOnUse" x1="67.1369" y1="350.45" x2="90.0153" y2="350.45" gradientTransform="matrix(1 0 0 -1 0 610)">
		<stop  offset="0" style="stop-color:#FF9340"/>
		<stop  offset="1" style="stop-color:#FFCE45"/>
	</linearGradient>
	<polygon class="st61" points="90,249.3 84.6,269.8 72.5,269.8 67.2,249.3 	"/>
	
		<linearGradient id="SVGID_31_" gradientUnits="userSpaceOnUse" x1="67.1369" y1="350.45" x2="90.0369" y2="350.45" gradientTransform="matrix(1 0 0 -1 0 610)">
		<stop  offset="0" style="stop-color:#C97332"/>
		<stop  offset="1" style="stop-color:#FFCE45"/>
	</linearGradient>
	<path class="st62" d="M90,249.3c0,0-11.9,2.3-11.9,20.5h-5.6l-5.4-20.5L90,249.3L90,249.3z"/>
</g>
</svg>
