<?xml version="1.0" encoding="utf-8"?>
<!-- Generator: Adobe Illustrator 22.0.1, SVG Export Plug-In . SVG Version: 6.00 Build 0)  -->
<svg version="1.1" id="Layer_1" xmlns="http://www.w3.org/2000/svg" xmlns:xlink="http://www.w3.org/1999/xlink" x="0px" y="0px"
	 viewBox="0 0 480 270" style="enable-background:new 0 0 480 270;" xml:space="preserve">
<style type="text/css">
	.st0{opacity:0.5;fill:#29ABE2;enable-background:new    ;}
	.st1{fill:#0071BC;}
	.st2{fill:#1487E3;}
	.st3{fill:#FFFFFF;}
	.st4{fill:#BDC1C9;}
	.st5{fill:#323657;}
	.st6{opacity:0.5;fill:#288199;enable-background:new    ;}
	.st7{opacity:0.18;fill:url(#SVGID_1_);enable-background:new    ;}
	.st8{opacity:0.18;fill:url(#SVGID_2_);enable-background:new    ;}
	.st9{fill:url(#SVGID_3_);}
	.st10{fill:#808080;}
	.st11{fill:url(#SVGID_4_);}
	.st12{fill:url(#SVGID_5_);}
	.st13{fill:url(#SVGID_6_);}
	.st14{fill:url(#SVGID_7_);}
	.st15{fill:#F46A60;}
	.st16{fill:#F49F9D;}
	.st17{fill:#434343;}
	.st18{fill:#EEA987;}
	.st19{fill:#EEA886;}
	.st20{fill:#CF8C6C;}
	.st21{fill:#DB9C7C;}
	.st22{fill:#A77860;}
	.st23{fill:#1E3A5E;}
	.st24{fill:#C5CDDB;}
	.st25{fill:#E55353;}
	.st26{fill:#EB4747;}
	.st27{fill:#112136;}
	.st28{fill:#525252;}
	.st29{fill:#D8D8D8;}
	.st30{fill:#81A358;}
	.st31{fill:#71A334;}
	.st32{fill:#60892C;}
	.st33{fill:#86BC44;}
	.st34{fill:#7BA840;}
	.st35{fill:#70A333;}
	.st36{fill:#699331;}
	.st37{fill:#B1D045;}
	.st38{fill:#9EB24E;}
	.st39{fill:url(#SVGID_8_);}
	.st40{fill:url(#SVGID_9_);}
	.st41{fill:#454342;}
	.st42{fill:#918783;}
	.st43{fill:#1D3B54;}
	.st44{fill:#152C3D;}
	.st45{fill:#4794F2;}
	.st46{fill:url(#SVGID_10_);}
	.st47{fill:url(#SVGID_11_);}
	.st48{fill:url(#SVGID_12_);}
	.st49{fill:#BFB2AC;}
	.st50{fill:#FFD1A1;}
	.st51{fill:#B37952;}
	.st52{fill:#D6985E;}
	.st53{fill:#807066;}
	.st54{fill:#6E6760;}
	.st55{fill:#918880;}
	.st56{fill:#BC8551;}
	.st57{fill:#152B3D;}
	.st58{fill:url(#SVGID_13_);}
	.st59{fill:#353A3D;}
	.st60{fill:url(#SVGID_14_);}
</style>
<g>
	<path class="st0" d="M385.1,122.1h-99.2c-9.4,0-17-7.6-17-17v-88c0-9.4,7.6-17,17-17h99.2c9.4,0,17,7.6,17,17v88
		C402.1,114.4,394.5,122.1,385.1,122.1z"/>
	<g>
		<polygon class="st1" points="371.1,47.6 370.8,46.9 354.6,53.2 351.6,66 333.8,71 329.7,80.9 315.8,83.5 316,84.2 330.3,81.6 
			334.3,71.6 352.2,66.6 355.2,53.8 		"/>
	</g>
	<path class="st2" d="M365,22.9h19c1,0,1.9-0.8,1.9-1.9v-0.5c0-1-0.8-1.9-1.9-1.9h-19c-1,0-1.9,0.8-1.9,1.9V21
		C363.1,22,363.9,22.9,365,22.9z"/>
	<path class="st3" d="M365,30.2h19c1,0,1.9-0.8,1.9-1.9v-0.5c0-1-0.8-1.9-1.9-1.9h-19c-1,0-1.9,0.8-1.9,1.9v0.5
		C363.1,29.4,363.9,30.2,365,30.2z"/>
	<path class="st3" d="M365,37.6h19c1,0,1.9-0.8,1.9-1.9v-0.5c0-1-0.8-1.9-1.9-1.9h-19c-1,0-1.9,0.8-1.9,1.9v0.5
		C363.1,36.8,363.9,37.6,365,37.6z"/>
	<path class="st2" d="M346.4,28.8h-61.8c-2.5,0-4.5-2-4.5-4.5v-1.2c0-2.5,2-4.5,4.5-4.5h61.8c2.5,0,4.5,2,4.5,4.5v1.2
		C350.9,26.8,348.9,28.8,346.4,28.8z"/>
	<path class="st3" d="M346.4,43.3h-61.8c-2.5,0-4.5-2-4.5-4.5v-1.2c0-2.5,2-4.5,4.5-4.5h61.8c2.5,0,4.5,2,4.5,4.5v1.2
		C350.9,41.3,348.9,43.3,346.4,43.3z"/>
	<g>
		<g>
			<g>
				<path class="st3" d="M390.3,85.3c-4.7-6.4-12.8-8.8-19.9-6.4c-1.7,0.6-3.4,1.4-4.9,2.5c-4.7,3.4-7.2,8.7-7.3,14.1
					c-0.1,3.7,1.1,7.5,3.4,10.8c0.2,0.3,0.5,0.6,0.7,0.9c1.2,1.4,2.5,2.5,3.9,3.5c6,3.9,14.1,3.9,20.2-0.6
					C394.4,104.4,396.1,93.3,390.3,85.3z M383.8,106.6c-4.6,3.4-10.7,3.4-15.2,0.4c-1.1-0.7-2.1-1.6-2.9-2.6
					c-0.2-0.2-0.4-0.5-0.6-0.7c-1.8-2.4-2.6-5.3-2.6-8.1c0.1-4,1.9-8,5.5-10.6c1.2-0.8,2.4-1.5,3.7-1.9c5.3-1.8,11.4,0,15,4.8
					C391,93.9,389.8,102.3,383.8,106.6z"/>
			</g>
		</g>
	</g>
</g>
<rect x="203.4" y="132.9" class="st4" width="25.6" height="2"/>
<rect x="203.4" y="137.1" class="st4" width="19.1" height="2"/>
<g>
	<g>
		<g>
			<path class="st5" d="M301.7,113.4L301.7,113.4L301.7,113.4z"/>
		</g>
	</g>
</g>
<rect x="241.2" y="132.9" class="st4" width="14.1" height="2"/>
<rect x="241.2" y="137.1" class="st4" width="20.9" height="2"/>
<rect x="278.8" y="102.1" class="st6" width="22.9" height="3.6"/>
<rect x="278.8" y="95.3" class="st6" width="27.8" height="3.6"/>
<linearGradient id="SVGID_1_" gradientUnits="userSpaceOnUse" x1="197.9733" y1="433.4" x2="213.4733" y2="433.4" gradientTransform="matrix(1 0 0 -1 0 440)">
	<stop  offset="0" style="stop-color:#D5E4FF"/>
	<stop  offset="1" style="stop-color:#EDFFFE"/>
</linearGradient>
<polygon class="st7" points="198,8 213.5,8 213.5,5.2 198,5.2 "/>
<linearGradient id="SVGID_2_" gradientUnits="userSpaceOnUse" x1="197.9733" y1="435.85" x2="213.4733" y2="435.85" gradientTransform="matrix(1 0 0 -1 0 440)">
	<stop  offset="0" style="stop-color:#D5E4FF"/>
	<stop  offset="1" style="stop-color:#EDFFFE"/>
</linearGradient>
<polygon class="st8" points="198,4.4 213.5,4.4 213.5,3.9 198,3.9 "/>
<g>
	
		<linearGradient id="SVGID_3_" gradientUnits="userSpaceOnUse" x1="206.5" y1="201.8739" x2="206.5" y2="224.4355" gradientTransform="matrix(1 0 0 -1 0 440)">
		<stop  offset="0" style="stop-color:#FFE9D9"/>
		<stop  offset="1" style="stop-color:#BABABA"/>
	</linearGradient>
	<polygon class="st9" points="197.1,214.6 215.9,214.6 215.9,164.7 197.1,164.7 	"/>
</g>
<g>
	<path class="st10" d="M137.6,185.5h137.8c6.6,0,11.9-5.3,11.9-11.9V83.4c0-6.6-5.3-11.9-11.9-11.9H137.6c-6.6,0-11.9,5.3-11.9,11.9
		v90.2C125.7,180.2,131,185.5,137.6,185.5z"/>
</g>
<g>
	
		<linearGradient id="SVGID_4_" gradientUnits="userSpaceOnUse" x1="131.3" y1="319.1" x2="281.3" y2="319.1" gradientTransform="matrix(1 0 0 -1 0 440)">
		<stop  offset="0" style="stop-color:#404B61"/>
		<stop  offset="0.486" style="stop-color:#3C4860"/>
		<stop  offset="1" style="stop-color:#2F3E5C"/>
	</linearGradient>
	<path class="st11" d="M281.3,86.2v69.4c0,5.1-4.1,9.2-9.2,9.2H140.5c-5.1,0-9.2-4.1-9.2-9.2V86.2c0-5.1,4.1-9.2,9.2-9.2h131.6
		C277.2,77.1,281.3,81.2,281.3,86.2z"/>
</g>
<linearGradient id="SVGID_5_" gradientUnits="userSpaceOnUse" x1="164.4" y1="227.25" x2="248.6" y2="227.25" gradientTransform="matrix(1 0 0 -1 0 440)">
	<stop  offset="0" style="stop-color:#4D4D4D"/>
	<stop  offset="1" style="stop-color:#CCCCCC"/>
</linearGradient>
<rect x="164.4" y="210.6" class="st12" width="84.2" height="4.3"/>
<g>
	<g>
		<g>
			<path class="st5" d="M137.9,153.1L137.9,153.1C137.9,153.2,137.9,153.2,137.9,153.1z"/>
		</g>
	</g>
</g>
<g>
	<g>
		<g>
			<polygon class="st2" points="117.9,19.1 159.7,19.2 159.6,46.1 159.6,51.7 153.3,46 117.9,46 			"/>
		</g>
	</g>
	<path class="st3" d="M135.2,32.7c0,1.6,1.3,2.8,3.1,2.8c1.7,0,3.1-1.3,3.1-2.8c0-1.6-1.3-2.8-3.1-2.8
		C136.5,29.8,135.2,31.1,135.2,32.7z"/>
	<path class="st3" d="M125.1,32.6c0,1.6,1.3,2.8,3.1,2.8c1.7,0,3.1-1.3,3.1-2.8c0-1.6-1.3-2.8-3.1-2.8
		C126.4,29.8,125.1,31.1,125.1,32.6z"/>
	<path class="st3" d="M145,32.7c0,1.6,1.3,2.8,3.1,2.8c1.7,0,3.1-1.3,3.1-2.8c0-1.6-1.3-2.8-3.1-2.8C146.5,29.8,145,31.1,145,32.7z"
		/>
</g>
<g>
	
		<linearGradient id="SVGID_6_" gradientUnits="userSpaceOnUse" x1="274.1" y1="200.85" x2="138.1" y2="200.85" gradientTransform="matrix(1 0 0 -1 0 440)">
		<stop  offset="0" style="stop-color:#4D4D4D"/>
		<stop  offset="1" style="stop-color:#CCCCCC"/>
	</linearGradient>
	<polygon class="st13" points="265.6,223.2 206.1,223.2 146.6,223.2 138.1,255.1 206.1,255.1 274.1,255.1 	"/>
	<path class="st3" d="M147.5,231.7h7.8c0.3,0,0.6,0.3,0.5,0.5l-0.8,3.4c0,0.2-0.3,0.4-0.5,0.4h-7.9c-0.3,0-0.6-0.3-0.5-0.5l0.9-3.4
		C147.1,231.8,147.3,231.7,147.5,231.7z"/>
	<polygon class="st3" points="158.9,231.7 164.8,231.7 164,236 158,236 	"/>
	<polygon class="st3" points="167.7,231.7 173.6,231.7 173,236 167,236 	"/>
	<polygon class="st3" points="176.5,231.7 182.4,231.7 182,236 176,236 	"/>
	<polygon class="st3" points="185.4,231.7 191.2,231.7 191,236 185,236 	"/>
	<polygon class="st3" points="194.2,231.7 200.1,231.7 200,236 194,236 	"/>
	<polygon class="st3" points="264.9,231.7 256,231.7 257,236 266,236 	"/>
	<polygon class="st3" points="253.1,231.7 247.2,231.7 248,236 254,236 	"/>
	<polygon class="st3" points="244.3,231.7 238.4,231.7 239,236 245,236 	"/>
	<polygon class="st3" points="235.4,231.7 229.5,231.7 230,236 236,236 	"/>
	<polygon class="st3" points="226.6,231.7 220.7,231.7 221,236 227,236 	"/>
	<polygon class="st3" points="217.8,231.7 211.9,231.7 212,236 218,236 	"/>
	<polygon class="st3" points="203,231.7 208.9,231.7 209,236 203,236 	"/>
	<polygon class="st3" points="144.9,239.1 157.2,239.1 156.5,243.6 144,243.6 	"/>
	<polygon class="st3" points="266.8,239.1 251.6,239.1 252.4,243.6 267.9,243.6 	"/>
	<polygon class="st3" points="248.5,239.1 242.4,239.1 243.1,243.6 249.3,243.6 	"/>
	<polygon class="st3" points="239.4,239.1 233.3,239.1 233.8,243.6 240,243.6 	"/>
	<polygon class="st3" points="230.3,239.1 224.2,239.1 224.5,243.6 230.7,243.6 	"/>
	<polygon class="st3" points="221.2,239.1 215.1,239.1 215.3,243.6 221.4,243.6 	"/>
	<polygon class="st3" points="143.1,247 155.7,247 154.7,251.4 141.9,251.4 	"/>
	<polygon class="st3" points="158.8,247 165.1,247 164.3,251.4 157.9,251.4 	"/>
	<polygon class="st3" points="168.2,247 174.5,247 215.4,247 215.6,251.4 167.5,251.4 	"/>
	<polygon class="st3" points="218.5,247 224.8,247 225.2,251.4 218.8,251.4 	"/>
	<polygon class="st3" points="228,247 234.3,247 234.8,251.4 228.4,251.4 	"/>
	<polygon class="st3" points="237.4,247 243.7,247 244.4,251.4 238,251.4 	"/>
	<polygon class="st3" points="246.8,247 253.1,247 254,251.4 247.6,251.4 	"/>
	<polygon class="st3" points="256.3,247 268.8,247 270,251.4 257.2,251.4 	"/>
	<polygon class="st3" points="212,239.1 206,239.1 206,243.6 212.2,243.6 	"/>
	<polygon class="st3" points="202.9,239.1 196.8,239.1 196.7,243.6 202.9,243.6 	"/>
	<polygon class="st3" points="193.8,239.1 187.7,239.1 187.4,243.6 193.6,243.6 	"/>
	<polygon class="st3" points="184.7,239.1 178.6,239.1 178.1,243.6 184.3,243.6 	"/>
	<polygon class="st3" points="175.6,239.1 169.5,239.1 168.8,243.6 175,243.6 	"/>
	<polygon class="st3" points="166.4,239.1 160.3,239.1 159.5,243.6 165.7,243.6 	"/>
	<polygon class="st3" points="147.8,229 148.8,225.2 151.7,225.2 150.7,229 	"/>
	<polygon class="st3" points="154.5,225.2 160.2,225.2 159.4,229 153.6,229 	"/>
	<polygon class="st3" points="163.1,225.2 168.8,225.2 168.2,229 162.3,229 	"/>
	<polygon class="st3" points="171.7,225.2 177.4,225.2 176.9,229 171.1,229 	"/>
	<polygon class="st3" points="180.2,225.2 186,225.2 185.6,229 179.8,229 	"/>
	<polygon class="st3" points="188.8,225.2 194.5,225.2 194.3,229 188.5,229 	"/>
	<polygon class="st3" points="197.4,225.2 203.1,225.2 203.1,229 197.2,229 	"/>
	<polygon class="st3" points="206,225.2 211.7,225.2 211.8,229 206,229 	"/>
	<polygon class="st3" points="214.5,225.2 220.3,225.2 220.5,229 214.7,229 	"/>
	<polygon class="st3" points="223.1,225.2 228.8,225.2 229.2,229 223.4,229 	"/>
	<polygon class="st3" points="231.7,225.2 237.4,225.2 238,229 232.1,229 	"/>
	<polygon class="st3" points="240.3,225.2 246,225.2 246.7,229 240.9,229 	"/>
	<polygon class="st3" points="248.8,225.2 254.6,225.2 255.4,229 249.6,229 	"/>
	<polygon class="st3" points="257.4,225.2 263.1,225.2 264.1,229 258.3,229 	"/>
	
		<linearGradient id="SVGID_7_" gradientUnits="userSpaceOnUse" x1="75.0101" y1="183.95" x2="211.0101" y2="183.95" gradientTransform="matrix(1 0 0 -1 0 440)">
		<stop  offset="0" style="stop-color:#4D4D4D"/>
		<stop  offset="1" style="stop-color:#CCCCCC"/>
	</linearGradient>
	<rect x="138.1" y="255.1" class="st14" width="136" height="1.9"/>
</g>
<g>
	<g>
		<g>
			<rect x="71.5" y="112.5" class="st15" width="26.6" height="2.6"/>
		</g>
		<g>
			<rect x="71.5" y="119.6" class="st16" width="26.6" height="2.6"/>
		</g>
		<g>
			<rect x="71.5" y="126.6" class="st16" width="26.6" height="2.6"/>
		</g>
	</g>
	<g>
		<g>
			<rect x="103.6" y="112.5" class="st15" width="4.4" height="2.6"/>
		</g>
		<g>
			<rect x="103.6" y="119.6" class="st16" width="4.4" height="2.6"/>
		</g>
		<g>
			<rect x="103.6" y="126.6" class="st16" width="4.4" height="2.6"/>
		</g>
	</g>
</g>
<g>
	<path class="st17" d="M204.2,0.4c0,0-25.3-2.1-24.6,24.5s4.9,30.6,0,49.4s24.7-10.7,24.7-10.7L204.2,0.4z"/>
	<path class="st18" d="M225.5,72.4c0,0,35.8,22.4,38.9,20c4.2-3.3,15.8-31.7,15.8-31.7l9,4.3c0,0-10.8,49.1-25.3,45.5
		s-47.8-24.2-47.8-24.2L225.5,72.4z"/>
	<g>
		<g>
			<path class="st19" d="M291.6,62.8c0,0-4.3,5.6-6.9,6.1c-2.6,0.6-5.4-6.4-5.4-6.4l1.4-4.9L291.6,62.8z"/>
		</g>
	</g>
	<g>
		<g>
			<path class="st19" d="M281,60.9c0,0-2-6.4-2.3-7.4s0.7-3.9,2.5-6.7c1.8-2.7,4-5.6,4.8-6.4c0.4-0.4,0.6-0.9,2-0.3
				c1.3,0.6,2.1,1.8,2.1,1.8s2,0,2.9,1.6c0,0,1.9,0.1,2.6,2c0,0,1.8,0.1,2.2,1.6c0,0-0.9,2.7-0.9,3.8s-2.3,6.7-5.2,11.7
				C291.6,62.8,287.2,66.5,281,60.9z"/>
		</g>
	</g>
	<g>
		<g>
			<path class="st20" d="M285.7,52.6c0,0,2.2,2.6,2.5,3.6s6.7-2.8,6.7-2.8S288.9,50,285.7,52.6z"/>
		</g>
	</g>
	<g>
		<g>
			<path class="st21" d="M285.7,41.1c0,0-3.6,7.6-2.4,8.2c1.2,0.7,2,0.2,2,0.2l0.2,3.8c0,0,1.5,2.4,3.7,0c0,0,1.2,2.4,3.1-0.1
				c0,0,1.5,1.2,2.6,0.2s2.8-6.1,2.8-6.1s0-1.4-2.1-1.8c0,0-0.6-1.8-2.6-1.9c0,0-1.3-2.1-3.5-2.2c0,0-1.2-1.6-3.6-0.9
				C286,40.4,285.8,40.7,285.7,41.1z"/>
		</g>
	</g>
	<g>
		<g>
			<path class="st19" d="M278.8,53.2c0,0,4.3-3.8,7.6-4.8c0.7-0.2,1.5-0.3,2,0.3s0.3,2.1-1.5,3.8s-3.3,4.8-3.3,4.8
				S281.2,58.6,278.8,53.2z"/>
		</g>
	</g>
	<g>
		<path class="st19" d="M289.6,41.3c0,0-4.3,8-4.3,8.9c0,0.9-2.9-0.6-2.9-1.4c0-0.8,3.2-7.8,3.6-8.4
			C286.4,39.8,288.8,39.1,289.6,41.3z"/>
	</g>
	<g>
		<path class="st19" d="M285.1,41.9c0,0,7-13.1,8.1-12.6c1.5,0.7,1.1,4.3-4.8,14.1C282.6,52.9,285.1,41.9,285.1,41.9z"/>
	</g>
	<path class="st15" d="M227.4,99.6l14.5-19.2c0,0-25.9-20-33.9-7.3C208,73.1,207.5,94.1,227.4,99.6z"/>
	<path class="st15" d="M236.1,98.9c-0.4,6.4-3.7,11.8-4.3,14.1c-0.5,2.3,0,7.7-0.7,13s-2.7,30.8-2.1,38.1c0,0.2,0,0.5-0.1,0.7h-53
		c2-3.6,7.9-15.1,8.1-20.4c0.1-2.2,1.4-8.9-2.2-13.8c-1.9-2.6-5.4-10.9-8.9-17c-1.4-2.4-2.8-4.7-3.8-6.4c-0.6-1.1-1.1-2.4-1.5-3.3
		c-0.3-1-0.5-1.6-0.5-1.6s-1.3-16,0.8-25.1c0.7-3,1.7-5.2,3.2-6c6.2-3.2,9.5-3.7,15.5-4s10-1.5,10-1.5l14.1,1.5c0,0,9,3.2,12.6,3.4
		c2.2,0.2,4.7,3.1,6.3,6.5c1,2.1,1.5,4.4,1.4,6.3C230.8,88.3,236.5,92.4,236.1,98.9z"/>
	<path class="st19" d="M181.2,77.1c-0.9,6.7-5.1,15.1-6.3,16.3c-1.9,2.1-11.2,31-12.7,35.1s-2.5,15.8-5.1,22.4
		c-1,2.6-2.7,7.9-4.4,13.8h-13.9c2.3-12.3,8.7-30.9,9.9-33.8c1.2-3.2,4.5-24.9,5.7-28.6s1.8-14.1,6.9-24c0.2-0.4,0.5-0.9,0.7-1.3
		c5.3-8.6,15.6-8.6,15.6-8.6C181,69.2,181.7,72.8,181.2,77.1z"/>
	<path class="st15" d="M173.6,108.5l-22.8-7.2c0,0,7-33.7,26.5-32.8C192.9,69.2,173.6,108.5,173.6,108.5z"/>
	<path class="st19" d="M201.7,3.1c6.3-1,20.6,0.5,24.7,17c0,0,0,4.6-0.7,8.2c-0.7,3.7,3.7,13.7,2.9,14.4c-0.8,0.6-4.1,1.7-4.1,1.7
		s-2.4,11.8-6.4,12.2s-19.5-1-28.3-14.4C181.1,28.8,176.4,7.3,201.7,3.1z"/>
	<path class="st19" d="M212.1,52c0,0-0.3,1.7-0.6,4.1c-0.1,1.2-0.3,2.7-0.4,4.2c-0.3,4.2-0.1,9.2,1.3,12.3c0,0-7.9,4.9-16.3-6.8
		c0,0,0.8-14.6-4-22.3C187.3,35.7,212.1,52,212.1,52z"/>
	<path class="st17" d="M226.4,20.1c0,0-9.4,8.2-19.4,10.7c-10,2.6-15.3,13.8-15.3,13.8S174,27,184.7,9.9
		C195.3-7.2,226.4,0.4,226.4,20.1z"/>
	<path class="st22" d="M211.5,56.1c-0.1,1.2-0.3,2.7-0.4,4.2c-8.8-4.3-13.7-10.1-13.7-10.1C202.7,53.9,211.5,56.1,211.5,56.1z"/>
	<path class="st17" d="M205.1,31.5c0,0-10.2,27.5-9,34.1c0,0-5.4-0.9-15.1,2C181.1,67.6,185.7,18.5,205.1,31.5z"/>
	<path class="st19" d="M192.7,66.5c0,0,3.4,20.6,15.8,18.3c12.5-2.3,3-17.4,3-17.4S206.7,62.9,192.7,66.5z"/>
</g>
<g>
	<path class="st23" d="M318.5,251.4c-0.2,1.2-7.4,6.2-8.8,7.2c-1.1,0.8-2.1,1.2-3.8,1.8l0,0c-3.9,1-28.4,8.3-28.4,8.3
		c-0.1-0.2-0.1-0.5-0.2-0.7c-0.9,0.4-1.9,0.6-2.5,0.8c-0.9,0.3-8.2,0.5-9.6,0.8c-1.5,0.3-4.5,0.7-5.6-0.4c-1.2-1.1,0.7-3.6,2.4-4.2
		c1.7-0.6,7.7-0.8,8.8-0.9c1.1-0.1,2.5-0.5,3.2-0.3c0.2,0.1,1.2-0.2,2.4-0.6c0-0.4,0-0.7,0-0.7l6.4-1.9l-1.2-11.4
		c0,0,2.8-10.6,14-2.5c0,0,2.5,0.7,3.4,1c0.1,0,0.2,0,0.3,0c1.7-0.1,9-2.3,11.7-2.3c2.9,0,3.8-0.2,4.8,0.3
		C316.5,246.2,318.7,250.2,318.5,251.4z"/>
	<path class="st23" d="M307,269.3c-1.2,1.1-4.2,0.7-5.7,0.4c-1.5-0.3-8.7-0.5-9.6-0.8s-2.6-0.7-3.8-1.5c-0.1-0.1-0.3-0.2-0.6-0.3
		l0,0l-1.8,1.3l-25.2-8c-1.5-0.4-2.7-1-3.5-1.7c-1.3-1.1-8.6-6-8.8-7.2s1.9-5.2,3-5.7c1-0.5,1.9-0.3,4.8-0.3c2.9,0,11.1,2.6,12,2.3
		c0.4-0.1,1.2-0.5,2-0.9c0.9-0.5,1.8-1,1.8-1c12.3-5.5,13.6,3.5,13.6,3.5l-0.7,11.1c0,0,1,0.5,2.4,1.1l6.1,1.7l-0.8,0.6
		c0.3,0.1,0.6,0.2,0.7,0.1c0.7-0.2,2.1,0.2,3.2,0.3c1.1,0.1,7.1,0.3,8.8,0.9C306.3,265.7,308.2,268.1,307,269.3z"/>
	<path class="st23" d="M269.7,246.8c0.8,0.1,6.6,3.4,7.9,4.2c-2.1-1.1-9.9-3.2-9.9-3.2C268.1,247.6,268.9,247.2,269.7,246.8z"/>
	<path class="st23" d="M299,247.7c0,0-9.8,2.4-11.6,3.4c0.1-0.1,5.2-3.9,7.9-4.5c0,0,2.6,0.8,3.5,1.1
		C298.8,247.7,298.9,247.7,299,247.7L299,247.7z"/>
	<path class="st19" d="M307,269.3c-1.2,1.1-4.2,0.7-5.7,0.4c-1.5-0.3-8.7-0.5-9.6-0.8c-0.3-0.1-0.6-0.2-1-0.3l0,0
		c-0.9-0.3-2-0.6-2.9-1.2c-0.1-0.1-0.3-0.2-0.6-0.3l4.6-3.3l0.1-0.1c0.3,0.1,0.6,0.2,0.7,0.1c0.7-0.2,2.1,0.2,3.2,0.3
		c1.1,0.1,7.1,0.3,8.8,0.9C306.3,265.7,308.2,268.1,307,269.3z"/>
	<path class="st24" d="M307,269.3c-1.2,1.1-4.2,0.7-5.7,0.4c-1.5-0.3-8.7-0.5-9.6-0.8c-0.3-0.1-0.6-0.2-1-0.3l0,0l0,0
		c0,0,2-2,1.1-4.8l0.1-0.1c0.3,0.1,0.6,0.2,0.7,0.1c0.7-0.2,2.1,0.2,3.2,0.3c1.1,0.1,7.1,0.3,8.8,0.9
		C306.3,265.7,308.2,268.1,307,269.3z"/>
	<path class="st25" d="M272.2,249.3L272.2,249.3C272,249.4,272.1,249.4,272.2,249.3z"/>
	<path class="st26" d="M305.1,235.9c-0.1-0.2-5.3-8.4-6.7-12.1c-1.4-3.7-4.8-5.4-6.4-6c-0.6-0.2-1.6-0.5-2.7-0.9
		c-1.9-0.6-4-1.3-4-1.3h-6.7c0,0-2.3,0.8-4.8,1.6l0,0c-2.3,0.8-4.6,1.7-5.4,2.1c-1.7,0.8-4.5,6.8-5.1,7.5s-5,8.8-5.6,11.9
		c-0.5,2.4,13.9,9.5,14.3,10.5c0.5-0.5,2.6-2.5,2.6-2.5s-0.7-0.4-1.6-1c3.9,0.2,13.3-0.2,14.6-0.1c0.3,0,0.6,0,0.9,0l0,0
		c0.4,0.3,3.1,2.7,3.1,2.7s6.7-2.8,9.7-5.9C305.8,238,305.6,236.9,305.1,235.9z M267.3,241.3c-1.4-1.7-3.4-2.7-2.9-3.5s4.7-8,4.7-8
		s2.2,4.8,2.8,7.2c0.6,2.5,0.6,3.6,0.3,4.4c-0.2,0.7-0.4,1.2-0.6,3.2C269.8,243.5,267.9,242.1,267.3,241.3z M296.7,240.5
		c-0.6,0.6-2.8,2-4.8,3.2c-0.2-1.4-0.4-3.6-0.4-4.3c0-1.2,0.5-4.6,1.1-5.9c0.6-1.3,1-4.8,1-4.8s5,6.8,5.8,7.6
		C300.3,237,298.6,238.4,296.7,240.5z"/>
	<g>
		<path class="st19" d="M282.8,197.4c0,0,5.2,0.8,4.4,9c-0.8,8.1-5.4,7.5-5.7,7.5c-0.3,0-4.6,0.1-4.9-9.8
			C276.6,204,276.4,196.7,282.8,197.4z"/>
	</g>
	<g>
		<path class="st19" d="M287.3,204.1c0,0,0.6-0.6,0.8,0c0.2,0.6-0.8,3.4-0.8,3.5c0,0-0.1,0.2-0.2,0.1
			C286.9,207.5,287.3,204.1,287.3,204.1z"/>
	</g>
	<g>
		<path class="st19" d="M276.7,204c0,0-0.6-0.6-0.8,0c-0.2,0.6,0.7,3.4,0.7,3.5c0,0,0.1,0.2,0.2,0.1
			C277.1,207.4,276.7,204,276.7,204z"/>
	</g>
	<g>
		<path class="st17" d="M287.3,205.3l-0.7,1c0,0,0-2.2-0.1-2.5s-0.3-1.4-0.4-1.6c-0.1-0.2-4.5-1.5-8.3,0.4c0,0,0.2,1.6-0.2,1.7
			c-0.4,0.1-0.2,2.6-0.2,2.6l-0.6-0.7c0,0-0.9-6.3-0.7-6.9c0.2-0.7,1-4.6,8.9-2.2c0,0,2.5-0.5,3,1.2
			C288.4,199.8,287.3,205.3,287.3,205.3z"/>
	</g>
	<path class="st27" d="M275.2,257.4c0,0-8-4.8-11.5-5.5c-3.3-0.7-4.5-1.9-4.5-1.9s5.2,0,8.7,2.5
		C270.3,254.1,275.2,257.4,275.2,257.4z"/>
	<path class="st27" d="M282.2,260.7c0,0,13.9-7.3,19.5-8.9c3.2-0.9,4.5-1.9,4.5-1.9s-8.6,0.8-13.8,4
		C290,255.4,282.2,260.7,282.2,260.7z"/>
	<path class="st19" d="M277.2,268.1c-0.9,0.4-1.9,0.6-2.5,0.8c-0.9,0.3-8.2,0.5-9.6,0.8c-1.5,0.3-4.5,0.7-5.6-0.4
		c-1.2-1.1,0.7-3.6,2.4-4.2c1.7-0.6,7.7-0.8,8.8-0.9c1.1-0.1,2.5-0.5,3.2-0.3c0.2,0.1,1.2-0.2,2.4-0.6
		C276.2,263.9,277.2,268.1,277.2,268.1z"/>
	<path class="st23" d="M282.2,267.4l13.6-4l-2.7-0.8C293.2,262.5,282.3,266.5,282.2,267.4z"/>
	<polygon class="st27" points="282.2,267.4 288.6,265.4 284.2,268 	"/>
	<path class="st28" d="M277.9,251.1c0,0-0.1-0.1-0.3-0.2C277.7,251,277.8,251,277.9,251.1z"/>
	<path class="st24" d="M274.7,268.9c-0.9,0.3-8.2,0.5-9.6,0.8c-1.5,0.3-4.5,0.7-5.6-0.4c-1.2-1.1,0.7-3.6,2.4-4.2
		c1.7-0.6,7.7-0.8,8.8-0.9c1.1-0.1,2.5-0.5,3.2-0.3C273.8,263.8,272,266.6,274.7,268.9z"/>
	<path class="st29" d="M270.2,249.9l-2.1-11.9l27.2-0.6l-1.7,11.8c0,0-8.7,3.2-11.6,5C281.9,254.1,274.5,251.1,270.2,249.9z"/>
	<path class="st19" d="M286,215.5l-0.7-0.3c-0.3-0.7-0.1-3.8-0.1-3.8s-6.6-1.7-6.4-0.4s-0.6,4.3-0.6,4.3l-3.4,1.7
		c0,0,3.6,9.7,7.8,8.5c4.2-1.3,5.7-8.8,5.7-8.8L286,215.5z"/>
	<path class="st22" d="M278.9,212.4c0,0,1.1,1.4,2.9,1.4c1.2,0,2.1-0.3,3.3-1.5c0,0-0.5,2.2-3.3,2.5
		C281.8,214.8,279.8,215,278.9,212.4z"/>
</g>
<g>
	<g>
		
			<rect x="416.4" y="198.2" transform="matrix(0.9977 -6.741548e-02 6.741548e-02 0.9977 -13.061 28.5506)" class="st30" width="0.2" height="19.2"/>
	</g>
	<g>
		
			<rect x="412.3" y="164.9" transform="matrix(0.9982 -6.035242e-02 6.035242e-02 0.9982 -10.7758 25.2381)" class="st30" width="0.2" height="52.2"/>
	</g>
	<g>
		<rect x="415.3" y="157.4" class="st30" width="0.2" height="60.7"/>
	</g>
	<g>
		
			<rect x="399.7" y="199.5" transform="matrix(2.293119e-02 -0.9997 0.9997 2.293119e-02 208.7611 612.7428)" class="st30" width="36.4" height="0.2"/>
	</g>
	<g>
		<path class="st31" d="M415.2,169.8c0,0-6.4-5.4-4.5-10.7s11.2-2.5,8.1,7.2C419,166.4,418,168.8,415.2,169.8z"/>
	</g>
	<g>
		<polygon class="st32" points="417.2,167.1 417,167.1 417.4,161.4 417.7,160.5 		"/>
	</g>
	<g>
		<polygon class="st32" points="414.1,167.3 413.8,167.3 414.1,158.1 414.3,159.6 		"/>
	</g>
	<g>
		<polygon class="st32" points="412.9,165.7 411.8,159.6 412.2,160.5 413.1,165.7 		"/>
	</g>
	<g>
		<path class="st33" d="M411.2,178.7c0,0-5.4-7.1-2.6-12.1s21.2-0.8,12.9,17.2s-14.7,5.9-14.7,5.9L411.2,178.7z"/>
	</g>
	<g>
		<polygon class="st34" points="416,191.6 415.8,191.5 420.8,172.8 421.4,171.5 		"/>
	</g>
	<g>
		<polygon class="st34" points="414.5,189.8 414.3,189.8 415.2,168.7 415.5,167.5 		"/>
	</g>
	<g>
		<polygon class="st34" points="412.3,182.8 411.3,167.8 411.7,169.1 412.5,182.8 		"/>
	</g>
	<g>
		<path class="st35" d="M415.4,185c0,0-0.8-12.1-7.8-7.7c-7,4.5-8.7,22,7.8,27.3V185z"/>
	</g>
	<g>
		<polygon class="st36" points="416.5,196.7 409.5,179.7 409,178.3 416.7,196.6 		"/>
	</g>
	<g>
		<path class="st36" d="M417.6,198c-0.6,0-1.7-0.8-3.2-2.4c-1.1-1.3-2.6-3-4.3-5.1c-2.8-3.7-4.6-6.3-4.7-6.3l-0.6-1.3
			c0,0,2.6,3.8,5.4,7.4c4.8,6.2,6.6,7.4,7.3,7.5L417.6,198z"/>
	</g>
	<g>
		<path class="st36" d="M418.6,200.3c-1.5,0-4.4-1.6-8.9-4.8c-3.2-2.4-6.2-4.8-6.2-4.8l0.9,0.4c1.1,0.9,10.7,8.9,14.1,8.9v0.3
			L418.6,200.3L418.6,200.3z"/>
	</g>
	<g>
		<path class="st36" d="M408.8,199.4c0.2,0.1,1.3,0.3,4,0.7c1.6,0.3,5.2,0.8,6.8,0.9v0.2c-1.7,0-5.4-0.6-7-0.9
			c-1.3-0.2-2.5-0.4-3.4-0.6c-1.6-0.3-1.6-0.4-1.7-0.4L408.8,199.4z"/>
	</g>
	<g>
		<path class="st37" d="M417.6,211.7c0,0-5.7-6.1-4.4-15.4c1.4-9.3,11.8-9.3,11.8-0.2C424.9,205.1,423,207.7,417.6,211.7z"/>
	</g>
	<g>
		<polygon class="st38" points="418.1,211 417.9,210.9 420.7,191.8 421.1,190.6 418.3,209.8 423.8,194 423.9,194.5 		"/>
	</g>
	<g>
		<polygon class="st38" points="417.6,211.1 414.5,196.3 414.5,195.3 417.5,209.8 416.7,191.4 417,193.3 417.8,211 		"/>
	</g>
	
		<linearGradient id="SVGID_8_" gradientUnits="userSpaceOnUse" x1="407.6622" y1="217.15" x2="423.1019" y2="217.15" gradientTransform="matrix(1 0 0 -1 0 440)">
		<stop  offset="0" style="stop-color:#BAD0DE"/>
		<stop  offset="1" style="stop-color:#F5F2FF"/>
	</linearGradient>
	<polygon class="st39" points="423.1,217.1 419.5,228.6 411.3,228.6 407.7,217.1 	"/>
	
		<linearGradient id="SVGID_9_" gradientUnits="userSpaceOnUse" x1="407.6622" y1="217.1" x2="423.1019" y2="217.1" gradientTransform="matrix(1 0 0 -1 0 440)">
		<stop  offset="0" style="stop-color:#9FA0AD"/>
		<stop  offset="0.9948" style="stop-color:#55B5FF"/>
	</linearGradient>
	<path class="st40" d="M423.1,217.1c0,0-8,1.3-8,11.6h-3.8l-3.7-11.6H423.1z"/>
	<path class="st41" d="M410,229.6L410,229.6L410,229.6z"/>
	<path class="st19" d="M367,171.6c0,0,1.1,0.2,1.7,0.2c0.5,0,3.1-1.1,4-1s6.2,2.4,6.4,2.5c0.2,0.2-0.1,0.5-0.1,0.5l-12.3,0.1
		L367,171.6z"/>
	<rect x="338.1" y="196.5" class="st42" width="2.1" height="25.9"/>
	<path class="st43" d="M364.8,219.4c0,0,0,1.1,0.4,2.5c0.3,0.9,0.8,4.8,1.6,5.3c0.7,0.5,2.9,2,2.6,3.3c-0.3,1.5-0.6,2.4-3,1.6
		c-2.4-0.8-4.1-1.4-4.5-3.4c-0.4-2.1-1.8-4.1-1.8-4.1l-1.8,4.4l-0.9-0.4c0,0,1.4-4.7,1.3-5.1s0.6-4.2,3.5-5.1
		C365.1,217.4,364.8,219.4,364.8,219.4z"/>
	<path class="st43" d="M381.1,220.7c0,0,0.4,1,1.3,2.2c0.6,0.8,2.5,4.1,3.3,4.4c0.8,0.2,3.4,0.7,3.7,2.2c0.2,1.5,0.3,2.5-2.2,2.6
		c-2.6,0.1-4.3,0.3-5.5-1.6c-1.3-1.8-3.2-3.1-3.2-3.1v4.7h-1c0,0-0.4-4.9-0.7-5.2c-0.3-0.3-0.9-4.1,1.5-6.1
		C380.7,218.7,381.1,220.7,381.1,220.7z"/>
	<path class="st19" d="M354.9,156.7c0,0,0.5-2,0.6-2.3s0.6-0.8,1.3-1.4c0.6-0.5,1.9-0.9,2-0.9s0.3,0,0.5,0.3s0.3,0.7,0.3,0.7
		s0.4,0.2,0.5,0.7c0,0,0.4,0.2,0.3,0.8c0,0,0.4,0.2,0.3,0.6c0,0-0.5,0.5-0.7,0.7c-0.1,0.2-1.4,1.3-2.6,2.1
		C357.4,158.1,355.7,159.4,354.9,156.7z"/>
	<path class="st43" d="M334.9,160.2c0.8-1.4,1.9-1.9,5.3,0.5s2.6,1.9,3.4,2.6c0.8,0.7,4.4,2.6,4.4,2.6s2.1-2.1,3.1-3.5
		c1.1-1.7,3.5-6.2,3.5-6.2l3.3,2.5c0,0-6.5,11.7-7.8,12.5s-5.4-0.6-7.5-1.5s-4.4-2.1-5.3-2.3C336.3,167.3,332.8,163.5,334.9,160.2z"
		/>
	<path class="st44" d="M350.8,167.3c0,0,0.6-2.4-0.1-4.4c0,0,0.3,2-0.5,3.3C349.6,167.3,350.8,167.3,350.8,167.3z"/>
	<path class="st19" d="M376.5,194.4c0,0-3,6.9-5.2,11.8c-0.4,0.8-0.7,1.6-1,2.3c-0.3,0.8-0.6,1.5-0.8,1.9c-1.4,3.1-4.8,10-4.8,10
		s-2.6,0.1-2.7-2.1c0,0,2.5-4.7,2.5-8s0.4-13.1,3.7-15.2C371.9,192.4,374.4,191.9,376.5,194.4z"/>
	<path class="st19" d="M348.2,181.4c0,0,0.6,0.6,1.1,0.8c0.5,0.1,9.7,0.8,13.9,2.2c4.3,1.4,9.8,2.3,10.8,3.4c1,1.1,2.8,7.7,2.7,9
		c0,1.3,3.8,22.2,4.2,23.8c0.2,0.8-3.4,0.5-3.4,0.5s-5.2-12.4-6.3-14.7c-2.1-4.2-2.1-9.4-2.9-10.1c-0.7-0.8-9.1-2.6-13.9-2.6
		s-15.4,0.4-16.6-0.2c-1.1-0.6-8.3-5.3-5.3-11.7C335.6,175.4,348.2,181.4,348.2,181.4z"/>
	<path class="st45" d="M368.8,186l-7.5,14.5c0,0-2.3-5.4-6.3-6.4c-4-0.9-19.8-0.4-19.8-0.4s-7.3-9.2-1-14.1
		c6.3-4.8,13.6,0.7,13.6,0.7s1.5,1.7,2.2,1.7C350.6,182.1,356.4,182,368.8,186z"/>
	<path class="st19" d="M385.8,227.2c0,0-2.3,0.6-3.2,0c-0.8-0.6-3.9-5.6-4.9-5.9c0,0,0.9-2,3.4-0.5
		C381.1,220.7,385.2,226.3,385.8,227.2z"/>
	<path class="st19" d="M366.8,227.1c0,0-2.4-0.3-2.9-1.1c-0.6-0.8-1.5-6.7-2.3-7.3c0,0,1.7-1.5,3.3,0.7
		C364.8,219.4,366.5,226,366.8,227.1z"/>
	<path class="st19" d="M344.1,149.9c0,0-0.1,0.4-0.3,1.1c-0.1,0.3-0.2,0.7-0.2,1.1c-0.2,1.3-0.3,2.6,0,3.5c0,0-2.5,0.8-4.6-2.7
		c0,0,0.8-3.9-0.2-6.3C337.6,144.4,344.1,149.9,344.1,149.9z"/>
	<path class="st22" d="M343.8,150.8c-0.1,0.3-0.2,0.9-0.3,1.4c-2.4-1.5-3.1-4.1-3.1-4.1C341.8,149.4,343.8,150.8,343.8,150.8z"/>
	<path class="st43" d="M350.7,164.8c-0.5,2.5-2,2.6-1.9,4.5s0.6,2-0.3,4.9c-0.2,0.5-0.3,1.1-0.4,1.7c0,0.1,0,0.1,0,0.2
		c-0.1,0.3-0.1,0.6-0.2,1c-0.1,0.6-0.1,1.3-0.2,1.8c-0.1,1.5,0.9,2.5,0.9,2.5s-9.3,5.5-15.6,4.8c0,0,1.7-7,2.6-9.4s0.6-13.5,0-15.8
		c-0.9-3.5,0.9-8.8,3.7-9.4l4.2,2c0,0,4.2,5,5.2,5.8C349.5,160.1,351.3,162.3,350.7,164.8z"/>
	<path class="st43" d="M336.9,154.6c1.1-0.9,2.9-2.7,5.4,0.6s4.3,5.5,4.9,6.5c0.5,0.9,5.2,7.7,5.2,7.7s4.6,0.5,6.4,0.7
		c2.3,0.2,10.2,1,10.2,1l0.2,3.3c0,0-14.1,0.1-15.6,0.4c-1.6,0.4-5.9-3.5-7.6-5c-1.8-1.6-6.6-7-7.4-7.6
		C337.7,161.9,333.8,157.2,336.9,154.6z"/>
	<path class="st22" d="M371.3,206.3c-0.4,0.8-0.7,1.6-1,2.3c-1.1-3.7-1-9.7-1-9.7C369.9,203.1,371.3,206.2,371.3,206.3z"/>
	
		<linearGradient id="SVGID_10_" gradientUnits="userSpaceOnUse" x1="337.6764" y1="237.2697" x2="347.6703" y2="296.7338" gradientTransform="matrix(1 0 0 -1 0 440)">
		<stop  offset="0" style="stop-color:#C4E4FF"/>
		<stop  offset="1" style="stop-color:#CDC9FF"/>
	</linearGradient>
	<rect x="322.8" y="193.7" class="st46" width="32.2" height="3.5"/>
	
		<linearGradient id="SVGID_11_" gradientUnits="userSpaceOnUse" x1="342.8032" y1="236.4081" x2="352.7973" y2="295.8722" gradientTransform="matrix(1 0 0 -1 0 440)">
		<stop  offset="0" style="stop-color:#C4E4FF"/>
		<stop  offset="1" style="stop-color:#CDC9FF"/>
	</linearGradient>
	<path class="st47" d="M339.6,182.3c0,0-0.8,3.3,3,4.1c3.9,0.7,8.6,1.7,8.6,7.6H338L339.6,182.3z"/>
	
		<linearGradient id="SVGID_12_" gradientUnits="userSpaceOnUse" x1="324.0538" y1="239.5593" x2="334.048" y2="299.0239" gradientTransform="matrix(1 0 0 -1 0 440)">
		<stop  offset="0" style="stop-color:#C4E4FF"/>
		<stop  offset="1" style="stop-color:#CDC9FF"/>
	</linearGradient>
	<path class="st48" d="M322.8,197.2l-11.3-47.4c0,0,20.3-3.2,22.8,5.9c2.4,9.2,6.5,36.3,11.3,38.1
		C350.4,195.6,322.8,197.2,322.8,197.2z"/>
	<path class="st44" d="M349,172.5c0,0-0.2,0.8-0.4,1.6l-5-6.5L349,172.5z"/>
	<polygon class="st43" points="343.6,153.8 343.6,152.8 339.3,150.7 337.8,152.5 	"/>
	<path class="st49" d="M359.1,229.1c0,0.9-0.7,1.7-1.7,1.7c-0.9,0-1.7-0.7-1.7-1.7c0-0.9,0.7-1.7,1.7-1.7
		C358.2,227.4,359.1,228.1,359.1,229.1z"/>
	<polygon class="st42" points="321.1,227.4 321.5,228.6 339.6,223 338.6,220.6 	"/>
	<polygon class="st42" points="357.3,227.4 356.9,228.6 338.8,223 339.7,220.4 	"/>
	<polygon class="st42" points="344.7,228.4 344.7,229.9 338.8,223 339.7,220.4 	"/>
	<path class="st49" d="M344.8,229.1c0,0.9-0.7,1.7-1.7,1.7c-0.9,0-1.7-0.7-1.7-1.7c0-0.9,0.7-1.7,1.7-1.7
		C344.1,227.4,344.8,228.1,344.8,229.1z"/>
	<path class="st49" d="M322.8,229.1c0,0.9-0.7,1.7-1.7,1.7c-0.9,0-1.7-0.7-1.7-1.7c0-0.9,0.7-1.7,1.7-1.7
		C321.9,227.4,322.8,228.1,322.8,229.1z"/>
	<polygon class="st50" points="360.4,149.6 361.5,153.9 362.1,156.7 359,157.9 357.6,155.5 355.3,151.6 	"/>
	<polygon class="st51" points="361.5,153.9 362.1,156.7 359,157.9 357.6,155.5 	"/>
	
		<rect x="355.1" y="149.5" transform="matrix(0.9285 -0.3712 0.3712 0.9285 -30.1263 143.4775)" class="st51" width="5.1" height="1"/>
	
		<rect x="355" y="150.2" transform="matrix(0.9285 -0.3713 0.3713 0.9285 -30.3367 143.634)" class="st51" width="5.7" height="0.8"/>
	<path class="st19" d="M355.6,154.4c0,0,1.1-1,2-1.3c0.2-0.1,0.4-0.1,0.5,0.1c0.1,0.1,0.1,0.5-0.4,1c-0.4,0.4-0.8,1.3-0.8,1.3
		S356.3,155.8,355.6,154.4z"/>
	<path class="st5" d="M341.4,135.8c-1.9,0.4-0.7,5.2-2.1,12c-1.3,6.8-5.3,7.8-5.3,7.8s1.8-3,1.6-6.2c-0.1-2.4-3.1-9.1-0.2-13.5
		c2.3-3.3,6.3-0.3,6.3-0.3L341.4,135.8z"/>
	<path class="st19" d="M344.7,136.2c1.8,0.1,5.4,1.5,5.5,6.1c0,0-0.3,1.3-0.7,2.2c-0.4,0.9,0.1,3.9-0.1,4s-1.1,0.2-1.1,0.2
		s-1.4,3-2.4,2.8c-1-0.1-5.1-1.5-6.6-5.5C337.6,141.7,337.7,135.8,344.7,136.2z"/>
	<path class="st5" d="M350.2,142.3c0,0-3,1.6-5.8,1.7s-5.1,4.6-5.1,4.6s-3.4-7.6,0.5-11.5C343.6,133.1,351.4,137,350.2,142.3z"/>
	<path class="st19" d="M343.6,143.9c0-0.5-0.4-1.5-1.5-0.7c-0.9,0.6-0.1,3.3,0.6,3.1C343.6,146.1,343.6,144.5,343.6,143.9z"/>
	<path class="st52" d="M369.1,175.6v1h50.8v-1c0-1-0.6-1.8-1.5-1.8h-47.8C369.7,173.9,369.1,174.7,369.1,175.6z"/>
	<path class="st53" d="M401.6,228.6H417v-2.5h-13.2c-1.1,0-2.1,0.9-2.1,2.1L401.6,228.6L401.6,228.6z"/>
	<rect x="414.1" y="176.8" class="st53" width="2" height="52"/>
	<rect x="410" y="176.8" class="st53" width="2" height="52"/>
	<rect x="395.5" y="144" class="st54" width="1.1" height="26.5"/>
	<g>
		<path class="st55" d="M398.4,173.9h9v-0.5h-9c-0.4,0-0.8-0.1-1-0.3c-0.2-0.3-0.2-0.6-0.2-0.6l0,0l0,0v-11.6h-0.5v11.5
			c0,0.1,0,0.6,0.3,1C397.4,173.7,397.8,173.9,398.4,173.9z"/>
	</g>
	<path class="st54" d="M386.5,172.9h9.2v0.9h-10v-0.1C385.7,173.2,386,172.9,386.5,172.9z"/>
	<path class="st56" d="M390.6,176.7h29.2v-1c0-1-0.7-1.8-1.6-1.8H395L390.6,176.7z"/>
</g>
<g>
	<g>
		<g>
			<path class="st19" d="M82.2,157.5c0,0,1.3-2.2-0.7-8.3c-2-5.8-8.8-5.3-10.9-1.6c-2.2,3.7-1.5,6.1,1.8,10.3
				C75.4,162.3,80.8,159.5,82.2,157.5z"/>
		</g>
	</g>
	<g>
		<g>
			<path class="st19" d="M66.3,261.2c0,0-0.3,2.5-0.4,2.8c0,0.4-3.8-0.2-3.8-0.2l-0.3-2.9C61.9,260.9,65.8,260.8,66.3,261.2z"/>
		</g>
	</g>
	<g>
		<g>
			<path class="st57" d="M66,263.8c0,0,1.2,1.5,2.3,2.1c1.2,0.6,2.9,0.9,3.6,1.6c0.5,0.5,1.8,2.5-2.9,2.5c-4.7,0-7,0.3-7.5-0.5
				s0.7-5.9,0.7-5.9S63.3,263.9,66,263.8z"/>
		</g>
	</g>
	<g>
		<g>
			<path class="st19" d="M92,261.2c0,0-0.3,2.5-0.4,2.8c0,0.4-3.8-0.2-3.8-0.2l-0.3-2.9C87.6,260.9,91.5,260.8,92,261.2z"/>
		</g>
	</g>
	<g>
		<g>
			<path class="st57" d="M91.6,263.8c0,0,1.2,1.5,2.3,2.1c1.2,0.6,5.4,1.2,6,1.9c0.5,0.5,1.3,2.4-5.4,2.2c-4.7-0.1-7,0.3-7.5-0.5
				s0.7-5.9,0.7-5.9S89.3,263.9,91.6,263.8z"/>
		</g>
	</g>
	<g>
		<g>
			<path class="st43" d="M67.5,199.6c0,0-1.9,5.9-1.7,11c0.2,5-0.9,10.6-1.5,16c-0.5,5.9-2.8,20-2.9,23.1s0.3,13.4,0.3,13.4l4.6,0.1
				c0,0,3.9-24.6,4.8-27c1.1-2.5,6-20.4,6.1-22.4C77.6,211.7,67.5,199.6,67.5,199.6z"/>
		</g>
	</g>
	<g>
		<g>
			<path class="st43" d="M86.7,199c0,0,2.8,15.7,3.2,18.7c0.3,3.2,0.5,15.1,0.7,17c0.2,2,1.2,25.6,2,28.4h-5.2
				c0,0-5.3-17.1-5.3-25.2s-3.5-17.6-5.8-22.9c-2.2-5.4-7.5-5.5-8.8-15.4C67.5,199.6,84.8,195.8,86.7,199z"/>
		</g>
	</g>
	<g>
		<g>
			<path class="st19" d="M80.3,159.2c0,0-0.6,1.7,0,2.8s-7.4,0.5-7.4,0.5s0.3-2.5-0.6-4.5C71.1,156,80.3,159.2,80.3,159.2z"/>
		</g>
	</g>
	<g>
		<g>
			<path class="st43" d="M67.2,200.9c0,0,2.8,2.9,19.8-0.4l-0.2-1.5l-19.1,0.7L67.2,200.9z"/>
		</g>
	</g>
	<g>
		<g>
			<path class="st19" d="M81.5,162.5c0,0,2.9,0.3,3.8,0.4c0.8,0.2,6.5-1.1,7.7-1.2c1.2-0.1,6.1-3.5,6.3-3.9s3.1-7.7,3.2-9.3
				c0.2-1.6,2.7-0.7,2.5,0.3c-0.4,2-0.9,6.9-1.3,8.3c-0.3,1.6-1.2,5-1.7,5.5c-0.5,0.4-4.9,3.8-9.4,5.3c-4.4,1.5-7.7,3.6-7.7,3.6
				H63.5c0,0-8.4-12-8.5-13.8c-0.2-1.8,5.9-13.8,7-15.4c1.2-1.5,2.9,0.5,2.9,0.5s-3.6,10.6-4.1,12.1s4.2,8.1,5.5,8.1s4.6-0.4,6-0.4
				c1.5-0.1,3.1-0.7,3.1-0.7L81.5,162.5z"/>
		</g>
	</g>
	<g>
		<g>
			
				<linearGradient id="SVGID_13_" gradientUnits="userSpaceOnUse" x1="57.6832" y1="260.3691" x2="95.3471" y2="260.3691" gradientTransform="matrix(1 0 0 -1 0 440)">
				<stop  offset="0" style="stop-color:#FFE9D9"/>
				<stop  offset="1" style="stop-color:#D9D3CA"/>
			</linearGradient>
			<path class="st58" d="M90.8,170.5c0,0-2.6,1.8-2.8,4.7c-0.2,3.1-1.2,7.8-1.7,9.4c-0.5,1.6,0.4,13.5,0.5,14.3s-16.7,2.8-19.2,0.8
				c0,0-0.7-11-1.1-14.1c-0.3-3.2-1.8-10.7-2.2-11.8c-0.5-1.1-6.3-9.3-6.5-10.3c0,0,3.1-4.8,5.2-4.8c0,0,3.5,4,4.5,4.2
				c1.2,0.2,8-1.1,8-1.1s0.7,1.1,4.7-0.2c0,0,4.7,0.5,5.6,0.6s7.5-0.8,7.5-0.8s2.6,4.4,2.1,6.6L90.8,170.5z"/>
		</g>
	</g>
	<g>
		<g>
			<path class="st19" d="M102.2,149.6c0,0,0.6-2.8-0.1-3.6c-0.4-0.4-1.4-1.7-1.5-1.8c-0.1-0.2-1.2-0.7-1.2-1.1
				c0-0.3,1.1-0.6,1.9,0.2s1.5,0.9,1.8,0.9c0.3-0.1,0.8-3.1,0.9-3.8c0-0.7,0.3-2.6,0.7-2.5c0.4,0.1,0.4,0.9,0.4,0.9s0.5-1.5,0.8-1.2
				s0.3,0.9,0.3,0.9s0.6-0.8,0.8-0.2c0.2,0.6,0,1.2,0,1.2s0.7-0.4,0.7,0.5s-0.2,3.7-0.7,4.6s-2.3,3.6-2.5,4.5
				C104.8,150.3,102.2,149.6,102.2,149.6z"/>
		</g>
	</g>
	<g>
		<g>
			<path class="st19" d="M64.4,144.7c0,0,2-3.4,2.7-3.7c0.6-0.3,1.7-0.4,2.5-1.1c0.8-0.6,2-1.1,1.9-1.3s-1.1-0.1-2.1,0.3
				c-1.1,0.4-1.6,0.2-1.7,0s0.5-1.9,0.8-2.3c0.3-0.4,2.6-2.7,2.2-3.1c-0.4-0.3-1.9,0.9-2.1,1.2c0,0,1.2-2.5,0.7-2.6
				c-0.4-0.1-1.4,0.7-1.4,0.7s0.1-2.1-2.2,1.4c0,0,0.5-1.2-0.2-0.7c-0.7,0.4-1.4,2.5-1.6,3.6c-0.2,1.1-1.3,4.5-2.1,5.4
				C61.1,143.3,64.4,144.7,64.4,144.7z"/>
		</g>
	</g>
	<g>
		<g>
			<path class="st59" d="M72.2,158.1c0,0,1.1,0.1,3.3-0.6c2.2-0.7,2.4-4.7,2.9-4.2c0.9,0.9,1.9,0.3,2.3-0.3c0,0-1.1-1.5-0.6-2.1
				c0.5-0.7,1.4-1.2,1.4-1.2s-1.6-7.6-8.7-4.1C64.3,149.4,72.2,158.1,72.2,158.1z"/>
		</g>
	</g>
	<g>
		<g>
			
				<linearGradient id="SVGID_14_" gradientUnits="userSpaceOnUse" x1="72.6691" y1="277.9751" x2="80.2823" y2="277.9751" gradientTransform="matrix(1 0 0 -1 0 440)">
				<stop  offset="0" style="stop-color:#FFE9D9"/>
				<stop  offset="1" style="stop-color:#D9D3CA"/>
			</linearGradient>
			<path class="st60" d="M80.3,162.1L80,161c0,0-4.6-0.1-7,0.3l-0.3,1.4C72.7,162.6,75.8,163.9,80.3,162.1z"/>
		</g>
	</g>
	<g>
		<g>
			<path class="st19" d="M79.1,152.2c-0.4-0.7-2-1.2-2.1,0.8c-0.1,1.5,2.7,3.2,2.7,1.8C79.8,153.2,79.4,152.6,79.1,152.2z"/>
		</g>
	</g>
	<g>
		<g>
			<path class="st25" d="M102.3,148.9c0,0,1.7,0,2.4,0.7c0,0,0.1,0.4-0.1,0.8c0,0-1.5-0.6-2.5-0.8
				C102.1,149.7,102.2,149.1,102.3,148.9z"/>
		</g>
	</g>
	<g>
		<g>
			<path class="st59" d="M104.3,149.3c0.1,0.3,0,0.7-0.4,0.9c-0.3,0.1-0.7,0-0.9-0.4c-0.1-0.3,0-0.7,0.4-0.9
				C103.8,148.8,104.2,149,104.3,149.3z"/>
		</g>
	</g>
</g>
<path class="st3" d="M208.1,28.9c0,3.5-2.3,6.4-5.1,6.3c-2.8,0-5-2.9-5-6.4s2.3-6.4,5.1-6.3C205.9,22.5,208.1,25.4,208.1,28.9z"/>
<g>
	<path class="st3" d="M216.9,45.4c-11.5-4.8-15.3-15.8-15.5-16.3l1.2-0.4c0,0.1,3.7,10.9,14.7,15.5L216.9,45.4z"/>
</g>
<path class="st3" d="M219.4,45.9c-0.2,1.1-1.3,1.7-2.4,1.5c-1.1-0.2-1.7-1.3-1.5-2.4c0.2-1.1,1.3-1.7,2.4-1.5
	C219,43.8,219.7,44.8,219.4,45.9z"/>
</svg>
